<svg width="16" height="42" viewBox="0 0 16 42" fill="none" xmlns="http://www.w3.org/2000/svg">
<path d="M7 41C7 41.5523 7.44772 42 8 42C8.55228 42 9 41.5523 9 41H7ZM8.70711 0.292893C8.31658 -0.0976311 7.68342 -0.0976311 7.29289 0.292893L0.928932 6.65685C0.538408 7.04738 0.538408 7.68054 0.928932 8.07107C1.31946 8.46159 1.95262 8.46159 2.34315 8.07107L8 2.41421L13.6569 8.07107C14.0474 8.46159 14.6805 8.46159 15.0711 8.07107C15.4616 7.68054 15.4616 7.04738 15.0711 6.65685L8.70711 0.292893ZM9 41C9 40.9764 9 40.9527 9 40.9291C9 40.9055 9 40.8819 9 40.8582C9 40.8346 9 40.811 9 40.7874C9 40.7638 9 40.7403 9 40.7167C9 40.6931 9 40.6695 9 40.646C9 40.6224 9 40.5989 9 40.5753C9 40.5518 9 40.5282 9 40.5047C9 40.4812 9 40.4576 9 40.4341C9 40.4106 9 40.3871 9 40.3636C9 40.3401 9 40.3166 9 40.2931C9 40.2696 9 40.2462 9 40.2227C9 40.1992 9 40.1758 9 40.1523C9 40.1289 9 40.1054 9 40.082C9 40.0585 9 40.0351 9 40.0117C9 39.9883 9 39.9648 9 39.9414C9 39.918 9 39.8946 9 39.8712C9 39.8478 9 39.8244 9 39.801C9 39.7777 9 39.7543 9 39.7309C9 39.7076 9 39.6842 9 39.6608C9 39.6375 9 39.6141 9 39.5908C9 39.5675 9 39.5441 9 39.5208C9 39.4975 9 39.4741 9 39.4508C9 39.4275 9 39.4042 9 39.3809C9 39.3576 9 39.3343 9 39.311C9 39.2877 9 39.2645 9 39.2412C9 39.2179 9 39.1946 9 39.1714C9 39.1481 9 39.1249 9 39.1016C9 39.0784 9 39.0551 9 39.0319C9 39.0086 9 38.9854 9 38.9622C9 38.939 9 38.9157 9 38.8925C9 38.8693 9 38.8461 9 38.8229C9 38.7997 9 38.7765 9 38.7533C9 38.7301 9 38.707 9 38.6838C9 38.6606 9 38.6374 9 38.6143C9 38.5911 9 38.5679 9 38.5448C9 38.5216 9 38.4985 9 38.4753C9 38.4522 9 38.4291 9 38.4059C9 38.3828 9 38.3597 9 38.3366C9 38.3134 9 38.2903 9 38.2672C9 38.2441 9 38.221 9 38.1979C9 38.1748 9 38.1517 9 38.1286C9 38.1055 9 38.0824 9 38.0594C9 38.0363 9 38.0132 9 37.9901C9 37.9671 9 37.944 9 37.921C9 37.8979 9 37.8748 9 37.8518C9 37.8287 9 37.8057 9 37.7827C9 37.7596 9 37.7366 9 37.7136C9 37.6905 9 37.6675 9 37.6445C9 37.6215 9 37.5985 9 37.5754C9 37.5524 9 37.5294 9 37.5064C9 37.4834 9 37.4604 9 37.4374C9 37.4144 9 37.3915 9 37.3685C9 37.3455 9 37.3225 9 37.2995C9 37.2766 9 37.2536 9 37.2306C9 37.2077 9 37.1847 9 37.1617C9 37.1388 9 37.1158 9 37.0929C9 37.0699 9 37.047 9 37.024C9 37.0011 9 36.9782 9 36.9552C9 36.9323 9 36.9094 9 36.8864C9 36.8635 9 36.8406 9 36.8177C9 36.7947 9 36.7718 9 36.7489C9 36.726 9 36.7031 9 36.6802C9 36.6573 9 36.6344 9 36.6115C9 36.5886 9 36.5657 9 36.5428C9 36.5199 9 36.497 9 36.4741C9 36.4513 9 36.4284 9 36.4055C9 36.3826 9 36.3598 9 36.3369C9 36.314 9 36.2912 9 36.2683C9 36.2454 9 36.2226 9 36.1997C9 36.1768 9 36.154 9 36.1311C9 36.1083 9 36.0854 9 36.0626C9 36.0398 9 36.0169 9 35.9941C9 35.9712 9 35.9484 9 35.9256C9 35.9027 9 35.8799 9 35.8571C9 35.8342 9 35.8114 9 35.7886C9 35.7658 9 35.7429 9 35.7201C9 35.6973 9 35.6745 9 35.6517C9 35.6289 9 35.6061 9 35.5832C9 35.5604 9 35.5376 9 35.5148C9 35.492 9 35.4692 9 35.4464C9 35.4236 9 35.4008 9 35.378C9 35.3552 9 35.3324 9 35.3097C9 35.2869 9 35.2641 9 35.2413C9 35.2185 9 35.1957 9 35.1729C9 35.1501 9 35.1274 9 35.1046C9 35.0818 9 35.059 9 35.0363C9 35.0135 9 34.9907 9 34.9679C9 34.9452 9 34.9224 9 34.8996C9 34.8769 9 34.8541 9 34.8313C9 34.8086 9 34.7858 9 34.763C9 34.7403 9 34.7175 9 34.6947C9 34.672 9 34.6492 9 34.6265C9 34.6037 9 34.581 9 34.5582C9 34.5355 9 34.5127 9 34.4899C9 34.4672 9 34.4444 9 34.4217C9 34.3989 9 34.3762 9 34.3534C9 34.3307 9 34.308 9 34.2852C9 34.2625 9 34.2397 9 34.217C9 34.1942 9 34.1715 9 34.1487C9 34.126 9 34.1033 9 34.0805C9 34.0578 9 34.035 9 34.0123C9 33.9896 9 33.9668 9 33.9441C9 33.9213 9 33.8986 9 33.8759C9 33.8531 9 33.8304 9 33.8077C9 33.7849 9 33.7622 9 33.7395C9 33.7167 9 33.694 9 33.6712C9 33.6485 9 33.6258 9 33.603C9 33.5803 9 33.5576 9 33.5348C9 33.5121 9 33.4894 9 33.4666C9 33.4439 9 33.4212 9 33.3984C9 33.3757 9 33.353 9 33.3302C9 33.3075 9 33.2848 9 33.262C9 33.2393 9 33.2166 9 33.1938C9 33.1711 9 33.1483 9 33.1256C9 33.1029 9 33.0801 9 33.0574C9 33.0347 9 33.0119 9 32.9892C9 32.9664 9 32.9437 9 32.921C9 32.8982 9 32.8755 9 32.8528C9 32.83 9 32.8073 9 32.7845C9 32.7618 9 32.739 9 32.7163C9 32.6936 9 32.6708 9 32.6481C9 32.6253 9 32.6026 9 32.5798C9 32.5571 9 32.5343 9 32.5116C9 32.4888 9 32.4661 9 32.4433C9 32.4206 9 32.3978 9 32.3751C9 32.3523 9 32.3296 9 32.3068C9 32.2841 9 32.2613 9 32.2385C9 32.2158 9 32.193 9 32.1703C9 32.1475 9 32.1247 9 32.102C9 32.0792 9 32.0564 9 32.0337C9 32.0109 9 31.9881 9 31.9654C9 31.9426 9 31.9198 9 31.8971C9 31.8743 9 31.8515 9 31.8287C9 31.806 9 31.7832 9 31.7604C9 31.7376 9 31.7148 9 31.692C9 31.6693 9 31.6465 9 31.6237C9 31.6009 9 31.5781 9 31.5553C9 31.5325 9 31.5097 9 31.4869C9 31.4641 9 31.4413 9 31.4185C9 31.3957 9 31.3729 9 31.3501C9 31.3273 9 31.3045 9 31.2817C9 31.2589 9 31.2361 9 31.2132C9 31.1904 9 31.1676 9 31.1448C9 31.122 9 31.0991 9 31.0763C9 31.0535 9 31.0307 9 31.0078C9 30.985 9 30.9622 9 30.9393C9 30.9165 9 30.8936 9 30.8708C9 30.848 9 30.8251 9 30.8023C9 30.7794 9 30.7566 9 30.7337C9 30.7108 9 30.688 9 30.6651C9 30.6423 9 30.6194 9 30.5965C9 30.5737 9 30.5508 9 30.5279C9 30.505 9 30.4822 9 30.4593C9 30.4364 9 30.4135 9 30.3906C9 30.3678 9 30.3449 9 30.322C9 30.2991 9 30.2762 9 30.2533C9 30.2304 9 30.2075 9 30.1846C9 30.1616 9 30.1387 9 30.1158C9 30.0929 9 30.07 9 30.0471C9 30.0241 9 30.0012 9 29.9783C9 29.9553 9 29.9324 9 29.9095C9 29.8865 9 29.8636 9 29.8406C9 29.8177 9 29.7948 9 29.7718C9 29.7488 9 29.7259 9 29.7029C9 29.68 9 29.657 9 29.634C9 29.611 9 29.5881 9 29.5651C9 29.5421 9 29.5191 9 29.4961C9 29.4731 9 29.4502 9 29.4272C9 29.4042 9 29.3812 9 29.3581C9 29.3351 9 29.3121 9 29.2891C9 29.2661 9 29.2431 9 29.22C9 29.197 9 29.174 9 29.151C9 29.1279 9 29.1049 9 29.0818C9 29.0588 9 29.0357 9 29.0127C9 28.9896 9 28.9666 9 28.9435C9 28.9204 9 28.8974 9 28.8743C9 28.8512 9 28.8281 9 28.8051C9 28.782 9 28.7589 9 28.7358C9 28.7127 9 28.6896 9 28.6665C9 28.6434 9 28.6203 9 28.5972C9 28.574 9 28.5509 9 28.5278C9 28.5047 9 28.4815 9 28.4584C9 28.4353 9 28.4121 9 28.389C9 28.3658 9 28.3427 9 28.3195C9 28.2963 9 28.2732 9 28.25C9 28.2268 9 28.2036 9 28.1805C9 28.1573 9 28.1341 9 28.1109C9 28.0877 9 28.0645 9 28.0413C9 28.0181 9 27.9949 9 27.9717C9 27.9484 9 27.9252 9 27.902C9 27.8787 9 27.8555 9 27.8323C9 27.809 9 27.7858 9 27.7625C9 27.7393 9 27.716 9 27.6927C9 27.6694 9 27.6462 9 27.6229C9 27.5996 9 27.5763 9 27.553C9 27.5297 9 27.5064 9 27.4831C9 27.4598 9 27.4365 9 27.4132C9 27.3898 9 27.3665 9 27.3432C9 27.3198 9 27.2965 9 27.2732C9 27.2498 9 27.2265 9 27.2031C9 27.1797 9 27.1564 9 27.133C9 27.1096 9 27.0862 9 27.0628C9 27.0394 9 27.016 9 26.9926C9 26.9692 9 26.9458 9 26.9224C9 26.899 9 26.8756 9 26.8521C9 26.8287 9 26.8052 9 26.7818C9 26.7583 9 26.7349 9 26.7114C9 26.688 9 26.6645 9 26.641C9 26.6175 9 26.5941 9 26.5706C9 26.5471 9 26.5236 9 26.5001C9 26.4765 9 26.453 9 26.4295C9 26.406 9 26.3825 9 26.3589C9 26.3354 9 26.3118 9 26.2883C9 26.2647 9 26.2411 9 26.2176C9 26.194 9 26.1704 9 26.1468C9 26.1233 9 26.0997 9 26.076C9 26.0524 9 26.0288 9 26.0052C9 25.9816 9 25.958 9 25.9343C9 25.9107 9 25.887 9 25.8634C9 25.8397 9 25.8161 9 25.7924C9 25.7687 9 25.7451 9 25.7214C9 25.6977 9 25.674 9 25.6503C9 25.6266 9 25.6029 9 25.5791C9 25.5554 9 25.5317 9 25.508C9 25.4842 9 25.4605 9 25.4367C9 25.413 9 25.3892 9 25.3654C9 25.3416 9 25.3179 9 25.2941C9 25.2703 9 25.2465 9 25.2227C9 25.1989 9 25.175 9 25.1512C9 25.1274 9 25.1035 9 25.0797C9 25.0559 9 25.032 9 25.0081C9 24.9843 9 24.9604 9 24.9365C9 24.9126 9 24.8887 9 24.8648C9 24.8409 9 24.817 9 24.7931C9 24.7692 9 24.7452 9 24.7213C9 24.6974 9 24.6734 9 24.6495C9 24.6255 9 24.6015 9 24.5775C9 24.5536 9 24.5296 9 24.5056C9 24.4816 9 24.4576 9 24.4335C9 24.4095 9 24.3855 9 24.3615C9 24.3374 9 24.3134 9 24.2893C9 24.2653 9 24.2412 9 24.2171C9 24.193 9 24.1689 9 24.1448C9 24.1208 9 24.0966 9 24.0725C9 24.0484 9 24.0243 9 24.0001C9 23.976 9 23.9518 9 23.9277C9 23.9035 9 23.8794 9 23.8552C9 23.831 9 23.8068 9 23.7826C9 23.7584 9 23.7342 9 23.71C9 23.6857 9 23.6615 9 23.6372C9 23.613 9 23.5887 9 23.5645C9 23.5402 9 23.5159 9 23.4916C9 23.4674 9 23.4431 9 23.4187C9 23.3944 9 23.3701 9 23.3458C9 23.3215 9 23.2971 9 23.2728C9 23.2484 9 23.224 9 23.1997C9 23.1753 9 23.1509 9 23.1265C9 23.1021 9 23.0777 9 23.0533C9 23.0288 9 23.0044 9 22.98C9 22.9555 9 22.9311 9 22.9066C9 22.8821 9 22.8576 9 22.8332C9 22.8087 9 22.7842 9 22.7596C9 22.7351 9 22.7106 9 22.6861C9 22.6615 9 22.637 9 22.6124C9 22.5879 9 22.5633 9 22.5387C9 22.5141 9 22.4895 9 22.4649C9 22.4403 9 22.4157 9 22.3911C9 22.3664 9 22.3418 9 22.3171C9 22.2925 9 22.2678 9 22.2431C9 22.2184 9 22.1937 9 22.169C9 22.1443 9 22.1196 9 22.0949C9 22.0702 9 22.0454 9 22.0207C9 21.9959 9 21.9711 9 21.9464C9 21.9216 9 21.8968 9 21.872C9 21.8472 9 21.8224 9 21.7975C9 21.7727 9 21.7479 9 21.723C9 21.6982 9 21.6733 9 21.6484C9 21.6235 9 21.5986 9 21.5737C9 21.5488 9 21.5239 9 21.499C9 21.474 9 21.4491 9 21.4241C9 21.3992 9 21.3742 9 21.3492C9 21.3242 9 21.2992 9 21.2742C9 21.2492 9 21.2242 9 21.1992C9 21.1741 9 21.1491 9 21.124C9 21.099 9 21.0739 9 21.0488C9 21.0237 9 20.9986 9 20.9735C9 20.9484 9 20.9232 9 20.8981C9 20.8729 9 20.8478 9 20.8226C9 20.7974 9 20.7723 9 20.7471C9 20.7219 9 20.6967 9 20.6714C9 20.6462 9 20.621 9 20.5957C9 20.5705 9 20.5452 9 20.5199C9 20.4946 9 20.4693 9 20.444C9 20.4187 9 20.3934 9 20.3681C9 20.3427 9 20.3174 9 20.292C9 20.2666 9 20.2413 9 20.2159C9 20.1905 9 20.1651 9 20.1396C9 20.1142 9 20.0888 9 20.0633C9 20.0379 9 20.0124 9 19.9869C9 19.9614 9 19.936 9 19.9104C9 19.8849 9 19.8594 9 19.8339C9 19.8083 9 19.7828 9 19.7572C9 19.7316 9 19.7061 9 19.6805C9 19.6549 9 19.6293 9 19.6036C9 19.578 9 19.5524 9 19.5267C9 19.5011 9 19.4754 9 19.4497C9 19.424 9 19.3983 9 19.3726C9 19.3469 9 19.3211 9 19.2954C9 19.2697 9 19.2439 9 19.2181C9 19.1923 9 19.1665 9 19.1407C9 19.1149 9 19.0891 9 19.0633C9 19.0374 9 19.0116 9 18.9857C9 18.9598 9 18.934 9 18.9081C9 18.8822 9 18.8562 9 18.8303C9 18.8044 9 18.7784 9 18.7525C9 18.7265 9 18.7005 9 18.6745C9 18.6485 9 18.6225 9 18.5965C9 18.5705 9 18.5444 9 18.5184C9 18.4923 9 18.4663 9 18.4402C9 18.4141 9 18.388 9 18.3619C9 18.3357 9 18.3096 9 18.2834C9 18.2573 9 18.2311 9 18.2049C9 18.1787 9 18.1525 9 18.1263C9 18.1001 9 18.0739 9 18.0476C9 18.0214 9 17.9951 9 17.9688C9 17.9425 9 17.9162 9 17.8899C9 17.8636 9 17.8373 9 17.8109C9 17.7846 9 17.7582 9 17.7318C9 17.7054 9 17.679 9 17.6526C9 17.6262 9 17.5998 9 17.5733C9 17.5469 9 17.5204 9 17.4939C9 17.4674 9 17.4409 9 17.4144C9 17.3879 9 17.3614 9 17.3348C9 17.3083 9 17.2817 9 17.2551C9 17.2285 9 17.2019 9 17.1753C9 17.1487 9 17.122 9 17.0954C9 17.0687 9 17.0421 9 17.0154C9 16.9887 9 16.962 9 16.9353C9 16.9085 9 16.8818 9 16.855C9 16.8283 9 16.8015 9 16.7747C9 16.7479 9 16.7211 9 16.6943C9 16.6674 9 16.6406 9 16.6137C9 16.5869 9 16.56 9 16.5331C9 16.5062 9 16.4793 9 16.4523C9 16.4254 9 16.3984 9 16.3715C9 16.3445 9 16.3175 9 16.2905C9 16.2635 9 16.2365 9 16.2094C9 16.1824 9 16.1553 9 16.1282C9 16.1011 9 16.074 9 16.0469C9 16.0198 9 15.9927 9 15.9655C9 15.9384 9 15.9112 9 15.884C9 15.8568 9 15.8296 9 15.8024C9 15.7752 9 15.7479 9 15.7206C9 15.6934 9 15.6661 9 15.6388C9 15.6115 9 15.5842 9 15.5568C9 15.5295 9 15.5021 9 15.4748C9 15.4474 9 15.42 9 15.3926C9 15.3652 9 15.3377 9 15.3103C9 15.2828 9 15.2554 9 15.2279C9 15.2004 9 15.1729 9 15.1453C9 15.1178 9 15.0903 9 15.0627C9 15.0351 9 15.0075 9 14.9799C9 14.9523 9 14.9247 9 14.8971C9 14.8694 9 14.8418 9 14.8141C9 14.7864 9 14.7587 9 14.731C9 14.7032 9 14.6755 9 14.6477C9 14.62 9 14.5922 9 14.5644C9 14.5366 9 14.5088 9 14.4809C9 14.4531 9 14.4253 9 14.3974C9 14.3695 9 14.3416 9 14.3137C9 14.2858 9 14.2578 9 14.2299C9 14.2019 9 14.1739 9 14.1459C9 14.1179 9 14.0899 9 14.0619C9 14.0338 9 14.0058 9 13.9777C9 13.9496 9 13.9215 9 13.8934C9 13.8653 9 13.8371 9 13.809C9 13.7808 9 13.7526 9 13.7244C9 13.6962 9 13.668 9 13.6398C9 13.6115 9 13.5833 9 13.555C9 13.5267 9 13.4984 9 13.4701C9 13.4418 9 13.4134 9 13.3851C9 13.3567 9 13.3283 9 13.2999C9 13.2715 9 13.2431 9 13.2146C9 13.1862 9 13.1577 9 13.1292C9 13.1007 9 13.0722 9 13.0437C9 13.0152 9 12.9866 9 12.958C9 12.9295 9 12.9009 9 12.8722C9 12.8436 9 12.815 9 12.7863C9 12.7577 9 12.729 9 12.7003C9 12.6716 9 12.6429 9 12.6141C9 12.5854 9 12.5566 9 12.5278C9 12.499 9 12.4702 9 12.4414C9 12.4126 9 12.3837 9 12.3549C9 12.326 9 12.2971 9 12.2682C9 12.2393 9 12.2103 9 12.1814C9 12.1524 9 12.1234 9 12.0944C9 12.0654 9 12.0364 9 12.0073C9 11.9783 9 11.9492 9 11.9201C9 11.891 9 11.8619 9 11.8328C9 11.8037 9 11.7745 9 11.7453C9 11.7161 9 11.6869 9 11.6577C9 11.6285 9 11.5992 9 11.57C9 11.5407 9 11.5114 9 11.4821C9 11.4528 9 11.4235 9 11.3941C9 11.3647 9 11.3354 9 11.306C9 11.2766 9 11.2471 9 11.2177C9 11.1882 9 11.1588 9 11.1293C9 11.0998 9 11.0703 9 11.0407C9 11.0112 9 10.9816 9 10.952C9 10.9225 9 10.8928 9 10.8632C9 10.8336 9 10.8039 9 10.7743C9 10.7446 9 10.7149 9 10.6852C9 10.6554 9 10.6257 9 10.5959C9 10.5662 9 10.5364 9 10.5066C9 10.4767 9 10.4469 9 10.417C9 10.3872 9 10.3573 9 10.3274C9 10.2975 9 10.2675 9 10.2376C9 10.2076 9 10.1777 9 10.1477C9 10.1177 9 10.0876 9 10.0576C9 10.0275 9 9.99746 9 9.96736C9 9.93727 9 9.90715 9 9.877C9 9.84686 9 9.81669 9 9.7865C9 9.75631 9 9.72609 9 9.69585C9 9.66562 9 9.63535 9 9.60506C9 9.57478 9 9.54447 9 9.51413C9 9.4838 9 9.45344 9 9.42305C9 9.39267 9 9.36226 9 9.33183C9 9.3014 9 9.27094 9 9.24046C9 9.20998 9 9.17948 9 9.14895C9 9.11842 9 9.08787 9 9.05729C9 9.02671 9 8.99611 9 8.96549C9 8.93486 9 8.90421 9 8.87353C9 8.84286 9 8.81216 9 8.78143C9 8.75071 9 8.71996 9 8.68918C9 8.65841 9 8.62761 9 8.59678C9 8.56596 9 8.53511 9 8.50424C9 8.47336 9 8.44247 9 8.41154C9 8.38062 9 8.34967 9 8.3187C9 8.28772 9 8.25672 9 8.2257C9 8.19468 9 8.16363 9 8.13255C9 8.10148 9 8.07038 9 8.03925C9 8.00813 9 7.97698 9 7.9458C9 7.91463 9 7.88343 9 7.8522C9 7.82098 9 7.78972 9 7.75845C9 7.72717 9 7.69587 9 7.66454C9 7.63321 9 7.60186 9 7.57048C9 7.5391 9 7.50769 9 7.47626C9 7.44483 9 7.41337 9 7.38189C9 7.35041 9 7.3189 9 7.28737C9 7.25583 9 7.22427 9 7.19269C9 7.1611 9 7.12949 9 7.09785C9 7.06621 9 7.03455 9 7.00286C9 6.97117 9 6.93945 9 6.90771C9 6.87597 9 6.8442 9 6.8124C9 6.78061 9 6.74879 9 6.71694C9 6.68509 9 6.65322 9 6.62132C9 6.58942 9 6.55749 9 6.52554C9 6.49358 9 6.4616 9 6.4296C9 6.39759 9 6.36556 9 6.3335C9 6.30144 9 6.26935 9 6.23724C9 6.20512 9 6.17298 9 6.14082C9 6.10865 9 6.07646 9 6.04424C9 6.01202 9 5.97977 9 5.9475C9 5.91522 9 5.88292 9 5.85059C9 5.81826 9 5.78591 9 5.75353C9 5.72114 9 5.68873 9 5.6563C9 5.62386 9 5.5914 9 5.55891C9 5.52641 9 5.4939 9 5.46135C9 5.4288 9 5.39623 9 5.36363C9 5.33103 9 5.2984 9 5.26575C9 5.23309 9 5.20041 9 5.1677C9 5.13499 9 5.10225 9 5.06948C9 5.03672 9 5.00392 9 4.9711C9 4.93828 9 4.90543 9 4.87256C9 4.83968 9 4.80678 9 4.77384C9 4.74091 9 4.70795 9 4.67496C9 4.64197 9 4.60896 9 4.57591C9 4.54287 9 4.5098 9 4.4767C9 4.4436 9 4.41047 9 4.37731C9 4.34416 9 4.31097 9 4.27776C9 4.24455 9 4.2113 9 4.17803C9 4.14476 9 4.11147 9 4.07814C9 4.04481 9 4.01146 9 3.97808C9 3.94469 9 3.91128 9 3.87784C9 3.8444 9 3.81093 9 3.77743C9 3.74394 9 3.71041 9 3.67686C9 3.6433 9 3.60972 9 3.57611C9 3.54249 9 3.50885 9 3.47518C9 3.44151 9 3.40781 9 3.37408C9 3.34036 9 3.3066 9 3.27281C9 3.23903 9 3.20521 9 3.17137C9 3.13753 9 3.10365 9 3.06975C9 3.03585 9 3.00192 9 2.96796C9 2.934 9 2.90001 9 2.86599C9 2.83197 9 2.79792 9 2.76384C9 2.72976 9 2.69566 9 2.66152C9 2.62738 9 2.59322 9 2.55902C9 2.52482 9 2.4906 9 2.45634C9 2.42209 9 2.3878 9 2.35349C9 2.31918 9 2.28483 9 2.25046C9 2.21608 9 2.18168 9 2.14725C9 2.11281 9 2.07835 9 2.04386C9 2.00936 9 1.97484 9 1.94029C9 1.90573 9 1.87115 9 1.83654C9 1.80192 9 1.76728 9 1.73261C9 1.69793 9 1.66323 9 1.62849C9 1.59376 9 1.559 9 1.5242C9 1.48941 9 1.45458 9 1.41973C9 1.38487 9 1.34999 9 1.31507C9 1.28015 9 1.24521 9 1.21023C9 1.17525 9 1.14025 9 1.10521C9 1.07017 9 1.0351 9 1H7C7 1.0351 7 1.07017 7 1.10521C7 1.14025 7 1.17525 7 1.21023C7 1.24521 7 1.28015 7 1.31507C7 1.34999 7 1.38487 7 1.41973C7 1.45458 7 1.48941 7 1.5242C7 1.559 7 1.59376 7 1.62849C7 1.66323 7 1.69793 7 1.73261C7 1.76728 7 1.80192 7 1.83654C7 1.87115 7 1.90573 7 1.94029C7 1.97484 7 2.00936 7 2.04386C7 2.07835 7 2.11281 7 2.14725C7 2.18168 7 2.21608 7 2.25046C7 2.28483 7 2.31918 7 2.35349C7 2.3878 7 2.42209 7 2.45634C7 2.4906 7 2.52482 7 2.55902C7 2.59322 7 2.62738 7 2.66152C7 2.69566 7 2.72976 7 2.76384C7 2.79792 7 2.83197 7 2.86599C7 2.90001 7 2.934 7 2.96796C7 3.00192 7 3.03585 7 3.06975C7 3.10365 7 3.13753 7 3.17137C7 3.20521 7 3.23903 7 3.27281C7 3.3066 7 3.34036 7 3.37408C7 3.40781 7 3.44151 7 3.47518C7 3.50885 7 3.54249 7 3.57611C7 3.60972 7 3.6433 7 3.67686C7 3.71041 7 3.74394 7 3.77743C7 3.81093 7 3.8444 7 3.87784C7 3.91128 7 3.94469 7 3.97808C7 4.01146 7 4.04481 7 4.07814C7 4.11147 7 4.14476 7 4.17803C7 4.2113 7 4.24455 7 4.27776C7 4.31097 7 4.34416 7 4.37731C7 4.41047 7 4.4436 7 4.4767C7 4.5098 7 4.54287 7 4.57591C7 4.60896 7 4.64197 7 4.67496C7 4.70795 7 4.74091 7 4.77384C7 4.80678 7 4.83968 7 4.87256C7 4.90543 7 4.93828 7 4.9711C7 5.00392 7 5.03672 7 5.06948C7 5.10225 7 5.13499 7 5.1677C7 5.20041 7 5.23309 7 5.26575C7 5.2984 7 5.33103 7 5.36363C7 5.39623 7 5.4288 7 5.46135C7 5.4939 7 5.52641 7 5.55891C7 5.5914 7 5.62386 7 5.6563C7 5.68873 7 5.72114 7 5.75353C7 5.78591 7 5.81826 7 5.85059C7 5.88292 7 5.91522 7 5.9475C7 5.97977 7 6.01202 7 6.04424C7 6.07646 7 6.10865 7 6.14082C7 6.17298 7 6.20512 7 6.23724C7 6.26935 7 6.30144 7 6.3335C7 6.36556 7 6.39759 7 6.4296C7 6.4616 7 6.49358 7 6.52554C7 6.55749 7 6.58942 7 6.62132C7 6.65322 7 6.68509 7 6.71694C7 6.74879 7 6.78061 7 6.8124C7 6.8442 7 6.87597 7 6.90771C7 6.93945 7 6.97117 7 7.00286C7 7.03455 7 7.06621 7 7.09785C7 7.12949 7 7.1611 7 7.19269C7 7.22427 7 7.25583 7 7.28737C7 7.3189 7 7.35041 7 7.38189C7 7.41337 7 7.44483 7 7.47626C7 7.50769 7 7.5391 7 7.57048C7 7.60186 7 7.63321 7 7.66454C7 7.69587 7 7.72717 7 7.75845C7 7.78972 7 7.82098 7 7.8522C7 7.88343 7 7.91463 7 7.9458C7 7.97698 7 8.00813 7 8.03925C7 8.07038 7 8.10148 7 8.13255C7 8.16363 7 8.19468 7 8.2257C7 8.25672 7 8.28772 7 8.3187C7 8.34967 7 8.38062 7 8.41154C7 8.44247 7 8.47336 7 8.50424C7 8.53511 7 8.56596 7 8.59678C7 8.62761 7 8.65841 7 8.68918C7 8.71996 7 8.75071 7 8.78143C7 8.81216 7 8.84286 7 8.87353C7 8.90421 7 8.93486 7 8.96549C7 8.99611 7 9.02671 7 9.05729C7 9.08787 7 9.11842 7 9.14895C7 9.17948 7 9.20998 7 9.24046C7 9.27094 7 9.3014 7 9.33183C7 9.36226 7 9.39267 7 9.42305C7 9.45344 7 9.4838 7 9.51413C7 9.54447 7 9.57478 7 9.60506C7 9.63535 7 9.66562 7 9.69585C7 9.72609 7 9.75631 7 9.7865C7 9.81669 7 9.84686 7 9.877C7 9.90715 7 9.93727 7 9.96736C7 9.99746 7 10.0275 7 10.0576C7 10.0876 7 10.1177 7 10.1477C7 10.1777 7 10.2076 7 10.2376C7 10.2675 7 10.2975 7 10.3274C7 10.3573 7 10.3872 7 10.417C7 10.4469 7 10.4767 7 10.5066C7 10.5364 7 10.5662 7 10.5959C7 10.6257 7 10.6554 7 10.6852C7 10.7149 7 10.7446 7 10.7743C7 10.8039 7 10.8336 7 10.8632C7 10.8928 7 10.9225 7 10.952C7 10.9816 7 11.0112 7 11.0407C7 11.0703 7 11.0998 7 11.1293C7 11.1588 7 11.1882 7 11.2177C7 11.2471 7 11.2766 7 11.306C7 11.3354 7 11.3647 7 11.3941C7 11.4235 7 11.4528 7 11.4821C7 11.5114 7 11.5407 7 11.57C7 11.5992 7 11.6285 7 11.6577C7 11.6869 7 11.7161 7 11.7453C7 11.7745 7 11.8037 7 11.8328C7 11.8619 7 11.891 7 11.9201C7 11.9492 7 11.9783 7 12.0073C7 12.0364 7 12.0654 7 12.0944C7 12.1234 7 12.1524 7 12.1814C7 12.2103 7 12.2393 7 12.2682C7 12.2971 7 12.326 7 12.3549C7 12.3837 7 12.4126 7 12.4414C7 12.4702 7 12.499 7 12.5278C7 12.5566 7 12.5854 7 12.6141C7 12.6429 7 12.6716 7 12.7003C7 12.729 7 12.7577 7 12.7863C7 12.815 7 12.8436 7 12.8722C7 12.9009 7 12.9295 7 12.958C7 12.9866 7 13.0152 7 13.0437C7 13.0722 7 13.1007 7 13.1292C7 13.1577 7 13.1862 7 13.2146C7 13.2431 7 13.2715 7 13.2999C7 13.3283 7 13.3567 7 13.3851C7 13.4134 7 13.4418 7 13.4701C7 13.4984 7 13.5267 7 13.555C7 13.5833 7 13.6115 7 13.6398C7 13.668 7 13.6962 7 13.7244C7 13.7526 7 13.7808 7 13.809C7 13.8371 7 13.8653 7 13.8934C7 13.9215 7 13.9496 7 13.9777C7 14.0058 7 14.0338 7 14.0619C7 14.0899 7 14.1179 7 14.1459C7 14.1739 7 14.2019 7 14.2299C7 14.2578 7 14.2858 7 14.3137C7 14.3416 7 14.3695 7 14.3974C7 14.4253 7 14.4531 7 14.4809C7 14.5088 7 14.5366 7 14.5644C7 14.5922 7 14.62 7 14.6477C7 14.6755 7 14.7032 7 14.731C7 14.7587 7 14.7864 7 14.8141C7 14.8418 7 14.8694 7 14.8971C7 14.9247 7 14.9523 7 14.9799C7 15.0075 7 15.0351 7 15.0627C7 15.0903 7 15.1178 7 15.1453C7 15.1729 7 15.2004 7 15.2279C7 15.2554 7 15.2828 7 15.3103C7 15.3377 7 15.3652 7 15.3926C7 15.42 7 15.4474 7 15.4748C7 15.5021 7 15.5295 7 15.5568C7 15.5842 7 15.6115 7 15.6388C7 15.6661 7 15.6934 7 15.7206C7 15.7479 7 15.7752 7 15.8024C7 15.8296 7 15.8568 7 15.884C7 15.9112 7 15.9384 7 15.9655C7 15.9927 7 16.0198 7 16.0469C7 16.074 7 16.1011 7 16.1282C7 16.1553 7 16.1824 7 16.2094C7 16.2365 7 16.2635 7 16.2905C7 16.3175 7 16.3445 7 16.3715C7 16.3984 7 16.4254 7 16.4523C7 16.4793 7 16.5062 7 16.5331C7 16.56 7 16.5869 7 16.6137C7 16.6406 7 16.6674 7 16.6943C7 16.7211 7 16.7479 7 16.7747C7 16.8015 7 16.8283 7 16.855C7 16.8818 7 16.9085 7 16.9353C7 16.962 7 16.9887 7 17.0154C7 17.0421 7 17.0687 7 17.0954C7 17.122 7 17.1487 7 17.1753C7 17.2019 7 17.2285 7 17.2551C7 17.2817 7 17.3083 7 17.3348C7 17.3614 7 17.3879 7 17.4144C7 17.4409 7 17.4674 7 17.4939C7 17.5204 7 17.5469 7 17.5733C7 17.5998 7 17.6262 7 17.6526C7 17.679 7 17.7054 7 17.7318C7 17.7582 7 17.7846 7 17.8109C7 17.8373 7 17.8636 7 17.8899C7 17.9162 7 17.9425 7 17.9688C7 17.9951 7 18.0214 7 18.0476C7 18.0739 7 18.1001 7 18.1263C7 18.1525 7 18.1787 7 18.2049C7 18.2311 7 18.2573 7 18.2834C7 18.3096 7 18.3357 7 18.3619C7 18.388 7 18.4141 7 18.4402C7 18.4663 7 18.4923 7 18.5184C7 18.5444 7 18.5705 7 18.5965C7 18.6225 7 18.6485 7 18.6745C7 18.7005 7 18.7265 7 18.7525C7 18.7784 7 18.8044 7 18.8303C7 18.8562 7 18.8822 7 18.9081C7 18.934 7 18.9598 7 18.9857C7 19.0116 7 19.0374 7 19.0633C7 19.0891 7 19.1149 7 19.1407C7 19.1665 7 19.1923 7 19.2181C7 19.2439 7 19.2697 7 19.2954C7 19.3211 7 19.3469 7 19.3726C7 19.3983 7 19.424 7 19.4497C7 19.4754 7 19.5011 7 19.5267C7 19.5524 7 19.578 7 19.6036C7 19.6293 7 19.6549 7 19.6805C7 19.7061 7 19.7316 7 19.7572C7 19.7828 7 19.8083 7 19.8339C7 19.8594 7 19.8849 7 19.9104C7 19.936 7 19.9614 7 19.9869C7 20.0124 7 20.0379 7 20.0633C7 20.0888 7 20.1142 7 20.1396C7 20.1651 7 20.1905 7 20.2159C7 20.2413 7 20.2666 7 20.292C7 20.3174 7 20.3427 7 20.3681C7 20.3934 7 20.4187 7 20.444C7 20.4693 7 20.4946 7 20.5199C7 20.5452 7 20.5705 7 20.5957C7 20.621 7 20.6462 7 20.6714C7 20.6967 7 20.7219 7 20.7471C7 20.7723 7 20.7974 7 20.8226C7 20.8478 7 20.8729 7 20.8981C7 20.9232 7 20.9484 7 20.9735C7 20.9986 7 21.0237 7 21.0488C7 21.0739 7 21.099 7 21.124C7 21.1491 7 21.1741 7 21.1992C7 21.2242 7 21.2492 7 21.2742C7 21.2992 7 21.3242 7 21.3492C7 21.3742 7 21.3992 7 21.4241C7 21.4491 7 21.474 7 21.499C7 21.5239 7 21.5488 7 21.5737C7 21.5986 7 21.6235 7 21.6484C7 21.6733 7 21.6982 7 21.723C7 21.7479 7 21.7727 7 21.7975C7 21.8224 7 21.8472 7 21.872C7 21.8968 7 21.9216 7 21.9464C7 21.9711 7 21.9959 7 22.0207C7 22.0454 7 22.0702 7 22.0949C7 22.1196 7 22.1443 7 22.169C7 22.1937 7 22.2184 7 22.2431C7 22.2678 7 22.2925 7 22.3171C7 22.3418 7 22.3664 7 22.3911C7 22.4157 7 22.4403 7 22.4649C7 22.4895 7 22.5141 7 22.5387C7 22.5633 7 22.5879 7 22.6124C7 22.637 7 22.6615 7 22.6861C7 22.7106 7 22.7351 7 22.7596C7 22.7842 7 22.8087 7 22.8332C7 22.8576 7 22.8821 7 22.9066C7 22.9311 7 22.9555 7 22.98C7 23.0044 7 23.0288 7 23.0533C7 23.0777 7 23.1021 7 23.1265C7 23.1509 7 23.1753 7 23.1997C7 23.224 7 23.2484 7 23.2728C7 23.2971 7 23.3215 7 23.3458C7 23.3701 7 23.3944 7 23.4187C7 23.4431 7 23.4674 7 23.4916C7 23.5159 7 23.5402 7 23.5645C7 23.5887 7 23.613 7 23.6372C7 23.6615 7 23.6857 7 23.71C7 23.7342 7 23.7584 7 23.7826C7 23.8068 7 23.831 7 23.8552C7 23.8794 7 23.9035 7 23.9277C7 23.9518 7 23.976 7 24.0001C7 24.0243 7 24.0484 7 24.0725C7 24.0966 7 24.1208 7 24.1448C7 24.1689 7 24.193 7 24.2171C7 24.2412 7 24.2653 7 24.2893C7 24.3134 7 24.3374 7 24.3615C7 24.3855 7 24.4095 7 24.4335C7 24.4576 7 24.4816 7 24.5056C7 24.5296 7 24.5536 7 24.5775C7 24.6015 7 24.6255 7 24.6495C7 24.6734 7 24.6974 7 24.7213C7 24.7452 7 24.7692 7 24.7931C7 24.817 7 24.8409 7 24.8648C7 24.8887 7 24.9126 7 24.9365C7 24.9604 7 24.9843 7 25.0081C7 25.032 7 25.0559 7 25.0797C7 25.1035 7 25.1274 7 25.1512C7 25.175 7 25.1989 7 25.2227C7 25.2465 7 25.2703 7 25.2941C7 25.3179 7 25.3416 7 25.3654C7 25.3892 7 25.413 7 25.4367C7 25.4605 7 25.4842 7 25.508C7 25.5317 7 25.5554 7 25.5791C7 25.6029 7 25.6266 7 25.6503C7 25.674 7 25.6977 7 25.7214C7 25.7451 7 25.7687 7 25.7924C7 25.8161 7 25.8397 7 25.8634C7 25.887 7 25.9107 7 25.9343C7 25.958 7 25.9816 7 26.0052C7 26.0288 7 26.0524 7 26.076C7 26.0997 7 26.1233 7 26.1468C7 26.1704 7 26.194 7 26.2176C7 26.2411 7 26.2647 7 26.2883C7 26.3118 7 26.3354 7 26.3589C7 26.3825 7 26.406 7 26.4295C7 26.453 7 26.4765 7 26.5001C7 26.5236 7 26.5471 7 26.5706C7 26.5941 7 26.6175 7 26.641C7 26.6645 7 26.688 7 26.7114C7 26.7349 7 26.7583 7 26.7818C7 26.8052 7 26.8287 7 26.8521C7 26.8756 7 26.899 7 26.9224C7 26.9458 7 26.9692 7 26.9926C7 27.016 7 27.0394 7 27.0628C7 27.0862 7 27.1096 7 27.133C7 27.1564 7 27.1797 7 27.2031C7 27.2265 7 27.2498 7 27.2732C7 27.2965 7 27.3198 7 27.3432C7 27.3665 7 27.3898 7 27.4132C7 27.4365 7 27.4598 7 27.4831C7 27.5064 7 27.5297 7 27.553C7 27.5763 7 27.5996 7 27.6229C7 27.6462 7 27.6694 7 27.6927C7 27.716 7 27.7393 7 27.7625C7 27.7858 7 27.809 7 27.8323C7 27.8555 7 27.8787 7 27.902C7 27.9252 7 27.9484 7 27.9717C7 27.9949 7 28.0181 7 28.0413C7 28.0645 7 28.0877 7 28.1109C7 28.1341 7 28.1573 7 28.1805C7 28.2036 7 28.2268 7 28.25C7 28.2732 7 28.2963 7 28.3195C7 28.3427 7 28.3658 7 28.389C7 28.4121 7 28.4353 7 28.4584C7 28.4815 7 28.5047 7 28.5278C7 28.5509 7 28.574 7 28.5972C7 28.6203 7 28.6434 7 28.6665C7 28.6896 7 28.7127 7 28.7358C7 28.7589 7 28.782 7 28.8051C7 28.8281 7 28.8512 7 28.8743C7 28.8974 7 28.9204 7 28.9435C7 28.9666 7 28.9896 7 29.0127C7 29.0357 7 29.0588 7 29.0818C7 29.1049 7 29.1279 7 29.151C7 29.174 7 29.197 7 29.22C7 29.2431 7 29.2661 7 29.2891C7 29.3121 7 29.3351 7 29.3581C7 29.3812 7 29.4042 7 29.4272C7 29.4502 7 29.4731 7 29.4961C7 29.5191 7 29.5421 7 29.5651C7 29.5881 7 29.611 7 29.634C7 29.657 7 29.68 7 29.7029C7 29.7259 7 29.7488 7 29.7718C7 29.7948 7 29.8177 7 29.8406C7 29.8636 7 29.8865 7 29.9095C7 29.9324 7 29.9553 7 29.9783C7 30.0012 7 30.0241 7 30.0471C7 30.07 7 30.0929 7 30.1158C7 30.1387 7 30.1616 7 30.1846C7 30.2075 7 30.2304 7 30.2533C7 30.2762 7 30.2991 7 30.322C7 30.3449 7 30.3678 7 30.3906C7 30.4135 7 30.4364 7 30.4593C7 30.4822 7 30.505 7 30.5279C7 30.5508 7 30.5737 7 30.5965C7 30.6194 7 30.6423 7 30.6651C7 30.688 7 30.7108 7 30.7337C7 30.7566 7 30.7794 7 30.8023C7 30.8251 7 30.848 7 30.8708C7 30.8936 7 30.9165 7 30.9393C7 30.9622 7 30.985 7 31.0078C7 31.0307 7 31.0535 7 31.0763C7 31.0991 7 31.122 7 31.1448C7 31.1676 7 31.1904 7 31.2132C7 31.2361 7 31.2589 7 31.2817C7 31.3045 7 31.3273 7 31.3501C7 31.3729 7 31.3957 7 31.4185C7 31.4413 7 31.4641 7 31.4869C7 31.5097 7 31.5325 7 31.5553C7 31.5781 7 31.6009 7 31.6237C7 31.6465 7 31.6693 7 31.692C7 31.7148 7 31.7376 7 31.7604C7 31.7832 7 31.806 7 31.8287C7 31.8515 7 31.8743 7 31.8971C7 31.9198 7 31.9426 7 31.9654C7 31.9881 7 32.0109 7 32.0337C7 32.0564 7 32.0792 7 32.102C7 32.1247 7 32.1475 7 32.1703C7 32.193 7 32.2158 7 32.2385C7 32.2613 7 32.2841 7 32.3068C7 32.3296 7 32.3523 7 32.3751C7 32.3978 7 32.4206 7 32.4433C7 32.4661 7 32.4888 7 32.5116C7 32.5343 7 32.5571 7 32.5798C7 32.6026 7 32.6253 7 32.6481C7 32.6708 7 32.6936 7 32.7163C7 32.739 7 32.7618 7 32.7845C7 32.8073 7 32.83 7 32.8528C7 32.8755 7 32.8982 7 32.921C7 32.9437 7 32.9664 7 32.9892C7 33.0119 7 33.0347 7 33.0574C7 33.0801 7 33.1029 7 33.1256C7 33.1483 7 33.1711 7 33.1938C7 33.2166 7 33.2393 7 33.262C7 33.2848 7 33.3075 7 33.3302C7 33.353 7 33.3757 7 33.3984C7 33.4212 7 33.4439 7 33.4666C7 33.4894 7 33.5121 7 33.5348C7 33.5576 7 33.5803 7 33.603C7 33.6258 7 33.6485 7 33.6712C7 33.694 7 33.7167 7 33.7395C7 33.7622 7 33.7849 7 33.8077C7 33.8304 7 33.8531 7 33.8759C7 33.8986 7 33.9213 7 33.9441C7 33.9668 7 33.9896 7 34.0123C7 34.035 7 34.0578 7 34.0805C7 34.1033 7 34.126 7 34.1487C7 34.1715 7 34.1942 7 34.217C7 34.2397 7 34.2625 7 34.2852C7 34.308 7 34.3307 7 34.3534C7 34.3762 7 34.3989 7 34.4217C7 34.4444 7 34.4672 7 34.4899C7 34.5127 7 34.5355 7 34.5582C7 34.581 7 34.6037 7 34.6265C7 34.6492 7 34.672 7 34.6947C7 34.7175 7 34.7403 7 34.763C7 34.7858 7 34.8086 7 34.8313C7 34.8541 7 34.8769 7 34.8996C7 34.9224 7 34.9452 7 34.9679C7 34.9907 7 35.0135 7 35.0363C7 35.059 7 35.0818 7 35.1046C7 35.1274 7 35.1501 7 35.1729C7 35.1957 7 35.2185 7 35.2413C7 35.2641 7 35.2869 7 35.3097C7 35.3324 7 35.3552 7 35.378C7 35.4008 7 35.4236 7 35.4464C7 35.4692 7 35.492 7 35.5148C7 35.5376 7 35.5604 7 35.5832C7 35.6061 7 35.6289 7 35.6517C7 35.6745 7 35.6973 7 35.7201C7 35.7429 7 35.7658 7 35.7886C7 35.8114 7 35.8342 7 35.8571C7 35.8799 7 35.9027 7 35.9256C7 35.9484 7 35.9712 7 35.9941C7 36.0169 7 36.0398 7 36.0626C7 36.0854 7 36.1083 7 36.1311C7 36.154 7 36.1768 7 36.1997C7 36.2226 7 36.2454 7 36.2683C7 36.2912 7 36.314 7 36.3369C7 36.3598 7 36.3826 7 36.4055C7 36.4284 7 36.4513 7 36.4741C7 36.497 7 36.5199 7 36.5428C7 36.5657 7 36.5886 7 36.6115C7 36.6344 7 36.6573 7 36.6802C7 36.7031 7 36.726 7 36.7489C7 36.7718 7 36.7947 7 36.8177C7 36.8406 7 36.8635 7 36.8864C7 36.9094 7 36.9323 7 36.9552C7 36.9782 7 37.0011 7 37.024C7 37.047 7 37.0699 7 37.0929C7 37.1158 7 37.1388 7 37.1617C7 37.1847 7 37.2077 7 37.2306C7 37.2536 7 37.2766 7 37.2995C7 37.3225 7 37.3455 7 37.3685C7 37.3915 7 37.4144 7 37.4374C7 37.4604 7 37.4834 7 37.5064C7 37.5294 7 37.5524 7 37.5754C7 37.5985 7 37.6215 7 37.6445C7 37.6675 7 37.6905 7 37.7136C7 37.7366 7 37.7596 7 37.7827C7 37.8057 7 37.8287 7 37.8518C7 37.8748 7 37.8979 7 37.921C7 37.944 7 37.9671 7 37.9901C7 38.0132 7 38.0363 7 38.0594C7 38.0824 7 38.1055 7 38.1286C7 38.1517 7 38.1748 7 38.1979C7 38.221 7 38.2441 7 38.2672C7 38.2903 7 38.3134 7 38.3366C7 38.3597 7 38.3828 7 38.4059C7 38.4291 7 38.4522 7 38.4753C7 38.4985 7 38.5216 7 38.5448C7 38.5679 7 38.5911 7 38.6143C7 38.6374 7 38.6606 7 38.6838C7 38.707 7 38.7301 7 38.7533C7 38.7765 7 38.7997 7 38.8229C7 38.8461 7 38.8693 7 38.8925C7 38.9157 7 38.939 7 38.9622C7 38.9854 7 39.0086 7 39.0319C7 39.0551 7 39.0784 7 39.1016C7 39.1249 7 39.1481 7 39.1714C7 39.1946 7 39.2179 7 39.2412C7 39.2645 7 39.2877 7 39.311C7 39.3343 7 39.3576 7 39.3809C7 39.4042 7 39.4275 7 39.4508C7 39.4741 7 39.4975 7 39.5208C7 39.5441 7 39.5675 7 39.5908C7 39.6141 7 39.6375 7 39.6608C7 39.6842 7 39.7076 7 39.7309C7 39.7543 7 39.7777 7 39.801C7 39.8244 7 39.8478 7 39.8712C7 39.8946 7 39.918 7 39.9414C7 39.9648 7 39.9883 7 40.0117C7 40.0351 7 40.0585 7 40.082C7 40.1054 7 40.1289 7 40.1523C7 40.1758 7 40.1992 7 40.2227C7 40.2462 7 40.2696 7 40.2931C7 40.3166 7 40.3401 7 40.3636C7 40.3871 7 40.4106 7 40.4341C7 40.4576 7 40.4812 7 40.5047C7 40.5282 7 40.5518 7 40.5753C7 40.5989 7 40.6224 7 40.646C7 40.6695 7 40.6931 7 40.7167C7 40.7403 7 40.7638 7 40.7874C7 40.811 7 40.8346 7 40.8582C7 40.8819 7 40.9055 7 40.9291C7 40.9527 7 40.9764 7 41H9Z" fill="#696969"/>
</svg>
