<svg width="19" height="40" viewBox="0 0 19 40" fill="none" xmlns="http://www.w3.org/2000/svg">
<path d="M18.8058 1.59222C19.1329 1.1472 19.0372 0.521294 18.5922 0.194221C18.1472 -0.132851 17.5213 -0.0372353 17.1942 0.407784L18.8058 1.59222ZM7.29289 39.7071C7.68342 40.0976 8.31658 40.0976 8.70711 39.7071L15.0711 33.3431C15.4616 32.9526 15.4616 32.3195 15.0711 31.9289C14.6805 31.5384 14.0474 31.5384 13.6569 31.9289L8 37.5858L2.34315 31.9289C1.95262 31.5384 1.31946 31.5384 0.928932 31.9289C0.538408 32.3195 0.538408 32.9526 0.928932 33.3431L7.29289 39.7071ZM17.1942 0.407784C8.91871 11.6676 7 21.8289 7 39H9C9 22.0262 10.8908 12.3614 18.8058 1.59222L17.1942 0.407784Z" fill="white"/>
</svg>
