<svg width="19" height="40" viewBox="0 0 19 40" fill="none" xmlns="http://www.w3.org/2000/svg">
<path d="M0.194221 1.59222C-0.132851 1.1472 -0.0372362 0.521294 0.407783 0.194221C0.852802 -0.132851 1.47871 -0.0372353 1.80578 0.407784L0.194221 1.59222ZM11.7071 39.7071C11.3166 40.0976 10.6834 40.0976 10.2929 39.7071L3.92893 33.3431C3.53841 32.9526 3.53841 32.3195 3.92893 31.9289C4.31946 31.5384 4.95262 31.5384 5.34315 31.9289L11 37.5858L16.6569 31.9289C17.0474 31.5384 17.6805 31.5384 18.0711 31.9289C18.4616 32.3195 18.4616 32.9526 18.0711 33.3431L11.7071 39.7071ZM1.80578 0.407784C10.0813 11.6676 12 21.8289 12 39H10C10 22.0262 8.10919 12.3614 0.194221 1.59222L1.80578 0.407784Z" fill="white"/>
</svg>
