<svg width="19" height="40" viewBox="0 0 19 40" fill="none" xmlns="http://www.w3.org/2000/svg">
<path d="M0.194221 38.4078C-0.132851 38.8528 -0.0372362 39.4787 0.407783 39.8058C0.852802 40.1329 1.47871 40.0372 1.80578 39.5922L0.194221 38.4078ZM11.7071 0.292893C11.3166 -0.0976311 10.6834 -0.0976311 10.2929 0.292893L3.92893 6.65685C3.53841 7.04738 3.53841 7.68054 3.92893 8.07107C4.31946 8.46159 4.95262 8.46159 5.34315 8.07107L11 2.41421L16.6569 8.07107C17.0474 8.46159 17.6805 8.46159 18.0711 8.07107C18.4616 7.68054 18.4616 7.04738 18.0711 6.65685L11.7071 0.292893ZM1.80578 39.5922C10.0813 28.3324 12 18.1711 12 1H10C10 17.9738 8.10919 27.6386 0.194221 38.4078L1.80578 39.5922Z" fill="white"/>
</svg>
