<svg width="60" height="60" viewBox="0 0 60 60" fill="none" xmlns="http://www.w3.org/2000/svg">
<circle cx="30" cy="30" r="30" fill="#696969"/>
<path fill-rule="evenodd" clip-rule="evenodd" d="M50 29.9925C50 24.7173 47.8999 19.6472 44.1409 15.8474C42.3082 13.998 40.1115 12.5271 37.6819 11.5224C35.2523 10.5178 32.6397 10 30 10C27.3603 10 24.7477 10.5178 22.3181 11.5224C19.8885 12.5271 17.6918 13.998 15.8591 15.8474C12.1001 19.6472 10 24.7173 10 29.9925C10 35.2678 12.1001 40.3379 15.8591 44.1377C17.6893 45.9913 19.8852 47.466 22.3151 48.4734C24.745 49.4808 27.3589 50 30 50C32.6411 50 35.255 49.4808 37.6849 48.4734C40.1148 47.466 42.3107 45.9913 44.1409 44.1377C47.8999 40.3379 50 35.2678 50 29.9925ZM37.4591 15.3159C35.6888 18.471 29.9734 22.5952 26.0182 24.3023C21.7303 26.1531 17.662 29.6465 17.1881 33.2806C16.6855 37.2196 18.751 41.3297 19.8719 43.2188C19.6223 42.249 19.5216 41.2468 19.5748 40.2448C19.5805 40.1372 19.5861 40.0162 19.5923 39.8828C19.7103 37.3263 20.0369 30.2499 25.5732 26.5019C31.3983 22.5585 36.0503 19.1888 37.0327 16.5224C37.2014 16.0646 37.3419 15.6646 37.4591 15.3159ZM22.8773 45.1727C23.104 45.2792 23.3335 45.3806 23.5655 45.477C25.6014 46.3229 27.7922 46.759 30.0058 46.759C32.2194 46.759 34.4101 46.3229 36.4461 45.477C38.482 44.6311 40.3211 43.3929 41.8525 41.8369C45.0042 38.6584 46.7656 34.4131 46.7656 29.9954C46.7656 25.5776 45.0042 21.3324 41.8525 18.1538C40.91 17.1724 39.8431 16.317 38.68 15.6067C38.4637 16.3509 38.3352 17.1186 38.2983 17.895C38.2475 19.2295 38.3639 20.5651 38.645 21.8722C38.7259 21.9228 39.8528 22.1647 40.136 21.6696C40.392 21.2221 40.3646 21.0321 40.357 20.9997C40.3765 21.0729 40.5837 21.9139 39.8875 22.2097C39.4992 22.3894 39.075 22.4835 38.645 22.4853C38.6705 22.9019 38.8015 23.3058 39.0265 23.661C39.4007 24.1707 39.7183 24.7176 39.9742 25.2924C40.2842 25.9898 40.6554 26.6598 41.0837 27.2951C41.1894 27.4648 41.2507 27.657 41.2625 27.8551C41.2742 28.0532 41.2359 28.251 41.151 28.4314C41.066 28.6117 40.937 28.7691 40.7752 28.8897C40.6134 29.0103 40.4237 29.0906 40.2227 29.1234C39.246 29.3765 39.1189 29.6409 39.1189 29.6409C39.1189 29.6409 38.9744 29.8153 39.3905 30.0684C39.8066 30.3216 40.2111 30.7885 39.9222 31.2498C39.5799 31.6558 39.1672 32.0004 38.7028 32.268C38.7028 32.268 38.6161 32.3355 39.0553 32.8643C39.4945 33.3931 39.6332 33.6068 39.4368 33.7925C39.3329 33.8906 39.1564 33.9589 38.9798 34.0272C38.8222 34.0881 38.6646 34.149 38.5584 34.2313C38.3593 34.3483 38.1947 34.5133 38.0803 34.7104C37.9659 34.9075 37.9056 35.13 37.9053 35.3563C38.0416 36.1326 38.1323 36.9158 38.177 37.7022C38.1914 38.1476 38.0431 38.5837 37.7585 38.9328C37.4739 39.2819 37.0714 39.5216 36.6224 39.6092C35.6961 39.8917 34.6933 39.813 33.8255 39.3898C32.9702 39.0635 30.179 38.0509 28.7458 38.0172C27.3127 37.9834 25.5732 38.0566 24.7006 39.2885C23.828 40.5205 23.0999 43.6314 22.967 44.5539C22.9339 44.7598 22.904 44.966 22.8773 45.1727ZM40.357 20.9997C40.3562 20.9963 40.3556 20.9946 40.3556 20.9946C40.3556 20.9946 40.3561 20.9963 40.357 20.9997Z" fill="white"/>
</svg>
