<svg width="320" height="320" viewBox="0 0 320 320" fill="none" xmlns="http://www.w3.org/2000/svg">
<rect width="6" height="80" fill="white"/>
<rect x="80" width="6" height="80" transform="rotate(90 80 0)" fill="white"/>
<rect width="6" height="80" transform="matrix(-1 0 0 1 320 0)" fill="white"/>
<rect width="6" height="80" transform="matrix(4.37114e-08 1 1 -4.37114e-08 240 0)" fill="white"/>
<rect x="320" y="320" width="6" height="80" transform="rotate(180 320 320)" fill="white"/>
<rect x="240" y="320" width="6" height="80" transform="rotate(-90 240 320)" fill="white"/>
<rect width="6" height="80" transform="matrix(1 0 0 -1 0 320)" fill="white"/>
<rect width="6" height="80" transform="matrix(-4.37114e-08 -1 -1 4.37114e-08 80 320)" fill="white"/>
</svg>
