<svg width="250" height="250" viewBox="0 0 250 250" fill="none" xmlns="http://www.w3.org/2000/svg">
<g clip-path="url(#clip0_203_481)">
<path d="M221.959 219.6H17.5819C17.4586 219.6 17.3404 219.551 17.2533 219.464C17.1661 219.377 17.1172 219.259 17.1172 219.136C17.1172 219.012 17.1661 218.894 17.2533 218.807C17.3404 218.72 17.4586 218.671 17.5819 218.671H221.959C222.082 218.671 222.201 218.72 222.288 218.807C222.375 218.894 222.424 219.012 222.424 219.136C222.424 219.259 222.375 219.377 222.288 219.464C222.201 219.551 222.082 219.6 221.959 219.6Z" fill="black"/>
<path d="M114.115 92.565C100.174 87.5558 82.3955 86.0595 63.929 90.2881C52.8602 92.8346 43.1762 109.489 43.1762 109.489L57.507 70.9387L43.2041 63.894C29.1148 87.0632 21.1873 107.323 17.9624 118.615C16.5591 123.522 13.139 137.119 24.468 140.678C33.9847 143.662 44.4401 137.955 49.1148 134.879C48.5479 138.309 48.6409 143.513 53.4922 145.976L37.7765 219.136H127.628L134.003 110.297C134.003 110.297 128.074 97.5836 114.115 92.565Z" fill="#3853E0"/>
<path d="M127.628 219.6H37.777C37.708 219.601 37.6396 219.586 37.5769 219.557C37.5142 219.529 37.4587 219.486 37.4146 219.433C37.3725 219.378 37.3426 219.315 37.3265 219.248C37.3105 219.18 37.3089 219.111 37.3216 219.043L52.9164 146.217C48.4833 143.764 48.1302 139.015 48.474 135.818C43.0001 139.266 33.3068 143.959 24.3105 141.115C18.7343 139.368 13.0744 134.033 17.5261 118.485C19.2175 112.583 26.0484 91.1801 42.8328 63.6523C42.8944 63.554 42.9906 63.4824 43.1024 63.4514C43.2141 63.4205 43.3335 63.4324 43.4369 63.485L57.7398 70.5203C57.8428 70.5707 57.9236 70.6575 57.9665 70.7639C58.0093 70.8702 58.0114 70.9887 57.9722 71.0965L45.1097 105.678C48.6506 100.585 55.8253 91.682 63.8551 89.879C81.1413 85.9013 99.0502 86.7099 114.273 92.1746C128.26 97.1839 134.357 110.018 134.422 110.149C134.44 110.222 134.44 110.298 134.422 110.372L128.047 219.21C128.032 219.313 127.982 219.408 127.906 219.479C127.83 219.55 127.732 219.593 127.628 219.6ZM38.3625 218.671H127.192L133.539 110.39C132.935 109.182 126.922 97.6485 113.967 93.0017C98.9108 87.6021 81.1878 86.7935 64.0688 90.7433C53.3253 93.2155 43.7064 109.554 43.6227 109.721C43.5646 109.823 43.47 109.899 43.3579 109.935C43.2458 109.97 43.1245 109.961 43.0185 109.911C42.9125 109.86 42.8296 109.771 42.7865 109.662C42.7434 109.552 42.7433 109.431 42.7863 109.321L56.9406 71.2173L43.3811 64.498C26.8105 91.7563 20.0725 112.899 18.3904 118.745C14.9796 130.641 17.0521 137.872 24.5614 140.232C34.0502 143.215 44.6822 137.212 48.8179 134.489C48.8938 134.439 48.9826 134.412 49.0735 134.412C49.1643 134.412 49.2532 134.439 49.3291 134.489C49.4037 134.539 49.4625 134.609 49.4987 134.691C49.5349 134.774 49.547 134.865 49.5335 134.953C48.9387 138.531 49.1711 143.318 53.6506 145.557C53.7432 145.603 53.8181 145.678 53.8635 145.77C53.909 145.863 53.9223 145.968 53.9015 146.069L38.3625 218.671Z" fill="black"/>
<path d="M70.2207 89.0708L83.6594 119.127L107.498 90.5392C95.3055 87.4894 82.615 86.9895 70.2207 89.0708Z" fill="#DF49B5"/>
<path d="M83.6602 119.591H83.5952C83.5179 119.581 83.4446 119.551 83.3827 119.504C83.3207 119.456 83.2722 119.394 83.242 119.322L69.8034 89.2194C69.7715 89.156 69.7549 89.086 69.7549 89.015C69.7549 88.944 69.7715 88.8739 69.8034 88.8105C69.8373 88.7476 69.885 88.6932 69.943 88.6514C70.0009 88.6095 70.0676 88.5813 70.1379 88.5689C82.5952 86.488 95.3476 86.9942 107.601 90.0559C107.677 90.0747 107.747 90.1128 107.804 90.1665C107.861 90.2203 107.903 90.2878 107.926 90.3626C107.95 90.4366 107.954 90.5153 107.94 90.5916C107.925 90.6679 107.892 90.7393 107.842 90.7994L84.0227 119.424C83.9773 119.476 83.9216 119.517 83.8592 119.546C83.7967 119.575 83.729 119.59 83.6602 119.591ZM70.9372 89.4332L83.8275 118.244L106.709 90.7994C94.9932 87.9777 82.8337 87.5133 70.9372 89.4332Z" fill="black"/>
<path d="M112.944 107.806C128.52 99.9161 158.548 98.8195 176.475 106.793C187.052 111.505 194.896 119.043 198.994 127.184L189.58 87.063H213.929L230.323 140.873C234.161 151.496 237.554 171.868 219.022 171.487C201.28 171.115 190.035 168.299 190.035 168.299L197.024 219.135H102.628L108.706 192.425C108.706 192.425 92.1353 196.524 83.8825 185.753C75.4067 174.721 75.9179 126.543 112.944 107.806Z" fill="#43BCCE"/>
<path d="M134.636 127.026C134.638 126.398 134.453 125.784 134.106 125.262C133.758 124.739 133.264 124.332 132.684 124.091C132.105 123.85 131.467 123.786 130.851 123.908C130.235 124.03 129.67 124.332 129.226 124.776C128.782 125.22 128.48 125.785 128.358 126.401C128.236 127.016 128.3 127.654 128.541 128.234C128.782 128.813 129.19 129.308 129.712 129.656C130.235 130.003 130.849 130.188 131.476 130.186C132.314 130.186 133.118 129.853 133.711 129.26C134.303 128.668 134.636 127.864 134.636 127.026Z" fill="white"/>
<path d="M147.907 142.518C149.652 142.518 151.067 141.104 151.067 139.359C151.067 137.613 149.652 136.199 147.907 136.199C146.162 136.199 144.747 137.613 144.747 139.359C144.747 141.104 146.162 142.518 147.907 142.518Z" fill="white"/>
<path d="M161.95 122.676C161.95 122.051 161.764 121.441 161.417 120.921C161.07 120.401 160.576 119.996 159.999 119.757C159.422 119.518 158.786 119.455 158.173 119.577C157.56 119.699 156.997 120 156.555 120.442C156.113 120.884 155.813 121.447 155.691 122.06C155.569 122.673 155.631 123.308 155.87 123.886C156.11 124.463 156.515 124.957 157.034 125.304C157.554 125.651 158.165 125.836 158.79 125.836C159.628 125.836 160.431 125.503 161.024 124.911C161.617 124.318 161.95 123.514 161.95 122.676Z" fill="white"/>
<path d="M175.788 137.165C177.533 137.165 178.948 135.751 178.948 134.006C178.948 132.26 177.533 130.846 175.788 130.846C174.043 130.846 172.628 132.26 172.628 134.006C172.628 135.751 174.043 137.165 175.788 137.165Z" fill="white"/>
<path d="M183.39 117.574C183.39 116.947 183.204 116.334 182.855 115.813C182.507 115.291 182.011 114.885 181.432 114.646C180.852 114.406 180.214 114.344 179.599 114.467C178.984 114.59 178.42 114.893 177.977 115.337C177.534 115.781 177.233 116.346 177.112 116.962C176.99 117.577 177.054 118.215 177.296 118.794C177.537 119.373 177.945 119.867 178.467 120.214C178.989 120.561 179.603 120.745 180.23 120.744C181.069 120.741 181.873 120.406 182.465 119.812C183.057 119.218 183.39 118.413 183.39 117.574Z" fill="white"/>
<path d="M168.65 107.807C169.423 107.807 170.17 107.523 170.747 107.009C171.325 106.495 171.693 105.787 171.782 105.019C169.868 104.387 167.86 103.838 165.778 103.374C165.592 103.782 165.494 104.226 165.49 104.675C165.5 105.507 165.837 106.302 166.428 106.888C167.019 107.474 167.818 107.804 168.65 107.807Z" fill="white"/>
<path d="M119.078 114.665C119.703 114.665 120.314 114.48 120.833 114.133C121.353 113.786 121.758 113.292 121.997 112.715C122.236 112.137 122.299 111.502 122.177 110.889C122.055 110.276 121.754 109.713 121.312 109.271C120.87 108.829 120.307 108.528 119.694 108.406C119.081 108.284 118.446 108.347 117.869 108.586C117.291 108.825 116.798 109.23 116.451 109.75C116.103 110.27 115.918 110.881 115.918 111.506C115.918 112.344 116.251 113.147 116.843 113.74C117.436 114.332 118.24 114.665 119.078 114.665Z" fill="white"/>
<path d="M114.06 129.721C114.058 129.095 113.87 128.482 113.521 127.962C113.171 127.442 112.675 127.037 112.095 126.799C111.515 126.561 110.878 126.5 110.263 126.624C109.649 126.748 109.085 127.052 108.643 127.496C108.201 127.941 107.901 128.506 107.781 129.122C107.66 129.737 107.725 130.374 107.966 130.952C108.208 131.53 108.616 132.024 109.138 132.371C109.66 132.718 110.273 132.902 110.9 132.9C111.317 132.9 111.729 132.817 112.114 132.658C112.498 132.498 112.847 132.263 113.141 131.968C113.435 131.672 113.667 131.322 113.825 130.936C113.982 130.551 114.062 130.138 114.06 129.721Z" fill="white"/>
<path d="M97.5265 119.489C97.5265 119.377 97.5265 119.266 97.5265 119.164C96.4298 120.288 95.3889 121.459 94.4131 122.649C95.2431 122.636 96.0349 122.298 96.6175 121.707C97.2 121.116 97.5266 120.319 97.5265 119.489Z" fill="white"/>
<path d="M92.1823 144.536C92.8073 144.536 93.4182 144.35 93.9378 144.003C94.4575 143.656 94.8625 143.162 95.1016 142.585C95.3408 142.008 95.4034 141.372 95.2815 140.759C95.1595 140.146 94.8586 139.583 94.4167 139.141C93.9747 138.699 93.4117 138.398 92.7988 138.277C92.1858 138.155 91.5505 138.217 90.9731 138.456C90.3957 138.696 89.9022 139.101 89.555 139.62C89.2078 140.14 89.0225 140.751 89.0225 141.376C89.0249 142.213 89.3586 143.015 89.9507 143.607C90.5427 144.199 91.345 144.533 92.1823 144.536Z" fill="white"/>
<path d="M119.079 149.098C119.079 148.471 118.892 147.858 118.544 147.337C118.195 146.815 117.7 146.409 117.12 146.17C116.54 145.93 115.903 145.868 115.288 145.991C114.673 146.114 114.108 146.417 113.665 146.861C113.222 147.305 112.921 147.87 112.8 148.486C112.679 149.101 112.743 149.739 112.984 150.318C113.225 150.896 113.633 151.391 114.155 151.738C114.678 152.085 115.291 152.269 115.919 152.267C116.334 152.267 116.746 152.185 117.13 152.026C117.514 151.867 117.863 151.633 118.156 151.339C118.45 151.044 118.682 150.695 118.841 150.31C118.999 149.926 119.08 149.514 119.079 149.098Z" fill="white"/>
<path d="M135.993 154.721C135.365 154.719 134.751 154.904 134.229 155.251C133.706 155.599 133.298 156.094 133.057 156.673C132.816 157.253 132.753 157.891 132.875 158.506C132.997 159.122 133.299 159.687 133.743 160.131C134.186 160.575 134.752 160.877 135.368 160.999C135.983 161.121 136.621 161.057 137.201 160.816C137.78 160.575 138.275 160.168 138.623 159.645C138.97 159.123 139.155 158.509 139.153 157.881C139.153 157.043 138.82 156.239 138.227 155.647C137.635 155.054 136.831 154.721 135.993 154.721Z" fill="white"/>
<path d="M163.641 164.21C163.641 163.585 163.456 162.974 163.108 162.455C162.761 161.935 162.268 161.53 161.69 161.291C161.113 161.052 160.478 160.989 159.865 161.111C159.252 161.233 158.689 161.534 158.247 161.976C157.805 162.418 157.504 162.981 157.382 163.594C157.26 164.207 157.323 164.842 157.562 165.419C157.801 165.997 158.206 166.49 158.726 166.837C159.245 167.185 159.856 167.37 160.481 167.37C161.319 167.37 162.123 167.037 162.715 166.444C163.308 165.852 163.641 165.048 163.641 164.21Z" fill="white"/>
<path d="M149.655 179.182C149.657 178.555 149.472 177.941 149.124 177.418C148.777 176.896 148.282 176.488 147.703 176.247C147.123 176.006 146.485 175.942 145.87 176.064C145.254 176.186 144.688 176.488 144.245 176.932C143.801 177.376 143.499 177.941 143.377 178.557C143.255 179.173 143.318 179.811 143.559 180.39C143.8 180.97 144.208 181.464 144.731 181.812C145.253 182.159 145.867 182.344 146.495 182.342C147.333 182.342 148.137 182.009 148.729 181.417C149.322 180.824 149.655 180.02 149.655 179.182Z" fill="white"/>
<path d="M119.078 178.597C120.823 178.597 122.238 177.182 122.238 175.437C122.238 173.692 120.823 172.277 119.078 172.277C117.333 172.277 115.918 173.692 115.918 175.437C115.918 177.182 117.333 178.597 119.078 178.597Z" fill="white"/>
<path d="M96.1507 164.991C96.1489 164.366 95.962 163.756 95.6137 163.238C95.2654 162.72 94.7712 162.316 94.1937 162.078C93.6161 161.84 92.9811 161.779 92.3688 161.902C91.7564 162.025 91.1943 162.327 90.7533 162.769C90.3123 163.211 90.0123 163.774 89.8911 164.387C89.7699 165 89.833 165.635 90.0725 166.212C90.3119 166.788 90.7169 167.281 91.2363 167.628C91.7558 167.975 92.3663 168.16 92.9909 168.16C93.4066 168.16 93.8183 168.078 94.2023 167.919C94.5862 167.759 94.935 167.526 95.2285 167.231C95.5221 166.937 95.7546 166.587 95.9129 166.203C96.0711 165.819 96.152 165.407 96.1507 164.991Z" fill="white"/>
<path d="M98.177 183.606C97.5502 183.606 96.9374 183.792 96.4163 184.14C95.8951 184.488 95.4889 184.983 95.249 185.562C95.0092 186.141 94.9464 186.779 95.0687 187.393C95.191 188.008 95.4928 188.573 95.936 189.016C96.3792 189.459 96.9439 189.761 97.5587 189.883C98.1734 190.006 98.8106 189.943 99.3897 189.703C99.9688 189.463 100.464 189.057 100.812 188.536C101.16 188.015 101.346 187.402 101.346 186.775C101.346 185.935 101.012 185.129 100.418 184.534C99.8236 183.94 99.0175 183.606 98.177 183.606Z" fill="white"/>
<path d="M123.911 194.842C123.286 194.842 122.675 195.027 122.155 195.374C121.636 195.722 121.231 196.215 120.992 196.792C120.752 197.37 120.69 198.005 120.812 198.618C120.934 199.231 121.235 199.794 121.676 200.236C122.118 200.678 122.681 200.979 123.294 201.101C123.907 201.223 124.543 201.16 125.12 200.921C125.697 200.682 126.191 200.277 126.538 199.757C126.885 199.238 127.071 198.627 127.071 198.002C127.071 197.164 126.738 196.36 126.145 195.767C125.553 195.175 124.749 194.842 123.911 194.842Z" fill="white"/>
<path d="M145.611 206.552C145.181 207.005 144.894 207.575 144.788 208.191C144.682 208.807 144.761 209.44 145.014 210.011C145.268 210.582 145.685 211.065 146.213 211.399C146.741 211.733 147.356 211.903 147.981 211.887C148.605 211.872 149.211 211.671 149.722 211.311C150.233 210.951 150.625 210.448 150.85 209.865C151.075 209.282 151.122 208.646 150.985 208.036C150.848 207.427 150.534 206.871 150.081 206.44C149.473 205.864 148.661 205.552 147.823 205.573C146.986 205.594 146.19 205.946 145.611 206.552Z" fill="white"/>
<path d="M167.507 186.534C166.995 186.176 166.388 185.979 165.763 185.966C165.139 185.954 164.525 186.127 163.998 186.463C163.472 186.8 163.057 187.284 162.806 187.856C162.555 188.428 162.48 189.062 162.589 189.677C162.698 190.292 162.986 190.861 163.419 191.312C163.851 191.763 164.407 192.076 165.017 192.211C165.627 192.346 166.263 192.297 166.845 192.071C167.427 191.844 167.929 191.45 168.288 190.939C168.526 190.598 168.695 190.214 168.785 189.809C168.875 189.403 168.884 188.983 168.811 188.574C168.739 188.165 168.586 187.774 168.362 187.424C168.139 187.074 167.848 186.771 167.507 186.534Z" fill="white"/>
<path d="M185.165 206.134C184.653 205.776 184.046 205.579 183.422 205.567C182.797 205.554 182.183 205.727 181.656 206.063C181.13 206.4 180.715 206.884 180.464 207.456C180.213 208.028 180.138 208.662 180.247 209.277C180.356 209.892 180.645 210.461 181.077 210.912C181.509 211.363 182.065 211.676 182.675 211.811C183.285 211.946 183.921 211.897 184.503 211.671C185.086 211.444 185.588 211.051 185.946 210.539C186.425 209.851 186.612 209.001 186.466 208.175C186.319 207.349 185.852 206.615 185.165 206.134Z" fill="white"/>
<path d="M187.107 173.123C186.694 173.714 186.495 174.429 186.543 175.149C186.592 175.868 186.886 176.55 187.375 177.08C187.865 177.61 188.521 177.956 189.235 178.061C189.949 178.166 190.677 178.024 191.299 177.658L190.5 171.887C189.876 171.722 189.216 171.752 188.61 171.973C188.003 172.194 187.479 172.595 187.107 173.123Z" fill="white"/>
<path d="M205.696 152.128C205.183 151.771 204.576 151.574 203.952 151.561C203.327 151.549 202.713 151.721 202.187 152.058C201.66 152.394 201.246 152.879 200.995 153.451C200.744 154.023 200.668 154.657 200.777 155.272C200.886 155.887 201.175 156.456 201.607 156.907C202.039 157.358 202.595 157.671 203.205 157.806C203.815 157.941 204.451 157.892 205.034 157.665C205.616 157.439 206.118 157.045 206.476 156.534C206.715 156.193 206.884 155.809 206.974 155.403C207.063 154.998 207.072 154.578 207 154.169C206.927 153.76 206.775 153.369 206.551 153.019C206.327 152.669 206.036 152.366 205.696 152.128Z" fill="white"/>
<path d="M226.393 165.567C226.054 165.309 225.666 165.121 225.253 165.016C224.84 164.911 224.41 164.891 223.989 164.957C223.568 165.022 223.164 165.172 222.803 165.398C222.441 165.624 222.129 165.92 221.885 166.27C221.641 166.619 221.47 167.014 221.382 167.431C221.295 167.849 221.293 168.279 221.377 168.697C221.46 169.115 221.627 169.512 221.868 169.864C222.109 170.215 222.418 170.515 222.777 170.744C222.992 170.895 223.227 171.017 223.474 171.106C224.832 170.84 226.137 170.357 227.341 169.675C227.718 168.994 227.83 168.198 227.655 167.439C227.48 166.681 227.03 166.014 226.393 165.567Z" fill="white"/>
<path d="M222.851 136.766C222.338 136.409 221.732 136.211 221.107 136.199C220.483 136.186 219.868 136.359 219.342 136.696C218.816 137.032 218.401 137.517 218.15 138.089C217.899 138.661 217.823 139.294 217.932 139.909C218.041 140.525 218.33 141.093 218.762 141.544C219.195 141.995 219.751 142.308 220.361 142.443C220.97 142.578 221.607 142.529 222.189 142.303C222.771 142.077 223.273 141.683 223.632 141.171C223.87 140.831 224.039 140.447 224.129 140.041C224.219 139.635 224.228 139.216 224.155 138.807C224.083 138.398 223.93 138.007 223.706 137.656C223.482 137.306 223.192 137.004 222.851 136.766Z" fill="white"/>
<path d="M205.696 118.857C205.183 118.5 204.576 118.302 203.952 118.29C203.327 118.277 202.713 118.45 202.187 118.786C201.66 119.123 201.246 119.608 200.995 120.18C200.744 120.752 200.668 121.385 200.777 122C200.886 122.615 201.175 123.184 201.607 123.635C202.039 124.086 202.595 124.399 203.205 124.534C203.815 124.669 204.451 124.62 205.034 124.394C205.616 124.168 206.118 123.774 206.476 123.262C206.716 122.922 206.886 122.538 206.976 122.132C207.067 121.726 207.076 121.306 207.004 120.897C206.931 120.487 206.778 120.096 206.554 119.746C206.329 119.396 206.037 119.094 205.696 118.857Z" fill="white"/>
<path d="M213.549 102.036C213.29 102.374 213.103 102.762 212.998 103.175C212.893 103.588 212.872 104.018 212.938 104.439C213.004 104.861 213.154 105.264 213.379 105.626C213.605 105.987 213.902 106.299 214.251 106.544C214.6 106.788 214.996 106.958 215.413 107.046C215.83 107.133 216.261 107.135 216.679 107.052C217.097 106.968 217.493 106.801 217.845 106.56C218.197 106.32 218.496 106.01 218.725 105.651C218.976 105.301 219.151 104.902 219.236 104.48L218.363 101.608C218.236 101.476 218.096 101.357 217.945 101.255C217.605 101.017 217.222 100.848 216.817 100.758C216.412 100.668 215.993 100.66 215.584 100.732C215.176 100.805 214.786 100.957 214.437 101.181C214.087 101.404 213.785 101.695 213.549 102.036Z" fill="white"/>
<path d="M193.297 99.6469C193.81 100.004 194.416 100.202 195.041 100.214C195.666 100.227 196.28 100.054 196.806 99.7174C197.332 99.381 197.747 98.8962 197.998 98.3242C198.249 97.7521 198.325 97.1186 198.216 96.5035C198.107 95.8884 197.818 95.3195 197.386 94.8685C196.954 94.4175 196.397 94.1048 195.788 93.9697C195.178 93.8347 194.541 93.8835 193.959 94.1099C193.377 94.3363 192.875 94.7301 192.517 95.2417C192.117 95.8212 191.923 96.5185 191.968 97.2213L192.229 98.3179C192.455 98.851 192.825 99.3109 193.297 99.6469Z" fill="white"/>
<path d="M111.402 216.403C110.714 215.924 109.864 215.737 109.038 215.884C108.212 216.03 107.478 216.498 106.997 217.184C106.602 217.756 106.41 218.442 106.448 219.136H112.759C112.782 218.603 112.67 218.072 112.433 217.594C112.196 217.116 111.841 216.707 111.402 216.403Z" fill="white"/>
<path d="M146.495 110.595C146.496 109.968 146.312 109.354 145.965 108.832C145.618 108.309 145.124 107.902 144.545 107.66C143.966 107.419 143.328 107.355 142.713 107.476C142.097 107.598 141.532 107.899 141.088 108.341C140.644 108.784 140.341 109.349 140.218 109.964C140.095 110.579 140.157 111.217 140.397 111.796C140.636 112.376 141.042 112.871 141.564 113.22C142.085 113.569 142.698 113.755 143.325 113.755C144.164 113.755 144.969 113.422 145.563 112.83C146.157 112.238 146.492 111.434 146.495 110.595Z" fill="white"/>
<path d="M197.014 219.591H102.628C102.56 219.593 102.492 219.579 102.431 219.55C102.37 219.521 102.316 219.478 102.275 219.424C102.233 219.369 102.203 219.306 102.187 219.239C102.171 219.171 102.169 219.102 102.182 219.034L108.111 193.011C104.812 193.643 90.8806 195.623 83.52 186.013C79.44 180.679 77.098 166.236 80.8062 149.982C83.3527 138.829 90.8806 118.448 112.73 107.379L112.944 107.779L112.73 107.379C128.947 99.1637 159.421 98.6805 176.661 106.357C185.667 110.363 193.213 116.738 197.814 124.136L189.143 87.1563C189.126 87.0892 189.125 87.0191 189.139 86.9515C189.154 86.8839 189.184 86.8204 189.226 86.766C189.269 86.7136 189.323 86.6715 189.384 86.6425C189.445 86.6136 189.512 86.5986 189.579 86.5987H213.929C214.027 86.5971 214.124 86.6281 214.203 86.6869C214.282 86.7458 214.339 86.8291 214.366 86.924L230.788 140.744C233.864 149.266 235.565 160.641 231.039 166.943C228.576 170.372 224.533 172.035 219.04 171.943C209.489 171.822 199.97 170.799 190.611 168.885L197.498 219.071C197.507 219.136 197.503 219.202 197.483 219.265C197.464 219.328 197.431 219.385 197.386 219.433C197.34 219.486 197.283 219.528 197.219 219.556C197.154 219.583 197.084 219.595 197.014 219.591ZM103.204 218.662H196.494L189.589 168.337C189.579 168.263 189.588 168.189 189.613 168.12C189.639 168.051 189.681 167.989 189.736 167.939C189.791 167.89 189.857 167.854 189.928 167.836C190 167.818 190.075 167.818 190.146 167.835C190.258 167.835 201.55 170.623 219.031 171.013C224.236 171.115 228 169.563 230.276 166.366C234.589 160.353 232.907 149.312 229.895 140.985L213.594 87.5188H190.156L199.449 127.063C199.47 127.17 199.452 127.28 199.398 127.375C199.345 127.469 199.259 127.541 199.157 127.578C199.056 127.615 198.944 127.614 198.842 127.576C198.741 127.538 198.656 127.465 198.604 127.37C194.375 119.006 186.252 111.571 176.299 107.193C159.254 99.6098 129.152 100.093 113.102 108.197C91.5776 119.099 84.1519 139.182 81.6426 150.186C77.9995 166.18 80.2393 180.298 84.1984 185.502C92.1724 195.911 108.362 192.054 108.548 192.008C108.624 191.988 108.704 191.989 108.78 192.008C108.857 192.028 108.927 192.066 108.985 192.119C109.04 192.174 109.08 192.242 109.101 192.317C109.122 192.392 109.124 192.471 109.105 192.547L103.204 218.662Z" fill="black"/>
<path d="M111.829 40.446C109.041 34.7583 102.331 30.8643 95.6113 30.8643H78.8827C68.8734 30.8643 64.8027 36.9144 64.8027 43.9962C64.8027 45.7713 64.8585 48.9126 64.8585 51.3568C68.576 51.3568 79.905 51.4033 80.4068 51.3568C83.5202 54.8698 88.0555 64.8605 93.1113 64.8605H93.2414L99.4124 75.223H116.215C116.531 62.8903 116.857 51.1152 111.829 40.446Z" fill="black"/>
<path d="M116.188 75.6782H99.3852C99.305 75.6787 99.226 75.6584 99.156 75.6193C99.086 75.5802 99.0272 75.5237 98.9855 75.4552L92.9447 65.3065C89.125 65.0555 85.8071 59.9626 83.019 55.8362C82.165 54.4501 81.2342 53.1128 80.2309 51.8306C79.19 51.8306 75.1565 51.8306 69.729 51.8306H64.8963C64.7731 51.8306 64.6549 51.7817 64.5677 51.6945C64.4806 51.6074 64.4316 51.4892 64.4316 51.3659C64.4316 50.0462 64.4316 48.5778 64.4316 47.128C64.4316 45.9291 64.4316 44.8232 64.4316 44.0053C64.4316 35.4923 69.8684 30.4087 78.9763 30.4087H95.7049C102.712 30.4087 109.543 34.4514 112.303 40.2507C117.415 50.9756 117.09 62.7414 116.746 75.2042C116.744 75.2732 116.727 75.341 116.697 75.4032C116.668 75.4654 116.625 75.5206 116.572 75.5653C116.52 75.61 116.458 75.6431 116.392 75.6626C116.326 75.682 116.257 75.6873 116.188 75.6782ZM99.6454 74.7488H115.742C116.077 62.5369 116.328 51.0314 111.374 40.641C108.753 35.1578 102.276 31.3474 95.5748 31.3474H78.967C70.3889 31.3474 65.3052 36.0871 65.3052 44.0146C65.3052 44.8325 65.3052 45.9384 65.3052 47.128C65.3052 48.3176 65.3052 49.7024 65.3052 50.9105H69.6826C74.0413 50.9105 79.9986 50.9105 80.3517 50.9105C80.4239 50.9032 80.4968 50.9127 80.5645 50.9386C80.6323 50.9644 80.6931 51.0057 80.7421 51.0592C81.8445 52.4186 82.8595 53.8465 83.7811 55.3343C86.4298 59.3771 89.729 64.405 93.0748 64.405C93.1639 64.4056 93.2518 64.4259 93.3321 64.4645C93.4124 64.503 93.4832 64.5589 93.5394 64.628L99.6454 74.7488Z" fill="black"/>
<path d="M178.362 43.4295C177.887 42.4952 177.19 41.6911 176.334 41.0869C175.477 40.4828 174.486 40.097 173.446 39.9629C172.555 39.8569 171.652 39.9402 170.796 40.2076C169.939 40.4749 169.149 40.9202 168.477 41.5143C167.805 42.1084 167.266 42.8378 166.895 43.6547C166.525 44.4717 166.331 45.3577 166.327 46.2548H166.16C166.429 44.5726 166.16 42.7417 162.842 40.2789C162.122 39.74 161.25 39.4438 160.351 39.4332C159.503 39.4284 158.665 39.609 157.894 39.9622C157.123 40.3155 156.439 40.8329 155.889 41.4783C155.34 42.1236 154.938 42.8814 154.711 43.6984C154.485 44.5154 154.44 45.3721 154.58 46.2083H154.18C153.766 45.4028 153.149 44.7191 152.39 44.2247C151.631 43.7303 150.756 43.4422 149.852 43.3887C148.947 43.3352 148.045 43.5183 147.233 43.9198C146.421 44.3213 145.727 44.9275 145.221 45.6786C145.128 45.818 145.044 45.9574 144.961 46.1061C144.451 47.1111 143.668 47.9519 142.702 48.5317L136.346 52.1934C134.512 53.0125 132.92 54.2892 131.723 55.9009C130.525 57.5126 129.762 59.4052 129.507 61.3968C129.252 63.3884 129.513 65.4122 130.266 67.2738C131.018 69.1353 132.237 70.7721 133.804 72.0269C135.372 73.2817 137.236 74.1123 139.217 74.439C141.198 74.7656 143.23 74.5774 145.118 73.8923C147.005 73.2072 148.685 72.0483 149.995 70.5269C151.305 69.0055 152.202 67.1727 152.6 65.2046C158.269 63.541 165.026 61.2919 169.412 58.9592C178.26 54.3124 178.929 47.6488 178.929 47.6488C179.258 46.2202 179.057 44.7205 178.362 43.4295Z" fill="black"/>
<path d="M141.095 75.065C140.704 75.065 140.305 75.065 139.914 75.0092C137.235 74.7617 134.713 73.6335 132.742 71.8008C130.772 69.9682 129.464 67.5344 129.024 64.8798C128.583 62.2253 129.034 59.4995 130.307 57.1285C131.579 54.7576 133.602 52.875 136.057 51.775L142.414 48.1133C143.305 47.5728 144.026 46.7937 144.496 45.8643C144.589 45.7063 144.682 45.5483 144.784 45.3996C145.288 44.6562 145.961 44.0427 146.747 43.6093C147.533 43.1758 148.411 42.9347 149.309 42.9057C150.206 42.8767 151.098 43.0606 151.911 43.4424C152.723 43.8241 153.434 44.3929 153.985 45.1022C154.031 43.4502 154.718 41.8811 155.901 40.7274C157.085 39.5737 158.671 38.9261 160.323 38.9219C161.328 38.9284 162.304 39.2539 163.111 39.8512C164.535 40.7518 165.67 42.042 166.383 43.5687C166.963 42.2044 167.969 41.0643 169.25 40.3189C170.531 39.5735 172.02 39.2627 173.492 39.433C174.607 39.5795 175.67 39.9943 176.59 40.6418C177.509 41.2892 178.258 42.1501 178.771 43.1505C179.501 44.5372 179.712 46.1389 179.366 47.6672C179.366 48.0111 178.511 54.6003 169.608 59.3308C165.974 61.2639 160.379 63.3457 152.963 65.539C152.364 68.2404 150.862 70.6568 148.704 72.3889C146.546 74.1209 143.862 75.065 141.095 75.065ZM136.624 52.5557L136.513 52.6208C134.755 53.4084 133.229 54.6343 132.081 56.1809C130.934 57.7275 130.202 59.5431 129.957 61.4535C129.713 63.3639 129.962 65.3052 130.683 67.0913C131.404 68.8774 132.572 70.4484 134.074 71.6538C135.576 72.8592 137.363 73.6585 139.263 73.9752C141.162 74.2918 143.112 74.1152 144.924 73.4623C146.736 72.8093 148.35 71.7019 149.611 70.2462C150.872 68.7904 151.738 67.0352 152.126 65.1486C152.142 65.0653 152.181 64.9881 152.239 64.9257C152.296 64.8633 152.37 64.8182 152.451 64.7955C159.821 62.6208 165.611 60.4739 169.18 58.578C177.331 54.2472 178.372 48.197 178.474 47.6672C178.469 47.6364 178.469 47.6051 178.474 47.5743C178.796 46.2437 178.617 44.8411 177.972 43.6338C177.532 42.7631 176.887 42.0127 176.092 41.4476C175.296 40.8824 174.376 40.5195 173.409 40.3903C172.576 40.2833 171.73 40.3565 170.929 40.6051C170.127 40.8536 169.388 41.2716 168.762 41.8308C168.141 42.3832 167.643 43.06 167.3 43.8173C166.957 44.5746 166.778 45.3955 166.773 46.2267C166.768 46.3476 166.718 46.4621 166.631 46.5467C166.545 46.6314 166.429 46.6798 166.308 46.6821H166.141C166.074 46.68 166.008 46.664 165.948 46.6352C165.888 46.6063 165.834 46.5653 165.79 46.5146C165.747 46.4639 165.714 46.4048 165.694 46.3408C165.675 46.2768 165.669 46.2095 165.676 46.1431C165.899 44.7397 165.862 43.0483 162.554 40.6133C161.91 40.1362 161.133 39.873 160.333 39.8605C158.896 39.863 157.52 40.4346 156.504 41.4502C155.488 42.4658 154.917 43.8425 154.914 45.2788C154.918 45.5621 154.943 45.8448 154.989 46.1245C154.998 46.1916 154.993 46.2598 154.976 46.3253C154.958 46.3907 154.928 46.4519 154.886 46.5055C154.842 46.5548 154.787 46.5942 154.726 46.6214C154.666 46.6486 154.6 46.6629 154.533 46.6635H154.134C154.049 46.6618 153.967 46.6377 153.895 46.5936C153.823 46.5495 153.764 46.487 153.725 46.4126C153.347 45.679 152.785 45.0564 152.094 44.6061C151.403 44.1558 150.606 43.8933 149.783 43.8445C148.959 43.7957 148.137 43.9623 147.397 44.3279C146.658 44.6935 146.026 45.2454 145.565 45.9293C145.481 46.0501 145.398 46.1895 145.323 46.3196C144.768 47.3979 143.925 48.3017 142.888 48.9312L136.624 52.5557Z" fill="black"/>
<path d="M139.58 73.6801C144.013 72.7508 146.215 71.1151 144.923 65.1299C152.516 63.5779 166.661 60.6132 169.394 58.9868C173.613 77.7693 174.607 90.2693 161.364 94.5073L159.803 104.321C158.028 108.857 151.085 106.589 151.085 106.589C151.085 106.589 137.795 106.775 135.881 102.351L138.994 82.0259C133.957 84.1913 130.695 79.498 130.063 75.8456C129.05 70.0277 136.485 67.4162 139.58 73.6801Z" fill="white"/>
<path d="M154.673 107.63C153.434 107.618 152.204 107.427 151.02 107.063C149.793 107.063 137.414 107.063 135.453 102.537C135.43 102.455 135.43 102.368 135.453 102.286L138.446 82.7693C137.686 83.0294 136.881 83.129 136.081 83.0618C135.282 82.9946 134.504 82.7621 133.799 82.379C131.28 81.0128 129.951 78.0574 129.589 75.9477C129.286 74.6998 129.462 73.3838 130.081 72.259C130.701 71.1341 131.718 70.2817 132.935 69.8697C135.119 69.1634 138.046 69.9254 139.812 73.1875C142.108 72.6857 143.399 71.9979 144.115 70.9106C144.831 69.8232 145.044 67.8994 144.45 65.26C144.424 65.1383 144.447 65.0115 144.515 64.9068C144.586 64.8048 144.691 64.7321 144.812 64.7024C150.137 63.615 166.327 60.2972 169.143 58.615C169.208 58.583 169.279 58.5664 169.352 58.5664C169.424 58.5664 169.496 58.583 169.561 58.615C169.63 58.642 169.691 58.686 169.738 58.7429C169.785 58.7998 169.817 58.8677 169.831 58.9403C173.762 76.4775 175.667 90.2786 161.764 94.9161L160.239 104.451V104.554C159.292 106.877 156.931 107.63 154.673 107.63ZM151.085 106.124C151.134 106.115 151.185 106.115 151.234 106.124C151.29 106.124 157.739 108.178 159.347 104.173L160.909 94.405C160.922 94.3211 160.959 94.2427 161.015 94.1787C161.071 94.1146 161.143 94.0675 161.225 94.0425C173.381 90.1392 173.455 79.3864 169.078 59.6559C165.593 61.2266 154.208 63.6894 145.472 65.4738C145.983 68.1318 145.806 70.0184 144.914 71.3753C143.79 73.0946 141.634 73.7266 139.673 74.1634C139.572 74.1858 139.466 74.1732 139.373 74.1276C139.28 74.082 139.205 74.0061 139.161 73.9124C137.563 70.6782 134.97 70.1949 133.241 70.7526C132.242 71.1031 131.41 71.8134 130.906 72.7448C130.403 73.6762 130.264 74.7619 130.518 75.7897C130.881 77.8437 132.173 80.4366 134.236 81.5611C134.934 81.9324 135.71 82.132 136.5 82.1433C137.291 82.1546 138.072 81.9774 138.78 81.6262C138.857 81.5948 138.94 81.5843 139.022 81.5957C139.103 81.6072 139.18 81.6401 139.245 81.6912C139.312 81.7403 139.365 81.8072 139.396 81.8844C139.427 81.9616 139.436 82.046 139.422 82.128L136.336 102.314C137.972 105.604 147.489 106.208 151.048 106.152L151.085 106.124Z" fill="black"/>
<path d="M213.929 87.0633L208.66 68.2529L185.323 69.8793L189.58 87.0633H213.929Z" fill="white"/>
<path d="M213.929 87.528H189.58C189.476 87.5286 189.376 87.4939 189.295 87.4297C189.213 87.3655 189.157 87.2756 189.133 87.1749L184.868 69.9908C184.854 69.925 184.854 69.857 184.868 69.7913C184.883 69.7256 184.911 69.6638 184.951 69.6098C184.991 69.556 185.041 69.5108 185.098 69.4772C185.156 69.4436 185.22 69.4223 185.286 69.4146L208.632 67.7882C208.738 67.7807 208.844 67.811 208.931 67.8739C209.018 67.9368 209.08 68.0282 209.106 68.1321L214.375 86.9332C214.395 87.0025 214.399 87.0755 214.386 87.1465C214.373 87.2174 214.344 87.2844 214.301 87.3422C214.257 87.3999 214.201 87.4467 214.137 87.479C214.072 87.5112 214.001 87.528 213.929 87.528ZM189.942 86.5987H213.316L208.316 68.7734L185.909 70.3347L189.942 86.5987Z" fill="black"/>
<path d="M99.5147 59.8978C96.9404 58.9685 96.169 57.3514 96.4757 51.8123C87.5166 51.8123 71.7731 51.3569 68.6411 51.3569C67.2842 58.1692 64.4868 76.4499 77.7303 80.725L76.9868 88.1599C78.7526 92.6952 85.2303 106.543 85.2303 106.543C85.2303 106.543 96.959 93.2157 98.9013 88.7919L100.1 68.2436C105.137 70.409 108.399 65.7157 109.031 62.0633C110.044 56.2454 102.61 53.6339 99.5147 59.8978Z" fill="white"/>
<path d="M85.2307 107.045H85.1656C85.0893 107.035 85.0167 107.006 84.9548 106.961C84.893 106.915 84.8439 106.854 84.8124 106.784C84.7474 106.645 78.3069 92.8438 76.5504 88.3828C76.5414 88.3087 76.5414 88.2338 76.5504 88.1598L77.2567 81.0594C68.1489 77.9088 64.9704 67.3512 68.1489 51.2731C68.17 51.1672 68.2267 51.0718 68.3095 51.0025C68.3923 50.9332 68.4963 50.8942 68.6043 50.8921C69.7753 50.8921 72.6656 50.9571 76.3273 51.0408C82.4426 51.1709 90.8162 51.3475 96.4388 51.3475C96.5019 51.3487 96.5641 51.3624 96.6217 51.388C96.6794 51.4135 96.7314 51.4503 96.7747 51.4961C96.818 51.542 96.8516 51.596 96.8738 51.6551C96.8959 51.7142 96.906 51.777 96.9035 51.84C96.6154 57.0166 97.2753 58.4479 99.2548 59.275C101.03 56.0687 103.902 55.3159 106.104 56.0222C107.32 56.4342 108.338 57.2866 108.958 58.4115C109.577 59.5364 109.752 60.8523 109.45 62.1003C109.088 64.2099 107.759 67.1653 105.231 68.5315C104.509 68.9177 103.713 69.1471 102.896 69.2047C102.08 69.2624 101.26 69.147 100.491 68.8661L99.3292 88.7731C99.3345 88.8257 99.3345 88.8786 99.3292 88.9311C97.4147 93.3828 86.0578 106.301 85.5745 106.849C85.5361 106.906 85.485 106.953 85.4254 106.987C85.3658 107.021 85.2991 107.041 85.2307 107.045ZM77.4426 88.1319C79.0132 92.1282 84.0411 103.002 85.3329 105.734C87.5169 103.216 96.6898 92.5557 98.4184 88.6802L99.6173 68.2341C99.6221 68.1601 99.645 68.0884 99.6839 68.0252C99.7227 67.962 99.7764 67.9093 99.8403 67.8716C99.9064 67.8374 99.9797 67.8196 100.054 67.8196C100.128 67.8196 100.202 67.8374 100.268 67.8716C100.977 68.2206 101.758 68.3967 102.548 68.3853C103.338 68.374 104.114 68.1757 104.812 67.8066C106.904 66.6728 108.195 64.0891 108.53 62.0352C108.784 61.0073 108.646 59.9217 108.142 58.9903C107.639 58.0589 106.806 57.3486 105.807 56.998C104.069 56.4311 101.485 56.9237 99.8775 60.1579C99.8271 60.2609 99.7403 60.3416 99.6339 60.3845C99.5276 60.4274 99.4091 60.4294 99.3013 60.3902C96.5132 59.3401 95.7046 57.5092 95.937 52.3326C90.3608 52.3326 82.2474 52.1467 76.2994 52.0259C73.0002 51.9516 70.3236 51.8958 68.9853 51.8865C67.2009 61.0687 66.1043 76.5798 77.8236 80.3345C77.9246 80.3691 78.0113 80.4362 78.0702 80.5253C78.129 80.6144 78.1567 80.7205 78.1489 80.827L77.4426 88.1319Z" fill="black"/>
<path d="M101.104 63.5132C101.043 63.522 100.98 63.522 100.919 63.5132C100.807 63.4623 100.719 63.3699 100.674 63.2554C100.629 63.141 100.63 63.0134 100.677 62.8998C100.733 62.7697 102.09 59.6563 105.38 59.6563C105.442 59.6551 105.504 59.6662 105.562 59.6888C105.62 59.7115 105.673 59.7454 105.717 59.7886C105.762 59.8317 105.798 59.8833 105.823 59.9403C105.848 59.9974 105.862 60.0588 105.863 60.121C105.863 60.2443 105.814 60.3625 105.727 60.4496C105.64 60.5368 105.521 60.5857 105.398 60.5857C102.712 60.5857 101.55 63.2344 101.541 63.2623C101.499 63.3409 101.436 63.4062 101.359 63.4506C101.282 63.495 101.193 63.5167 101.104 63.5132Z" fill="black"/>
<path d="M103.967 64.6935C103.866 64.6935 103.769 64.6608 103.688 64.6005C103.608 64.5402 103.549 64.4554 103.521 64.3589C103.216 63.4024 102.637 62.556 101.857 61.9239C101.756 61.8525 101.688 61.7438 101.667 61.6218C101.646 61.4998 101.674 61.3744 101.746 61.2734C101.817 61.1723 101.926 61.1038 102.048 61.0829C102.17 61.062 102.295 61.0904 102.396 61.1619C103.347 61.925 104.044 62.9588 104.395 64.1265C104.429 64.2449 104.415 64.372 104.356 64.4801C104.297 64.5881 104.197 64.6682 104.079 64.7027L103.967 64.6935Z" fill="black"/>
<path d="M93.1855 57.184C93.0863 57.1848 92.9891 57.1557 92.9067 57.1003C89.8955 54.8605 84.4866 54.6282 84.4309 54.6282C84.3698 54.6258 84.3099 54.6114 84.2544 54.5858C84.1989 54.5602 84.149 54.524 84.1076 54.4791C84.0662 54.4342 84.034 54.3816 84.0129 54.3242C83.9918 54.2669 83.9823 54.206 83.9848 54.1449C83.9919 54.0225 84.0463 53.9076 84.1364 53.8244C84.2266 53.7412 84.3454 53.6962 84.468 53.6988C84.7004 53.6988 90.2208 53.9498 93.4643 56.3475C93.5423 56.4061 93.6 56.4876 93.6291 56.5807C93.6581 56.6738 93.6572 56.7737 93.6263 56.8662C93.5955 56.9588 93.5363 57.0392 93.4572 57.0963C93.3781 57.1533 93.283 57.184 93.1855 57.184Z" fill="black"/>
<path d="M69.8684 54.2843C69.7648 54.2849 69.6639 54.2507 69.5819 54.1874C69.4999 54.124 69.4414 54.035 69.4158 53.9346C69.3902 53.8342 69.3988 53.7281 69.4404 53.6332C69.482 53.5383 69.5542 53.46 69.6454 53.4107C69.7476 53.4107 72.0896 52.184 76.6342 53.2156C76.7574 53.2427 76.8649 53.3176 76.9328 53.424C77.0008 53.5303 77.0238 53.6592 76.9966 53.7825C76.9695 53.9057 76.8946 54.0132 76.7883 54.0811C76.6819 54.1491 76.553 54.1721 76.4297 54.1449C72.2476 53.2156 70.0914 54.2472 70.0729 54.2565C70.0082 54.2831 69.9378 54.2927 69.8684 54.2843Z" fill="black"/>
<path d="M77.9811 67.9092H77.8324C75.9741 67.353 74.3197 66.2641 73.0741 64.7772C73.006 64.6854 72.9749 64.5714 72.9869 64.4578C72.999 64.3442 73.0533 64.2392 73.1391 64.1638C75.7393 61.828 77.5158 58.7151 78.2042 55.2883C78.2239 55.1651 78.2917 55.0547 78.3928 54.9815C78.4429 54.9453 78.4996 54.9193 78.5597 54.9049C78.6198 54.8906 78.6822 54.8882 78.7432 54.898C78.8042 54.9078 78.8627 54.9295 78.9154 54.9618C78.968 54.9942 79.0138 55.0366 79.05 55.0867C79.0862 55.1367 79.1123 55.1934 79.1266 55.2535C79.1409 55.3137 79.1433 55.376 79.1335 55.437C78.4347 58.9227 76.6753 62.1072 74.0964 64.5541C75.2119 65.7084 76.6033 66.5593 78.1391 67.0263C78.2623 67.046 78.3727 67.1138 78.4459 67.2149C78.5191 67.316 78.5492 67.442 78.5294 67.5653C78.5097 67.6885 78.4419 67.7989 78.3408 67.8721C78.2397 67.9453 78.1136 67.9753 77.9904 67.9556L77.9811 67.9092Z" fill="black"/>
<path d="M87.7505 59.4881C87.8927 58.6845 87.4632 57.9366 86.791 57.8176C86.1187 57.6986 85.4585 58.2535 85.3162 59.0571C85.1739 59.8608 85.6035 60.6087 86.2757 60.7277C86.9479 60.8467 87.6082 60.2917 87.7505 59.4881Z" fill="black"/>
<path d="M73.7348 57.7987C73.8771 56.9951 73.4475 56.2471 72.7753 56.1281C72.1031 56.0091 71.4429 56.5641 71.3006 57.3677C71.1583 58.1713 71.5879 58.9192 72.2601 59.0382C72.9323 59.1573 73.5926 58.6023 73.7348 57.7987Z" fill="black"/>
<path d="M69.4402 40.6877C75.5503 38.9053 81.7852 37.5819 88.0926 36.7286C88.7896 36.6635 89.5238 36.7286 89.7747 37.2211C90.7041 39.2286 81.1409 39.8884 74.2171 42.0074C78.1112 41.078 82.1074 40.1486 86.0015 39.4144C87.126 39.1914 90.4067 38.3271 90.7784 39.5631C90.9829 40.223 90.2673 40.9479 86.4011 42.0074L74.8491 45.1765C74.8491 45.1765 81.8286 43.2063 85.4811 42.2676C87.4141 41.7657 90.1279 40.6505 90.5275 42.0724C90.8063 43.1877 88.2134 44.3122 83.7431 45.7156C80.5368 46.71 77.9346 47.3234 75.4903 48.0483C79.4123 47.0074 82.6744 46.1059 86.5684 44.7676C89.3565 43.8382 89.942 46.4312 87.6093 47.4721C85.1279 48.5966 81.1037 50.2602 78.5108 51.1895C70.9364 53.9033 61.6428 59.6561 57.5071 70.9386C55.1372 69.8698 46.7729 66.394 43.2041 63.894C51.2803 47.5092 64.4309 42.3327 69.4402 40.6877Z" fill="white"/>
<path d="M57.507 71.4034C57.4458 71.417 57.3823 71.417 57.3211 71.4034L55.9736 70.8179C52.507 69.303 46.0572 66.4963 42.9624 64.3123C42.8719 64.2484 42.8072 64.1543 42.7799 64.047C42.7527 63.9396 42.7646 63.8261 42.8137 63.7268C49.9698 49.1264 61.1687 42.9089 69.2914 40.2416C75.4331 38.4503 81.6985 37.1146 88.0367 36.2454C89.1427 36.1431 89.8955 36.4034 90.1836 36.9889C90.2585 37.1323 90.2976 37.2917 90.2976 37.4535C90.2976 37.6154 90.2585 37.7748 90.1836 37.9182C90.0735 38.1214 89.9215 38.2989 89.7375 38.4387C90.4624 38.513 91.0386 38.7732 91.2245 39.368C91.2712 39.51 91.2879 39.6602 91.2735 39.809C91.2591 39.9578 91.2139 40.102 91.1408 40.2324C90.9288 40.5741 90.6265 40.8507 90.2672 41.0316H90.3695C90.5223 41.1197 90.655 41.2388 90.759 41.3812C90.8631 41.5237 90.9361 41.6864 90.9735 41.8587C91.1873 42.6952 90.5553 43.4294 88.7524 44.2751C89.048 44.4497 89.2769 44.7179 89.4029 45.0372C89.7468 45.9015 89.3007 47.1283 87.8044 47.8253C85.2579 48.9684 81.1594 50.6134 78.6687 51.5428C71.494 54.145 62.0795 59.6469 57.9438 71.0595C57.8959 71.1801 57.8024 71.277 57.6836 71.329C57.6296 71.3641 57.5698 71.3893 57.507 71.4034ZM43.7988 63.7361C46.968 65.8272 53.2691 68.5781 56.3453 69.9164L57.2747 70.316C61.5869 58.9127 71.0851 53.3829 78.3713 50.7435C80.8434 49.8141 84.8769 48.1877 87.442 47.026C88.3713 46.5892 88.7338 45.8922 88.5572 45.4554C88.3806 45.0186 87.7858 44.8234 86.6985 45.1766H86.6055C85.8063 45.4647 84.8955 45.7621 83.8174 46.106L82.191 46.5985C79.8862 47.2956 77.7208 47.8718 75.546 48.4573C75.4228 48.4905 75.2914 48.4735 75.1807 48.4099C75.07 48.3463 74.9892 48.2413 74.9559 48.118C74.9226 47.9948 74.9397 47.8634 75.0033 47.7527C75.0669 47.642 75.1719 47.5612 75.2951 47.5279C76.2802 47.2305 77.3025 46.961 78.3713 46.6636C79.4401 46.3662 80.8063 46.013 82.1446 45.6134C83.4828 45.2138 84.7375 44.8048 86.113 44.3402C89.4215 43.1506 90.0999 42.4814 90.007 42.1097C90.0008 42.0589 89.9823 42.0103 89.9532 41.9682C89.924 41.9261 89.8851 41.8918 89.8397 41.868C89.048 41.7098 88.2272 41.7874 87.4791 42.0911L86.4568 42.3885L86.1594 42.4721L85.5553 42.6301L74.9698 45.632C74.9016 45.6594 74.827 45.6669 74.7547 45.6538C74.6823 45.6406 74.6151 45.6073 74.5609 45.5576C74.4921 45.506 74.4396 45.4355 74.4099 45.3547C74.3803 45.2739 74.3746 45.1862 74.3936 45.1022C74.4069 45.0168 74.4447 44.9371 74.5024 44.8727C74.5602 44.8084 74.6354 44.7622 74.7189 44.7398L75.0349 44.6469C80.9364 42.9926 83.9011 42.2026 85.3602 41.8587L85.955 41.6915L86.3825 41.5706L87.3118 41.3104C89.626 40.6041 90.2022 40.1208 90.3323 39.8885C90.3504 39.8438 90.3504 39.7938 90.3323 39.7491C90.2301 39.4331 89.4866 39.1822 86.494 39.8327L86.0851 39.9164C81.9773 40.7342 78.0182 41.6078 74.3193 42.5093C74.2613 42.5247 74.2009 42.5285 74.1414 42.5205C74.082 42.5125 74.0247 42.4928 73.9729 42.4625C73.9211 42.4323 73.8757 42.3922 73.8395 42.3444C73.8032 42.2966 73.7768 42.2421 73.7617 42.184C73.7299 42.067 73.7452 41.9422 73.8043 41.8363C73.8633 41.7303 73.9614 41.6517 74.0776 41.6171C76.6334 40.8271 79.5609 40.2416 82.1353 39.7584C85.3323 39.1171 88.9568 38.3829 89.3472 37.6208C89.3472 37.6208 89.3472 37.5651 89.3472 37.5C89.3472 37.435 88.7617 37.2212 88.1204 37.277C81.8347 38.1233 75.6214 39.4405 69.533 41.2175C61.6892 43.6803 50.8434 49.7305 43.7988 63.7361Z" fill="black"/>
<path d="M86.7363 71.4684C83.4799 73.093 79.8224 73.7386 76.2066 73.3271C74.924 73.1227 73.9947 71.4126 76.0858 71.2082C78.7252 70.9758 82.5634 73.7825 86.7363 71.4684Z" fill="#DF49B5"/>
<path d="M78.428 73.9686C77.6689 73.9716 76.9107 73.9157 76.1603 73.8013C75.712 73.7526 75.294 73.5517 74.9761 73.232C74.6581 72.9123 74.4594 72.4933 74.4131 72.0448C74.4131 71.7009 74.6083 70.9109 76.0767 70.7622C77.1818 70.7509 78.2811 70.9236 79.3294 71.2734C81.2439 71.7753 83.3908 72.3422 85.6491 71.4779C86.2068 71.2362 86.5785 71.0689 86.5785 71.0596C86.6322 71.0304 86.6912 71.0119 86.752 71.0054C86.8128 70.9989 86.8743 71.0044 86.933 71.0217C86.9917 71.039 87.0464 71.0676 87.094 71.106C87.1416 71.1444 87.1812 71.1918 87.2105 71.2455C87.2398 71.2992 87.2582 71.3582 87.2647 71.419C87.2712 71.4798 87.2657 71.5413 87.2484 71.6C87.2312 71.6587 87.2025 71.7134 87.1641 71.761C87.1257 71.8086 87.0783 71.8482 87.0246 71.8775C86.7563 72.0227 86.4802 72.153 86.1975 72.2678C83.7502 73.357 81.1065 73.9357 78.428 73.9686ZM76.5135 71.673H76.2068C75.7142 71.673 75.3982 71.8682 75.3889 72.0541C75.4473 72.2652 75.5666 72.4545 75.7318 72.5983C75.8971 72.7421 76.1011 72.834 76.3183 72.8626C78.0709 73.1123 79.8533 73.0589 81.5878 72.7046C80.7518 72.5648 79.9235 72.3818 79.1064 72.1563C78.2651 71.8899 77.3943 71.7276 76.5135 71.673Z" fill="black"/>
<path d="M84.2916 72.5649C81.6917 73.3951 78.9448 73.6613 76.2339 73.3456C74.9514 73.1411 74.7748 76.0036 78.2971 75.8828C80.9087 75.7991 83.0741 73.7452 84.2916 72.5649Z" fill="#DF49B5"/>
<path d="M78.0747 76.3569C76.0951 76.3569 75.3702 75.4276 75.1472 75.0093C74.9935 74.7591 74.9121 74.4712 74.9121 74.1776C74.9121 73.8839 74.9935 73.596 75.1472 73.3458C75.2718 73.1703 75.4435 73.0336 75.6425 72.9514C75.8414 72.8692 76.0595 72.8448 76.2717 72.8811C78.8941 73.1916 81.5526 72.9382 84.0691 72.1376C84.1699 72.085 84.2866 72.0713 84.3969 72.0989C84.5072 72.1265 84.6035 72.1937 84.6677 72.2876C84.7318 72.3815 84.7593 72.4957 84.7449 72.6085C84.7305 72.7213 84.6752 72.8249 84.5895 72.8997C83.4743 73.987 81.1416 76.2547 78.2791 76.3476L78.0747 76.3569ZM76.1044 73.8012C76.0716 73.7991 76.0389 73.8057 76.0095 73.8204C75.9801 73.8351 75.9551 73.8573 75.9371 73.8848C75.8749 73.9887 75.842 74.1076 75.842 74.2287C75.842 74.3498 75.8749 74.4686 75.9371 74.5725C76.0858 74.8421 76.6342 75.5019 78.2513 75.4183C79.8257 75.2653 81.3102 74.6141 82.4892 73.5595C80.3952 73.964 78.2523 74.0517 76.1323 73.8198L76.1044 73.8012Z" fill="black"/>
<path d="M77.7302 80.725C79.8399 81.3942 87.9533 81.1804 91.299 77.4351C91.299 77.4351 87.2749 83.6432 77.3027 85.4648L77.7302 80.725Z" fill="black"/>
<path d="M77.3034 85.9292C77.2395 85.928 77.1765 85.914 77.1182 85.8879C77.0599 85.8618 77.0075 85.8241 76.9641 85.7773C76.9207 85.7304 76.8872 85.6752 76.8657 85.6151C76.8441 85.5549 76.8349 85.4911 76.8387 85.4273L77.2662 80.6875C77.2712 80.617 77.2922 80.5485 77.3276 80.4873C77.363 80.4261 77.412 80.3738 77.4707 80.3344C77.5298 80.2979 77.5959 80.2741 77.6646 80.2645C77.7334 80.2549 77.8035 80.2597 77.8703 80.2786C79.7941 80.892 87.7402 80.7247 90.9558 77.128C91.0329 77.041 91.1403 76.9868 91.2561 76.9764C91.3718 76.9661 91.4872 77.0004 91.5785 77.0723C91.6723 77.1428 91.7359 77.2462 91.7566 77.3617C91.7773 77.4772 91.7535 77.5963 91.69 77.6949C91.5227 77.9552 87.4335 84.089 77.387 85.9199L77.3034 85.9292ZM78.1398 81.2823L77.8239 84.8697C81.5906 84.1463 85.121 82.5056 88.1027 80.0927C84.9308 81.3056 81.5096 81.7205 78.1398 81.3009V81.2823Z" fill="black"/>
<path d="M60.3881 147.816C55.416 147.816 51.9216 146.404 50.0071 143.625C46.6985 138.801 49.3658 131.701 49.4866 131.404L55.3974 113.513C55.4153 113.455 55.4448 113.4 55.4842 113.353C55.5237 113.306 55.5722 113.268 55.6269 113.24C55.6815 113.212 55.7413 113.196 55.8024 113.191C55.8636 113.187 55.925 113.196 55.9829 113.216C56.0992 113.258 56.1949 113.343 56.2502 113.454C56.3055 113.565 56.3163 113.692 56.2803 113.811L50.3603 131.72C50.3603 131.803 47.7394 138.69 50.7785 143.104C52.5071 145.614 55.7413 146.887 60.3881 146.887C60.5114 146.887 60.6296 146.936 60.7167 147.023C60.8039 147.11 60.8528 147.228 60.8528 147.351C60.8528 147.475 60.8039 147.593 60.7167 147.68C60.6296 147.767 60.5114 147.816 60.3881 147.816Z" fill="black"/>
<path d="M39.4683 120.093C39.4129 120.102 39.3564 120.102 39.301 120.093C39.2437 120.072 39.1912 120.04 39.1464 119.999C39.1017 119.958 39.0657 119.908 39.0406 119.853C39.0155 119.797 39.0017 119.737 39.0002 119.676C38.9986 119.615 39.0092 119.555 39.0315 119.498L42.7489 109.35C42.7927 109.235 42.8797 109.143 42.991 109.093C43.1024 109.042 43.2291 109.038 43.3437 109.08C43.4596 109.122 43.554 109.208 43.6063 109.32C43.6586 109.431 43.6644 109.559 43.6226 109.675L39.9051 119.814C39.8682 119.899 39.8069 119.971 39.7292 120.02C39.6514 120.07 39.5605 120.095 39.4683 120.093Z" fill="black"/>
<path d="M73.4461 91.71C73.3365 91.71 73.2304 91.672 73.1456 91.6026C73.0609 91.5331 73.0029 91.4364 72.9814 91.329C72.9622 91.2061 72.991 91.0806 73.062 90.9784C73.133 90.8763 73.2406 90.8055 73.3625 90.7807L76.0948 90.2881C76.2155 90.2664 76.3399 90.2933 76.4409 90.3629C76.5419 90.4326 76.6112 90.5393 76.6338 90.6599C76.6555 90.7806 76.6287 90.905 76.559 91.006C76.4894 91.107 76.3826 91.1763 76.2621 91.1989L73.5297 91.7007L73.4461 91.71Z" fill="black"/>
<path d="M161.365 94.5074C159.255 95.1766 151.653 95.5483 147.099 90.8457C146.597 97.5836 155.779 99.0149 161.365 94.5074Z" fill="black"/>
<path d="M154.004 97.5836C152.546 97.6204 151.101 97.3014 149.794 96.6542C148.731 96.1291 147.857 95.288 147.291 94.2464C146.725 93.2048 146.496 92.0137 146.634 90.8364C146.644 90.7483 146.678 90.6647 146.732 90.5944C146.786 90.5241 146.858 90.4696 146.94 90.4368C147.024 90.4047 147.116 90.3981 147.204 90.418C147.291 90.4378 147.371 90.4832 147.433 90.5483C151.848 95.1022 159.19 94.7304 161.225 94.0985C161.327 94.0705 161.435 94.0779 161.531 94.1195C161.628 94.1611 161.708 94.2344 161.758 94.3273C161.808 94.4203 161.824 94.5274 161.805 94.631C161.786 94.7347 161.732 94.8287 161.652 94.8977C159.474 96.621 156.781 97.5664 154.004 97.5836ZM147.563 91.9052C147.629 92.7284 147.908 93.5201 148.375 94.2016C148.841 94.8831 149.478 95.4307 150.221 95.7899C152.73 97.1003 156.336 96.8494 159.292 95.2974C156.216 95.539 151.197 95.0278 147.563 91.9238V91.9052Z" fill="black"/>
<path d="M159.784 79.7121C159.661 79.7318 159.535 79.7018 159.434 79.6286C159.333 79.5554 159.265 79.445 159.245 79.3218C159.225 79.1985 159.255 79.0725 159.329 78.9714C159.402 78.8703 159.512 78.8025 159.636 78.7827L164.375 77.1656L161.364 67.0448C161.33 66.9265 161.344 66.7993 161.403 66.6913C161.462 66.5832 161.562 66.5031 161.68 66.4686C161.798 66.4366 161.924 66.4516 162.032 66.5105C162.139 66.5695 162.22 66.6677 162.256 66.7846L165.398 77.3515C165.428 77.4673 165.415 77.5904 165.36 77.6969C165.305 77.8034 165.212 77.8856 165.1 77.9277L159.933 79.6842C159.886 79.7034 159.835 79.7128 159.784 79.7121Z" fill="black"/>
<path d="M137.564 76.8866C137.473 76.8869 137.384 76.8607 137.308 76.8112C137.232 76.7616 137.172 76.6909 137.136 76.6078C136.806 75.8462 136.27 75.1915 135.589 74.7171C134.908 74.2427 134.108 73.9674 133.279 73.9219C133.156 73.9219 133.038 73.873 132.951 73.7858C132.864 73.6987 132.815 73.5805 132.815 73.4573C132.813 73.3951 132.825 73.3333 132.848 73.2757C132.872 73.2181 132.907 73.1659 132.951 73.1224C132.995 73.0789 133.048 73.0449 133.106 73.0225C133.164 73.0002 133.226 72.99 133.289 72.9926C136.588 72.9926 137.935 76.106 138 76.2361C138.025 76.2922 138.038 76.3526 138.039 76.4139C138.041 76.4751 138.03 76.536 138.007 76.593C137.985 76.65 137.951 76.702 137.909 76.746C137.866 76.7901 137.815 76.8252 137.759 76.8494C137.697 76.8764 137.631 76.8891 137.564 76.8866Z" fill="black"/>
<path d="M135.231 76.8868C135.149 76.8884 135.068 76.8658 134.998 76.8218C134.893 76.7596 134.816 76.6591 134.783 76.5413C134.75 76.4235 134.764 76.2976 134.822 76.1898C135.179 75.5419 135.674 74.9803 136.272 74.5448C136.321 74.5029 136.378 74.4717 136.439 74.453C136.501 74.4344 136.566 74.4287 136.63 74.4365C136.694 74.4442 136.755 74.4652 136.811 74.498C136.866 74.5309 136.914 74.5749 136.952 74.6273C136.989 74.6796 137.015 74.7392 137.029 74.8023C137.042 74.8653 137.042 74.9304 137.029 74.9934C137.015 75.0565 136.989 75.1161 136.952 75.1684C136.914 75.2208 136.866 75.2648 136.811 75.2976C136.323 75.6585 135.92 76.1216 135.63 76.6545C135.59 76.7247 135.532 76.7831 135.462 76.8239C135.391 76.8646 135.312 76.8863 135.231 76.8868Z" fill="black"/>
<path d="M168.091 70.9854C168.77 70.9148 169.252 70.1995 169.167 69.3878C169.083 68.576 168.464 67.9753 167.785 68.0459C167.106 68.1166 166.624 68.8319 166.709 69.6436C166.793 70.4553 167.412 71.0561 168.091 70.9854Z" fill="black"/>
<path d="M155.101 73.1168C155.78 73.0461 156.262 72.3308 156.177 71.5191C156.093 70.7074 155.474 70.1066 154.795 70.1773C154.116 70.2479 153.634 70.9632 153.718 71.7749C153.803 72.5867 154.422 73.1874 155.101 73.1168Z" fill="black"/>
<path d="M158 64.3867L158.381 66.7008L150.082 68.5875L149.738 66.422L158 64.3867Z" fill="black"/>
<path d="M170.165 62.0723L170.546 64.3864L163.241 65.8827L162.897 63.7172L170.165 62.0723Z" fill="black"/>
<path d="M160.584 87.3604C159.894 87.3809 159.22 87.1542 158.683 86.7213C158.147 86.2884 157.782 85.6778 157.656 84.9998C157.64 84.9388 157.636 84.8751 157.646 84.8127C157.656 84.7503 157.678 84.6906 157.712 84.6373C157.744 84.5821 157.788 84.5349 157.842 84.4995C157.895 84.4641 157.955 84.4413 158.019 84.4329L165.23 83.0202C165.302 83.0099 165.375 83.0153 165.444 83.0362C165.513 83.0571 165.576 83.0929 165.63 83.1411C165.685 83.189 165.727 83.2497 165.753 83.3177C165.779 83.3858 165.788 83.4591 165.779 83.5314C165.584 85.26 163.112 87.1838 160.872 87.3511L160.584 87.3604ZM158.725 85.2414C158.889 85.6441 159.183 85.9801 159.56 86.1958C159.938 86.4114 160.377 86.4943 160.807 86.431C161.572 86.3396 162.309 86.0838 162.967 85.6812C163.625 85.2786 164.187 84.7386 164.617 84.0983L158.725 85.2414Z" fill="black"/>
<path d="M162.945 106.682C153.112 111.487 143.883 111.515 134.051 106.682C131.458 105.204 130.668 102.202 131.959 100.437C132.622 99.6137 133.565 99.0638 134.607 98.8924C135.65 98.7209 136.719 98.9398 137.61 99.5073C145.222 102.788 151.746 102.807 159.385 99.5073C160.278 98.9413 161.348 98.7232 162.392 98.8945C163.435 99.0659 164.38 99.6147 165.045 100.437C166.29 102.23 165.5 105.204 162.945 106.682Z" fill="white"/>
<path d="M148.437 110.771C143.338 110.688 138.328 109.415 133.808 107.054C133.098 106.669 132.478 106.139 131.986 105.499C131.494 104.858 131.143 104.122 130.955 103.336C130.819 102.792 130.801 102.225 130.904 101.673C131.006 101.121 131.227 100.598 131.55 100.139C132.276 99.2198 133.316 98.601 134.471 98.402C135.625 98.203 136.813 98.4378 137.805 99.0613C145.24 102.277 151.661 102.277 159.18 99.0613C160.168 98.447 161.348 98.2192 162.494 98.4216C163.64 98.624 164.67 99.2423 165.388 100.158C165.71 100.618 165.929 101.141 166.032 101.692C166.134 102.243 166.118 102.81 165.983 103.355C165.804 104.135 165.463 104.869 164.983 105.509C164.503 106.15 163.894 106.682 163.195 107.072C158.628 109.432 153.576 110.698 148.437 110.771ZM135.156 99.3215C134.602 99.3098 134.054 99.4301 133.556 99.6725C133.058 99.915 132.626 100.273 132.293 100.716C132.051 101.07 131.888 101.473 131.814 101.896C131.74 102.319 131.758 102.753 131.866 103.169C132.02 103.827 132.311 104.444 132.722 104.981C133.132 105.518 133.651 105.961 134.245 106.282C143.892 111.022 152.944 111.032 162.693 106.282C163.284 105.96 163.8 105.517 164.208 104.983C164.617 104.448 164.908 103.833 165.063 103.178C165.171 102.763 165.188 102.329 165.115 101.905C165.041 101.482 164.878 101.08 164.635 100.725C164.04 99.9915 163.195 99.5036 162.262 99.3544C161.329 99.2052 160.374 99.4053 159.58 99.9163C151.773 103.281 145.156 103.281 137.396 99.9163C136.711 99.5321 135.941 99.3274 135.156 99.3215Z" fill="black"/>
<path d="M74.5427 94.3961C74.4194 94.4121 74.2949 94.3785 74.1964 94.3027C74.0979 94.2269 74.0336 94.1151 74.0176 93.9918C74.0016 93.8686 74.0352 93.744 74.111 93.6456C74.1868 93.5471 74.2986 93.4828 74.4219 93.4667L77.21 92.7418C77.3332 92.711 77.4636 92.7304 77.5726 92.7958C77.6815 92.8612 77.76 92.9671 77.7908 93.0904C77.8216 93.2136 77.8022 93.344 77.7369 93.453C77.6715 93.5619 77.5655 93.6404 77.4423 93.6712L74.6542 94.3868L74.5427 94.3961Z" fill="black"/>
<path d="M219.441 55.4741L168 66.5522H167.926C167.122 66.7352 166.413 67.2081 165.935 67.8806C165.458 68.5531 165.244 69.3779 165.336 70.1977C165.428 71.0174 165.819 71.7745 166.434 72.3244C167.049 72.8742 167.845 73.1783 168.669 73.1786L219.98 74.2752L219.441 55.4741Z" fill="#3853E0"/>
<path d="M219.979 74.7585L168.669 73.6618C167.735 73.6651 166.832 73.3258 166.131 72.7082C165.43 72.0905 164.979 71.2374 164.865 70.3102C164.75 69.3829 164.98 68.4459 165.509 67.6764C166.039 66.9068 166.832 66.3581 167.739 66.134H167.814H167.925L219.347 55.0187C219.413 55.0042 219.481 55.0042 219.547 55.0186C219.613 55.0331 219.675 55.0616 219.728 55.1024C219.782 55.1442 219.826 55.1977 219.857 55.2588C219.887 55.3199 219.904 55.3872 219.905 55.4555L220.444 74.2752C220.449 74.3386 220.439 74.4021 220.417 74.4615C220.394 74.5209 220.359 74.5747 220.314 74.6191C220.225 74.7081 220.105 74.7582 219.979 74.7585ZM168.102 67.0076H168.028C167.337 67.1673 166.729 67.5754 166.319 68.1541C165.91 68.7328 165.727 69.4418 165.807 70.1463C165.886 70.8509 166.221 71.5017 166.749 71.9751C167.277 72.4485 167.96 72.7114 168.669 72.7139L219.505 73.8013L218.994 56.0224L168.102 67.0076Z" fill="black"/>
<path d="M219.979 74.2845C225.174 74.2845 229.385 70.0737 229.385 64.8793C229.385 59.685 225.174 55.4741 219.979 55.4741C214.785 55.4741 210.574 59.685 210.574 64.8793C210.574 70.0737 214.785 74.2845 219.979 74.2845Z" fill="white"/>
<path d="M219.98 74.7584C218.026 74.7584 216.116 74.179 214.491 73.0934C212.867 72.0079 211.6 70.465 210.853 68.6598C210.105 66.8546 209.909 64.8682 210.29 62.9519C210.672 61.0355 211.613 59.2752 212.994 57.8935C214.376 56.5119 216.136 55.571 218.052 55.1898C219.969 54.8086 221.955 55.0043 223.76 55.752C225.566 56.4997 227.108 57.766 228.194 59.3906C229.28 61.0152 229.859 62.9253 229.859 64.8792C229.856 67.4986 228.815 70.0099 226.963 71.8621C225.11 73.7143 222.599 74.7559 219.98 74.7584ZM219.98 55.9387C218.209 55.9387 216.479 56.4638 215.007 57.4476C213.535 58.4315 212.387 59.8298 211.71 61.4657C211.033 63.1016 210.857 64.9016 211.203 66.6379C211.549 68.3743 212.402 69.969 213.655 71.2202C214.907 72.4715 216.503 73.3232 218.239 73.6675C219.976 74.0117 221.776 73.8332 223.411 73.1544C225.046 72.4755 226.443 71.327 227.426 69.854C228.408 68.381 228.931 66.6497 228.93 64.8792C228.927 62.5072 227.983 60.2331 226.305 58.5567C224.627 56.8803 222.352 55.9387 219.98 55.9387Z" fill="black"/>
<path d="M219.98 71.2916C223.522 71.2916 226.393 68.4205 226.393 64.8789C226.393 61.3373 223.522 58.4663 219.98 58.4663C216.438 58.4663 213.567 61.3373 213.567 64.8789C213.567 68.4205 216.438 71.2916 219.98 71.2916Z" fill="white"/>
<path d="M219.979 71.7659C218.617 71.7659 217.286 71.362 216.153 70.6053C215.021 69.8486 214.138 68.7731 213.617 67.5147C213.096 66.2563 212.959 64.8717 213.225 63.5358C213.491 62.1999 214.147 60.9728 215.11 60.0097C216.073 59.0466 217.3 58.3907 218.636 58.125C219.972 57.8593 221.356 57.9957 222.615 58.5169C223.873 59.0381 224.949 59.9208 225.705 61.0533C226.462 62.1858 226.866 63.5172 226.866 64.8793C226.864 66.705 226.137 68.4552 224.846 69.7462C223.555 71.0371 221.805 71.7635 219.979 71.7659ZM219.979 58.9313C218.801 58.9313 217.649 59.281 216.669 59.936C215.689 60.591 214.925 61.5219 214.475 62.611C214.024 63.7001 213.907 64.8984 214.137 66.0542C214.368 67.2101 214.936 68.2715 215.77 69.1043C216.604 69.9371 217.667 70.5037 218.823 70.7325C219.979 70.9613 221.177 70.842 222.266 70.3897C223.354 69.9374 224.284 69.1724 224.937 68.1915C225.591 67.2106 225.938 66.0579 225.937 64.8793C225.934 63.3009 225.305 61.7881 224.189 60.6729C223.072 59.5577 221.558 58.9313 219.979 58.9313Z" fill="black"/>
<path d="M223.846 64.8794C223.849 65.3894 223.752 65.8952 223.559 66.3675C223.367 66.8398 223.083 67.2693 222.723 67.6312C222.364 67.9932 221.936 68.2805 221.465 68.4765C220.995 68.6725 220.49 68.7735 219.979 68.7734" fill="white"/>
<path d="M219.979 69.2101C219.857 69.2077 219.74 69.158 219.653 69.0714C219.567 68.9847 219.517 68.8679 219.515 68.7454C219.515 68.6222 219.564 68.504 219.651 68.4168C219.738 68.3297 219.856 68.2807 219.979 68.2807C220.877 68.2734 221.735 67.9118 222.367 67.2746C222.998 66.6375 223.353 65.7766 223.353 64.8792C223.353 64.756 223.402 64.6378 223.489 64.5507C223.576 64.4635 223.694 64.4146 223.818 64.4146C223.941 64.4146 224.059 64.4635 224.146 64.5507C224.233 64.6378 224.282 64.756 224.282 64.8792C224.282 66.023 223.83 67.1204 223.024 67.9318C222.218 68.7432 221.123 69.2027 219.979 69.2101Z" fill="black"/>
<path d="M75.5838 97.1654C75.4837 97.1639 75.3865 97.1307 75.3064 97.0706C75.2262 97.0105 75.1672 96.9265 75.1377 96.8308C75.1206 96.7722 75.1153 96.7108 75.1219 96.6502C75.1285 96.5895 75.147 96.5307 75.1764 96.4772C75.2356 96.3692 75.3354 96.2891 75.4537 96.2546L78.3348 95.381C78.458 95.3452 78.5904 95.3599 78.7028 95.4218C78.8152 95.4837 78.8985 95.5876 78.9342 95.7109C78.9699 95.8341 78.9553 95.9665 78.8934 96.0789C78.8315 96.1914 78.7275 96.2746 78.6043 96.3103L75.7232 97.1839L75.5838 97.1654Z" fill="black"/>
<path d="M76.7081 99.8978C76.5849 99.9237 76.4564 99.8996 76.351 99.8307C76.2455 99.7619 76.1718 99.654 76.1459 99.5307C76.12 99.4075 76.1441 99.279 76.213 99.1736C76.2818 99.0681 76.3897 98.9943 76.513 98.9685L79.3011 97.7231C79.3559 97.6966 79.4154 97.6814 79.4762 97.6783C79.5369 97.6752 79.5977 97.6844 79.6549 97.7052C79.712 97.7259 79.7645 97.758 79.8091 97.7994C79.8536 97.8408 79.8895 97.8907 79.9145 97.9461C79.9411 98.0016 79.9565 98.0618 79.9597 98.1233C79.9629 98.1847 79.9538 98.2462 79.9331 98.3041C79.9123 98.362 79.8803 98.4153 79.8388 98.4607C79.7973 98.5062 79.7472 98.5429 79.6914 98.5688L76.9033 99.8142C76.8463 99.858 76.7792 99.8868 76.7081 99.8978Z" fill="black"/>
<path d="M78.2696 102.891C78.1936 102.892 78.1185 102.875 78.0506 102.841C77.9827 102.807 77.9239 102.757 77.8792 102.695C77.8129 102.592 77.7884 102.467 77.8109 102.346C77.8333 102.225 77.901 102.118 78.0001 102.045L80.3885 100.418C80.439 100.383 80.496 100.358 80.5562 100.345C80.6164 100.332 80.6786 100.332 80.7391 100.343C80.7996 100.354 80.8573 100.377 80.9088 100.411C80.9603 100.445 81.0046 100.488 81.0391 100.539C81.1049 100.641 81.1291 100.765 81.1066 100.884C81.0841 101.003 81.0167 101.109 80.9183 101.181L78.5298 102.816C78.4524 102.866 78.3618 102.892 78.2696 102.891Z" fill="black"/>
<path d="M79.8403 106.571C79.7348 106.574 79.6319 106.538 79.5522 106.468C79.4564 106.392 79.3949 106.28 79.3809 106.159C79.367 106.037 79.4018 105.914 79.4778 105.818L81.6154 103.179C81.693 103.082 81.8056 103.021 81.9285 103.008C82.0514 102.995 82.1744 103.031 82.2706 103.109C82.3667 103.186 82.428 103.299 82.4411 103.422C82.4542 103.545 82.4179 103.668 82.3403 103.764L80.2027 106.403C80.1585 106.457 80.1031 106.499 80.0404 106.528C79.9777 106.557 79.9093 106.572 79.8403 106.571Z" fill="black"/>
<path d="M81.4478 111.162C81.3956 111.171 81.3421 111.171 81.2899 111.162C81.174 111.12 81.0796 111.034 81.0273 110.922C80.9751 110.81 80.9692 110.683 81.011 110.567L82.5259 106.441C82.5475 106.383 82.5804 106.33 82.6226 106.285C82.6648 106.241 82.7154 106.205 82.7716 106.179C82.8278 106.154 82.8884 106.141 82.95 106.139C83.0115 106.138 83.0727 106.149 83.13 106.171C83.2441 106.215 83.3364 106.302 83.3869 106.413C83.4373 106.524 83.4419 106.651 83.3995 106.766L81.8846 110.892C81.8454 110.974 81.7833 111.043 81.7059 111.091C81.6284 111.139 81.5388 111.163 81.4478 111.162Z" fill="black"/>
<path d="M84.106 116.171H84.0502C83.9284 116.157 83.8171 116.095 83.7405 116C83.6639 115.904 83.6283 115.782 83.6413 115.66L84.4034 108.866C84.4091 108.805 84.4271 108.746 84.4561 108.693C84.4851 108.639 84.5246 108.592 84.5723 108.553C84.62 108.515 84.6749 108.487 84.7337 108.471C84.7925 108.454 84.854 108.45 84.9146 108.457C85.0364 108.471 85.1477 108.533 85.2243 108.629C85.3009 108.724 85.3365 108.847 85.3235 108.968L84.5614 115.762C84.5499 115.875 84.4968 115.979 84.4126 116.054C84.3285 116.13 84.2191 116.172 84.106 116.171Z" fill="black"/>
<path d="M87.5914 112.11C87.4768 112.11 87.3662 112.067 87.2818 111.99C87.1974 111.912 87.1453 111.806 87.136 111.692C86.8572 108.903 86.7178 107.417 86.7178 107.324C86.7178 107.2 86.7667 107.082 86.8539 106.995C86.941 106.908 87.0592 106.859 87.1825 106.859C87.3034 106.861 87.4189 106.91 87.5053 106.994C87.5917 107.079 87.6424 107.193 87.6471 107.314C87.6471 107.5 87.8981 109.982 88.0561 111.608C88.0625 111.669 88.0566 111.73 88.0389 111.788C88.0212 111.846 87.992 111.9 87.953 111.947C87.914 111.994 87.866 112.033 87.8119 112.06C87.7578 112.088 87.6986 112.105 87.6378 112.11H87.5914Z" fill="black"/>
<path d="M90.0264 109.08C89.9205 109.08 89.8177 109.045 89.7349 108.979C89.6521 108.913 89.5943 108.821 89.571 108.717L88.6416 104.675C88.6279 104.615 88.6262 104.553 88.6366 104.492C88.6469 104.432 88.6692 104.374 88.702 104.322C88.7348 104.27 88.7776 104.226 88.8279 104.19C88.8781 104.155 88.9348 104.13 88.9948 104.117C89.054 104.103 89.1154 104.102 89.1753 104.112C89.2351 104.123 89.2923 104.145 89.3434 104.178C89.3945 104.211 89.4385 104.254 89.4728 104.304C89.5071 104.354 89.531 104.411 89.5431 104.47L90.4725 108.513C90.4875 108.572 90.4905 108.633 90.4812 108.693C90.4719 108.752 90.4505 108.81 90.4183 108.861C90.3862 108.912 90.3439 108.957 90.2941 108.991C90.2443 109.025 90.188 109.049 90.1286 109.061L90.0264 109.08Z" fill="black"/>
<path d="M92.3123 106.311C92.2093 106.311 92.1092 106.277 92.027 106.215C91.9449 106.153 91.8851 106.066 91.8569 105.967L90.8625 102.249C90.8308 102.13 90.8471 102.003 90.9079 101.895C90.9687 101.787 91.0691 101.708 91.1877 101.673C91.2469 101.658 91.3086 101.654 91.3691 101.663C91.4297 101.671 91.488 101.692 91.5406 101.723C91.5933 101.754 91.6393 101.795 91.6761 101.844C91.7128 101.893 91.7395 101.948 91.7546 102.008L92.7584 105.725C92.7897 105.843 92.7731 105.969 92.7122 106.075C92.6513 106.182 92.551 106.259 92.4331 106.292L92.3123 106.311Z" fill="black"/>
<path d="M94.7286 103.308C94.6296 103.308 94.5333 103.276 94.4533 103.217C94.3733 103.159 94.3135 103.077 94.2825 102.983L93.1486 99.3214C93.1301 99.2634 93.1233 99.2024 93.1288 99.1417C93.1342 99.0811 93.1518 99.0222 93.1803 98.9685C93.2089 98.9148 93.248 98.8674 93.2952 98.829C93.3425 98.7907 93.3969 98.7621 93.4553 98.7452C93.5127 98.7264 93.5732 98.7193 93.6333 98.7241C93.6934 98.729 93.752 98.7457 93.8056 98.7734C93.8592 98.801 93.9068 98.8391 93.9456 98.8853C93.9844 98.9315 94.0136 98.985 94.0315 99.0426L95.1747 102.704C95.2099 102.823 95.1975 102.95 95.1402 103.059C95.0829 103.169 94.9853 103.251 94.868 103.29C94.8232 103.305 94.7758 103.311 94.7286 103.308Z" fill="black"/>
<path d="M97.0055 100.846C96.9076 100.846 96.8121 100.815 96.7323 100.758C96.6524 100.702 96.592 100.622 96.5594 100.53L95.2397 96.5799C95.216 96.4687 95.234 96.3526 95.2901 96.2537C95.3463 96.1548 95.4368 96.08 95.5444 96.0433C95.6521 96.0067 95.7694 96.0108 95.8743 96.0549C95.9791 96.0989 96.0641 96.1799 96.1133 96.2825L97.4423 100.232C97.4626 100.29 97.4713 100.35 97.4678 100.411C97.4643 100.472 97.4486 100.531 97.4218 100.586C97.3949 100.64 97.3574 100.689 97.3114 100.729C97.2655 100.769 97.212 100.799 97.1542 100.818L97.0055 100.846Z" fill="black"/>
<path d="M99.2455 97.658C99.15 97.6579 99.0569 97.6284 98.9787 97.5736C98.9005 97.5187 98.8412 97.4411 98.8087 97.3513L97.5169 93.7267C97.4751 93.6109 97.4809 93.4831 97.5332 93.3716C97.5855 93.2601 97.6799 93.1739 97.7957 93.1319C97.853 93.1099 97.9141 93.0997 97.9754 93.1019C98.0367 93.104 98.097 93.1186 98.1525 93.1446C98.2081 93.1707 98.2578 93.2076 98.2987 93.2534C98.3396 93.2991 98.3708 93.3526 98.3905 93.4107L99.6823 97.0353C99.7242 97.1511 99.7183 97.2789 99.666 97.3904C99.6138 97.5019 99.5193 97.5881 99.4035 97.6301L99.2455 97.658Z" fill="black"/>
<path d="M101.439 94.7395C101.344 94.7389 101.253 94.7091 101.176 94.6542C101.1 94.5992 101.042 94.5219 101.011 94.4328L99.7472 90.9012C99.7251 90.844 99.7149 90.7829 99.7171 90.7216C99.7193 90.6602 99.7338 90.6 99.7598 90.5445C99.7859 90.4889 99.8229 90.4392 99.8686 90.3983C99.9143 90.3574 99.9679 90.3262 100.026 90.3065C100.142 90.2646 100.27 90.2705 100.381 90.3227C100.493 90.375 100.579 90.4694 100.621 90.5853L101.903 94.1076C101.926 94.1649 101.936 94.2261 101.935 94.2876C101.934 94.3491 101.92 94.4098 101.895 94.466C101.87 94.5222 101.834 94.5728 101.789 94.615C101.744 94.6572 101.691 94.69 101.634 94.7117C101.571 94.7331 101.505 94.7425 101.439 94.7395Z" fill="black"/>
<path d="M103.465 92.7973C103.37 92.7972 103.276 92.7678 103.198 92.7129C103.12 92.658 103.061 92.5804 103.028 92.4906L102.647 91.3939C102.608 91.2768 102.617 91.1491 102.67 91.0381C102.724 90.927 102.819 90.8413 102.935 90.7991C103.051 90.7606 103.178 90.7692 103.287 90.8231C103.397 90.8771 103.481 90.9719 103.521 91.0873L103.902 92.1839C103.941 92.301 103.932 92.4287 103.879 92.5398C103.825 92.6509 103.73 92.7366 103.614 92.7787C103.566 92.794 103.515 92.8003 103.465 92.7973Z" fill="black"/>
<path d="M55.6676 75.892L58.0282 69.6002L43.7159 62.8901C42.7122 64.405 41.5412 66.6076 40.333 68.708C45.1888 71.6145 50.3265 74.0214 55.6676 75.892Z" fill="#DF49B5"/>
<path d="M55.6673 76.3569H55.5093C50.1338 74.4788 44.9644 72.056 40.0818 69.1264C39.981 69.0647 39.9081 68.9662 39.8787 68.8517C39.8492 68.7373 39.8653 68.6158 39.9238 68.5131L40.7788 66.9982C41.7082 65.3718 42.5446 63.8291 43.3253 62.658C43.3877 62.5658 43.4805 62.4985 43.5876 62.4679C43.6946 62.4374 43.8091 62.4454 43.9108 62.4908L58.223 69.2101C58.3299 69.259 58.4142 69.3467 58.4591 69.4553C58.5039 69.5639 58.5059 69.6855 58.4647 69.7956L56.0669 76.0502C56.0349 76.1332 55.9807 76.2057 55.9102 76.2598C55.8397 76.3139 55.7556 76.3475 55.6673 76.3569ZM40.9554 68.5502C45.5501 71.2368 50.3851 73.4894 55.3977 75.2789L57.4424 69.8235L43.8829 63.4759C43.1766 64.5818 42.4052 65.9666 41.5873 67.4257L40.9554 68.5502Z" fill="black"/>
<path d="M43.0559 68.6617C42.9709 68.662 42.8875 68.6395 42.8142 68.5966C42.7623 68.5643 42.7172 68.5221 42.6816 68.4724C42.646 68.4227 42.6206 68.3664 42.6067 68.3068C42.5929 68.2473 42.591 68.1855 42.6011 68.1252C42.6112 68.0649 42.6331 68.0072 42.6655 67.9553L44.3291 65.223C44.3902 65.1293 44.4831 65.0608 44.5906 65.0301C44.6982 64.9994 44.8132 65.0085 44.9146 65.0557C44.967 65.0863 45.0127 65.1271 45.0491 65.1757C45.0856 65.2242 45.1119 65.2796 45.1266 65.3384C45.1413 65.3973 45.1441 65.4585 45.1349 65.5185C45.1256 65.5785 45.1044 65.636 45.0726 65.6877L43.3997 68.42C43.366 68.485 43.3172 68.5408 43.2573 68.5829C43.1975 68.6249 43.1284 68.652 43.0559 68.6617Z" fill="black"/>
<path d="M45.4069 70.0652C45.3277 70.0666 45.2499 70.0439 45.1839 70.0001C45.1299 69.9711 45.0824 69.9315 45.0441 69.8836C45.0058 69.8358 44.9776 69.7807 44.9611 69.7217C44.9446 69.6627 44.9402 69.601 44.9482 69.5402C44.9561 69.4795 44.9762 69.4209 45.0073 69.3682L46.7731 66.3012C46.837 66.201 46.9368 66.1291 47.0521 66.1003C47.1674 66.0715 47.2894 66.0879 47.3929 66.1462C47.4964 66.2045 47.5737 66.3003 47.6088 66.4138C47.6439 66.5274 47.6342 66.65 47.5816 66.7566L45.8437 69.8235C45.8023 69.902 45.739 69.9666 45.6614 70.0095C45.5838 70.0525 45.4953 70.0718 45.4069 70.0652Z" fill="black"/>
<path d="M48.2412 71.5616C48.1741 71.5789 48.1038 71.5789 48.0367 71.5616C47.9817 71.5348 47.9326 71.4974 47.892 71.4516C47.8515 71.4058 47.8204 71.3525 47.8006 71.2946C47.7807 71.2368 47.7725 71.1756 47.7763 71.1145C47.7802 71.0535 47.796 70.9938 47.823 70.9389L49.4958 67.6025C49.5204 67.5435 49.5569 67.4902 49.603 67.4459C49.6491 67.4017 49.7038 67.3674 49.7637 67.3452C49.8236 67.3231 49.8875 67.3135 49.9513 67.3172C50.0151 67.3208 50.0775 67.3376 50.1345 67.3664C50.1915 67.3952 50.242 67.4355 50.2827 67.4847C50.3235 67.534 50.3537 67.5911 50.3713 67.6525C50.389 67.7139 50.3939 67.7782 50.3855 67.8416C50.3772 67.905 50.3559 67.9659 50.323 68.0207L48.6315 71.292C48.5959 71.3673 48.541 71.4318 48.4725 71.4791C48.404 71.5265 48.3242 71.5549 48.2412 71.5616Z" fill="black"/>
<path d="M51.0207 72.7139C50.9563 72.7267 50.89 72.7267 50.8255 72.7139C50.7697 72.688 50.7196 72.6512 50.6781 72.6058C50.6367 72.5604 50.6046 72.5071 50.5839 72.4492C50.5631 72.3913 50.5541 72.3298 50.5573 72.2683C50.5605 72.2069 50.5758 72.1467 50.6025 72.0912L52.2196 68.6526C52.2738 68.5416 52.3693 68.4561 52.4856 68.4145C52.6019 68.3728 52.7299 68.3782 52.8423 68.4295C52.8981 68.4554 52.9482 68.4922 52.9896 68.5376C53.0311 68.5831 53.0632 68.6363 53.0839 68.6942C53.1047 68.7522 53.1137 68.8136 53.1105 68.8751C53.1073 68.9365 53.092 68.9967 53.0653 69.0522L51.4203 72.4909C51.3773 72.5582 51.3183 72.6138 51.2486 72.6527C51.1788 72.6916 51.1006 72.7126 51.0207 72.7139Z" fill="black"/>
<path d="M53.9105 73.7733C53.8462 73.7866 53.7798 73.7866 53.7154 73.7733C53.6034 73.7226 53.5161 73.6296 53.4725 73.5146C53.429 73.3996 53.4327 73.2721 53.483 73.1599L54.8957 69.9722C54.945 69.8588 55.0373 69.7697 55.1523 69.7243C55.2674 69.679 55.3957 69.6813 55.5091 69.7306C55.6224 69.7799 55.7116 69.8722 55.7569 69.9872C55.8022 70.1022 55.8 70.2306 55.7507 70.3439L54.3288 73.5317C54.2887 73.6071 54.2283 73.6698 54.1543 73.7125C54.0804 73.7552 53.9959 73.7763 53.9105 73.7733Z" fill="black"/>
<path d="M120.649 159.851C119.703 159.894 118.758 159.761 117.861 159.461C117.363 159.267 116.917 158.96 116.558 158.565C116.198 158.17 115.935 157.697 115.788 157.184C114.283 152.258 120.956 142.063 121.244 141.636C122.907 138.485 123.344 137.333 123.344 134.145C123.344 134.022 123.393 133.903 123.48 133.816C123.567 133.729 123.686 133.68 123.809 133.68C123.931 133.683 124.048 133.732 124.135 133.819C124.221 133.906 124.271 134.022 124.273 134.145C124.273 137.463 123.818 138.792 122.043 142.11C121.95 142.249 115.296 152.398 116.68 156.905C116.785 157.288 116.978 157.641 117.245 157.935C117.511 158.228 117.843 158.455 118.214 158.597C124.868 161.385 165.565 147.268 165.983 147.119C166.099 147.08 166.226 147.089 166.335 147.143C166.445 147.197 166.529 147.292 166.569 147.407C166.589 147.465 166.598 147.526 166.595 147.588C166.591 147.649 166.576 147.709 166.549 147.764C166.522 147.82 166.485 147.869 166.439 147.91C166.393 147.951 166.339 147.982 166.281 148.002C164.803 148.531 132.006 159.851 120.649 159.851Z" fill="black"/>
<path d="M108.707 192.89C108.583 192.901 108.461 192.863 108.366 192.784C108.271 192.704 108.211 192.591 108.2 192.467C108.189 192.344 108.227 192.221 108.307 192.127C108.386 192.032 108.5 191.972 108.623 191.961C122.248 189.489 140.472 183.82 164.339 174.628C164.454 174.584 164.583 174.587 164.696 174.638C164.81 174.688 164.898 174.782 164.943 174.898C164.987 175.013 164.984 175.142 164.933 175.255C164.882 175.369 164.789 175.457 164.673 175.502C140.751 184.712 122.471 190.372 108.79 192.872L108.707 192.89Z" fill="black"/>
<path d="M195.119 66.1801C193.614 65.7154 193.409 63.6987 195.119 60.5389C196.829 57.379 199.069 54.2842 201.216 54.7396C204.208 55.3716 202.591 58.1411 200.909 61.3009C199.227 64.4608 196.625 66.6355 195.119 66.1801Z" fill="white"/>
<path d="M195.547 66.7007C195.354 66.7009 195.163 66.6727 194.98 66.6171C194.674 66.5381 194.391 66.3885 194.154 66.1803C193.916 65.972 193.731 65.711 193.613 65.4182C193.13 64.2565 193.483 62.4907 194.645 60.316C196.262 57.2676 198.725 53.7546 201.253 54.2844C201.639 54.3258 202.01 54.4597 202.333 54.6749C202.657 54.8901 202.924 55.1801 203.112 55.5204C203.744 56.8773 202.693 58.8476 201.485 61.0966L201.281 61.487C199.859 64.21 197.433 66.7007 195.547 66.7007ZM195.249 65.7713C196.383 66.1059 198.79 64.2844 200.472 61.1245L200.686 60.7342C201.736 58.7639 202.731 56.8959 202.294 55.9572C202.163 55.7536 201.986 55.583 201.778 55.4589C201.57 55.3347 201.336 55.2604 201.095 55.2416C199.571 54.9163 197.582 56.8959 195.519 60.8178C194.524 62.6766 194.171 64.2565 194.524 65.1301C194.589 65.2911 194.689 65.4351 194.818 65.5511C194.947 65.6671 195.101 65.752 195.268 65.7992L195.249 65.7713Z" fill="black"/>
<path d="M194.234 62.2221C196.056 59.1257 196.454 55.9802 195.123 55.1966C193.791 54.4129 191.235 56.2878 189.412 59.3842C187.59 62.4806 187.192 65.626 188.523 66.4097C189.855 67.1933 192.411 65.3185 194.234 62.2221Z" fill="white"/>
<path d="M189.217 67.0541C189.025 67.0542 188.834 67.026 188.65 66.9704C188.391 66.8871 188.154 66.7459 187.958 66.5575C187.762 66.3691 187.611 66.1384 187.516 65.883C186.95 64.5169 187.405 62.1656 188.687 59.7492C190.267 56.7752 193.056 54.0429 194.998 54.647C195.262 54.732 195.502 54.8769 195.7 55.0704C195.899 55.2639 196.05 55.5007 196.141 55.7622C196.699 57.1284 196.253 59.4797 194.97 61.8961C193.539 64.5633 191.104 67.0541 189.217 67.0541ZM194.431 55.4927C193.223 55.4927 191.057 57.2678 189.505 60.186C188.214 62.6303 188.009 64.6284 188.381 65.5299C188.426 65.6571 188.499 65.7729 188.593 65.8692C188.688 65.9655 188.803 66.04 188.929 66.0875C190.054 66.4314 192.461 64.6005 194.143 61.4407C195.444 58.9964 195.648 56.9983 195.277 56.0968C195.231 55.9696 195.159 55.8538 195.064 55.7575C194.969 55.6612 194.855 55.5867 194.728 55.5392C194.632 55.5088 194.532 55.4932 194.431 55.4927Z" fill="black"/>
<path d="M182.461 66.8404C180.956 66.3757 181.095 63.4389 182.768 60.3348C184.441 57.2307 187.025 54.991 188.539 55.4556C190.054 55.9203 190.352 57.6954 188.679 60.8553C187.006 64.0151 183.976 67.3051 182.461 66.8404Z" fill="white"/>
<path d="M182.758 67.3514C182.613 67.3532 182.469 67.3312 182.331 67.2863C182.072 67.203 181.835 67.0618 181.639 66.8734C181.442 66.685 181.291 66.4544 181.197 66.199C180.63 64.8328 181.086 62.4815 182.368 60.0651C183.948 57.0912 186.727 54.3588 188.679 54.9629C188.991 55.0485 189.28 55.2043 189.523 55.4185C189.766 55.6328 189.958 55.8997 190.082 56.199C190.537 57.3049 190.212 58.9313 189.097 61.0224C187.61 63.8198 184.71 67.3514 182.758 67.3514ZM188.112 55.8086C186.903 55.8086 184.738 57.5837 183.186 60.4555C181.894 62.8997 181.69 64.8979 182.061 65.7993C182.107 65.9265 182.179 66.0423 182.274 66.1386C182.369 66.2349 182.483 66.3094 182.61 66.357C183.586 66.6544 186.42 64.0428 188.279 60.5391C189.208 58.7547 189.561 57.3235 189.208 56.5057C189.133 56.3344 189.021 56.1821 188.879 56.0599C188.738 55.9377 188.571 55.8487 188.39 55.7993C188.298 55.7894 188.204 55.7926 188.112 55.8086Z" fill="black"/>
<path d="M190.658 83.9127C190.658 83.9127 181.197 80.2696 179.329 78.067C178.223 76.7566 173.056 68.857 173.056 68.857C173.056 66.4778 180.035 68.5224 182.154 72.212C182.154 72.212 193.595 70.2696 200.249 75.0001" fill="white"/>
<path d="M190.658 84.3773C190.603 84.3862 190.546 84.3862 190.491 84.3773C190.101 84.2286 180.9 80.6598 178.967 78.3736C177.87 77.0632 172.879 69.4423 172.666 69.0799C172.613 69.007 172.587 68.9186 172.591 68.829C172.588 68.4991 172.703 68.179 172.914 67.9254C173.125 67.6719 173.419 67.5014 173.744 67.4442C175.714 66.9238 180.444 68.671 182.387 71.6728C184.32 71.394 194.32 70.1951 200.519 74.6096C200.617 74.6837 200.682 74.7929 200.701 74.9143C200.72 75.0356 200.692 75.1596 200.621 75.2602C200.549 75.3576 200.441 75.4228 200.321 75.4419C200.201 75.461 200.079 75.4325 199.98 75.3624C193.558 70.7899 182.322 72.6208 182.229 72.6394C182.135 72.6561 182.039 72.6426 181.954 72.6008C181.868 72.559 181.799 72.4912 181.755 72.407C180.203 69.7119 175.714 67.881 173.985 68.3364C173.66 68.4293 173.558 68.5594 173.53 68.7081C174.208 69.749 178.688 76.5613 179.682 77.7323C181.457 79.842 190.732 83.4386 190.835 83.4665C190.958 83.4887 191.067 83.5589 191.139 83.6618C191.21 83.7646 191.238 83.8916 191.216 84.0148C191.194 84.1381 191.123 84.2475 191.021 84.3189C190.918 84.3904 190.791 84.4181 190.667 84.3959L190.658 84.3773Z" fill="black"/>
<path d="M204.858 152.296C204.753 152.294 204.651 152.258 204.568 152.193C204.486 152.127 204.428 152.036 204.403 151.933L198.539 127.324C198.511 127.204 198.531 127.078 198.596 126.974C198.66 126.869 198.763 126.795 198.882 126.766C198.942 126.749 199.004 126.745 199.065 126.754C199.126 126.762 199.184 126.784 199.236 126.816C199.289 126.848 199.334 126.891 199.369 126.942C199.404 126.992 199.428 127.049 199.44 127.11L205.304 151.766C205.32 151.825 205.323 151.887 205.313 151.947C205.304 152.008 205.283 152.066 205.251 152.118C205.219 152.17 205.176 152.215 205.127 152.25C205.077 152.286 205.02 152.31 204.961 152.324L204.858 152.296Z" fill="black"/>
<path d="M190.035 168.764C189.925 168.765 189.818 168.726 189.734 168.655C189.65 168.583 189.596 168.483 189.58 168.374L182.405 128.253C182.386 128.131 182.415 128.007 182.486 127.906C182.557 127.806 182.665 127.737 182.786 127.714C182.908 127.697 183.031 127.727 183.131 127.798C183.231 127.869 183.3 127.975 183.325 128.095L190.5 168.216C190.519 168.338 190.49 168.462 190.419 168.563C190.347 168.663 190.24 168.732 190.119 168.755L190.035 168.764Z" fill="black"/>
<path d="M166.132 147.565C173 145.186 178.762 143.569 187.573 136.087C190.268 133.55 193.019 131.282 194.078 132.305C195.138 133.327 191.783 137.147 185.872 142.955C189.729 139.238 197.136 130.623 198.613 132.23C199.143 132.574 199.134 133.606 198.316 134.926C195.863 138.922 188.093 146.496 188.093 146.496C190.672 144.352 193.115 142.049 195.407 139.6C197.173 137.537 201.69 132.621 203.037 133.374C205.705 134.851 194.673 145.929 191.253 150.269C194.227 147.175 198.744 142.388 201.736 139.312C202.526 138.504 203.744 137.453 204.524 137.983C205.305 138.513 204.924 140.084 203.455 142.76C197.666 153.374 191.848 164.805 164.534 175.074C164.506 175.074 166.132 149.833 166.132 147.565Z" fill="white"/>
<path d="M164.505 175.539C164.404 175.541 164.306 175.509 164.226 175.446C164.163 175.401 164.113 175.341 164.081 175.271C164.048 175.201 164.034 175.124 164.041 175.047C164.041 174.796 165.667 149.786 165.667 147.565C165.667 147.467 165.698 147.372 165.754 147.292C165.811 147.212 165.891 147.152 165.983 147.119L167.451 146.617C173.734 144.47 179.161 142.621 187.275 135.734C190.62 132.584 193.12 130.734 194.394 131.97C194.511 132.084 194.603 132.219 194.665 132.37C194.728 132.52 194.759 132.681 194.756 132.844C194.747 133.105 194.693 133.363 194.598 133.606C196.104 132.314 197.284 131.562 198.111 131.562C198.398 131.563 198.673 131.672 198.883 131.868C199.654 132.426 199.58 133.727 198.687 135.167L198.269 135.818C200.212 133.959 202.228 132.398 203.241 132.965C203.412 133.058 203.558 133.191 203.667 133.353C203.775 133.515 203.843 133.701 203.864 133.894C204.05 134.972 203.074 136.757 201.364 139.043C202.293 138.049 203.706 136.998 204.71 137.649C205.713 138.299 205.407 140.102 203.78 143.039L203.455 143.643C197.609 154.359 191.568 165.428 164.607 175.567C164.572 175.562 164.538 175.553 164.505 175.539ZM166.587 147.9C166.494 151.246 165.277 170.335 165.016 174.387C191.039 164.443 196.977 153.615 202.693 143.141L203.028 142.537C204.663 139.535 204.459 138.513 204.245 138.374C204.031 138.234 203.167 138.504 202.07 139.628C200.212 141.552 197.73 144.145 195.416 146.58L191.587 150.558C191.5 150.638 191.385 150.683 191.266 150.683C191.148 150.683 191.033 150.638 190.946 150.558C190.855 150.479 190.799 150.368 190.789 150.248C190.778 150.129 190.815 150.01 190.89 149.917C191.717 148.866 192.962 147.454 194.394 145.827C197.935 141.812 203.278 135.753 202.972 133.95C202.966 133.899 202.948 133.85 202.919 133.808C202.89 133.766 202.85 133.731 202.804 133.708C202.228 133.383 199.357 135.641 195.76 139.842C193.512 142.242 191.115 144.498 188.585 146.599L188.418 146.766C188.26 146.868 188.167 146.933 188.093 146.924C188.003 146.918 187.918 146.887 187.845 146.834C187.773 146.782 187.717 146.71 187.684 146.627C187.654 146.541 187.649 146.449 187.669 146.36C187.688 146.271 187.732 146.19 187.795 146.125C187.879 146.05 195.537 138.541 197.944 134.647C198.641 133.504 198.613 132.733 198.371 132.575L198.288 132.5C198.246 132.467 198.193 132.45 198.139 132.454C197.033 132.454 194.264 135.047 191.689 137.649C190.351 139.127 188.604 140.892 186.475 142.993L186.215 143.253C186.127 143.339 186.007 143.387 185.883 143.385C185.76 143.383 185.642 143.332 185.555 143.244C185.469 143.155 185.422 143.036 185.423 142.912C185.425 142.788 185.476 142.67 185.565 142.584L185.788 142.37C186.578 141.589 187.498 140.632 188.474 139.582C189.449 138.532 190.184 137.807 190.974 137.008C192.6 135.205 193.855 133.56 193.855 132.779C193.855 132.649 193.855 132.593 193.78 132.565C193.186 131.989 191.215 133.253 187.916 136.348C179.654 143.374 174.152 145.251 167.777 147.426L166.587 147.9Z" fill="black"/>
<path d="M176.671 66.171C175.853 65.762 175.472 63.1877 177.154 60.0278C178.836 56.868 180.649 55.6319 182.154 56.0966C183.66 56.5613 184.171 57.6951 182.489 60.855C180.807 64.0148 177.749 66.7007 176.671 66.171Z" fill="white"/>
<path d="M176.969 66.6914C176.796 66.6927 176.625 66.6579 176.467 66.5892C176.082 66.3575 175.805 65.9834 175.695 65.5483C175.333 64.4144 175.417 62.3141 176.746 59.8141C178.446 56.6077 180.463 55.0836 182.322 55.6505C182.659 55.7258 182.973 55.8771 183.242 56.093C183.512 56.3089 183.728 56.5835 183.874 56.8958C184.255 57.8252 183.958 59.1449 182.945 61.0687C181.42 63.8568 178.604 66.6914 176.969 66.6914ZM181.541 56.4683C180.296 56.4683 178.846 57.8345 177.564 60.2509C176.374 62.4906 176.29 64.3494 176.634 65.2602C176.669 65.453 176.771 65.6274 176.922 65.7527C177.564 66.0687 180.426 63.8382 182.127 60.6319C182.991 59.0148 183.288 57.8438 183.056 57.249C182.972 57.0445 182.787 56.7564 182.127 56.5427C181.934 56.4827 181.733 56.4575 181.532 56.4683H181.541Z" fill="black"/>
<path d="M186.624 163.643C191.503 158.067 194.635 152.286 198.083 147.203C199.821 144.666 193.91 146.273 186.977 153.987C184.853 153.907 182.734 154.26 180.75 155.024C178.766 155.787 176.957 156.946 175.435 158.43" fill="white"/>
<path d="M186.625 164.108C186.512 164.109 186.403 164.069 186.318 163.996C186.226 163.914 186.169 163.799 186.161 163.676C186.152 163.552 186.192 163.431 186.272 163.336C189.386 159.608 192.21 155.647 194.72 151.487C195.742 149.898 196.699 148.392 197.703 146.914C197.797 146.795 197.869 146.66 197.917 146.515C197.062 146.375 192.675 148.281 187.322 154.266C187.273 154.32 187.213 154.363 187.145 154.39C187.077 154.418 187.004 154.429 186.931 154.424C184.878 154.359 182.834 154.708 180.918 155.449C179.002 156.19 177.255 157.307 175.779 158.736C175.689 158.811 175.573 158.848 175.456 158.841C175.339 158.835 175.229 158.784 175.148 158.699C175.067 158.614 175.02 158.502 175.019 158.385C175.017 158.268 175.059 158.154 175.138 158.067C176.678 156.561 178.505 155.379 180.51 154.592C182.515 153.805 184.657 153.429 186.811 153.485C191.941 147.807 197.238 144.74 198.586 145.799C198.837 145.994 199.162 146.478 198.502 147.435C197.498 148.903 196.55 150.4 195.537 151.989C193.002 156.178 190.149 160.167 187.006 163.922C186.961 163.98 186.903 164.027 186.837 164.059C186.771 164.091 186.698 164.108 186.625 164.108Z" fill="black"/>
<path d="M170.258 56.8772C170.176 56.8748 170.096 56.8514 170.026 56.809C169.956 56.7667 169.898 56.7069 169.858 56.6356C169.798 56.5283 169.783 56.4015 169.816 56.2831C169.849 56.1646 169.928 56.0641 170.035 56.0036C170.174 55.9199 173.557 53.959 173.018 48.6988C173.005 48.5768 173.041 48.4547 173.117 48.359C173.194 48.2632 173.305 48.2016 173.427 48.1876C173.488 48.1812 173.55 48.1869 173.609 48.2045C173.668 48.2221 173.722 48.2512 173.77 48.2901C173.817 48.329 173.857 48.3769 173.886 48.4311C173.915 48.4853 173.932 48.5447 173.938 48.6058C174.552 54.498 170.648 56.7285 170.481 56.8214C170.412 56.8584 170.336 56.8776 170.258 56.8772Z" fill="white"/>
<path d="M170.258 56.8774C170.175 56.8749 170.094 56.8514 170.022 56.8091C169.951 56.7669 169.891 56.7073 169.849 56.6358C169.792 56.5269 169.78 56.4001 169.814 56.2822C169.849 56.1643 169.928 56.0645 170.035 56.0038C170.109 56.0038 177.925 51.5428 175.89 44.9071C175.871 44.8492 175.865 44.7881 175.87 44.7275C175.875 44.6669 175.893 44.608 175.922 44.5543C175.95 44.5006 175.989 44.4531 176.036 44.4148C176.084 44.3764 176.138 44.3479 176.197 44.3309C176.254 44.311 176.316 44.3032 176.377 44.308C176.438 44.3128 176.497 44.3302 176.551 44.3589C176.605 44.3877 176.653 44.4273 176.691 44.4753C176.729 44.5232 176.757 44.5785 176.773 44.6376C179.031 51.9889 170.574 56.7194 170.481 56.8216C170.412 56.8586 170.336 56.8778 170.258 56.8774Z" fill="white"/>
</g>
<defs>
<clipPath id="clip0_203_481">
<rect width="250" height="250" fill="white"/>
</clipPath>
</defs>
</svg>
