<svg width="256" height="48" viewBox="0 0 256 48" fill="none" xmlns="http://www.w3.org/2000/svg">
<path fill-rule="evenodd" clip-rule="evenodd" d="M48 23.9911C48 17.6607 45.4799 11.5767 40.9691 7.01685C38.7698 4.79761 36.1338 3.03251 33.2183 1.82693C30.3028 0.621344 27.1676 0 24 0C20.8324 0 17.6972 0.621344 14.7817 1.82693C11.8662 3.03251 9.23016 4.79761 7.03094 7.01685C2.52009 11.5767 0 17.6607 0 23.9911C0 30.3214 2.52009 36.4055 7.03094 40.9653C9.22714 43.1896 11.8622 44.9593 14.7781 46.1681C17.694 47.3769 20.8307 48 24 48C27.1693 48 30.306 47.3769 33.2219 46.1681C36.1378 44.9593 38.7729 43.1896 40.9691 40.9653C45.4799 36.4055 48 30.3214 48 23.9911ZM32.9507 6.37909C30.8265 10.1652 23.968 15.1143 19.2217 17.1629C14.0762 19.3838 9.19423 23.5759 8.62559 27.9367C8.02246 32.6635 10.501 37.5957 11.8461 39.8626C11.5466 38.6989 11.4258 37.4962 11.4896 36.2939C11.4965 36.1647 11.5032 36.0195 11.5106 35.8595C11.6522 32.7916 12.0441 24.2999 18.6878 19.8023C25.6779 15.0702 31.2603 11.0266 32.4391 7.82688C32.6415 7.27758 32.8102 6.79751 32.9507 6.37909ZM15.4526 42.2072C15.7247 42.3349 16.0001 42.4567 16.2786 42.5724C18.7217 43.5875 21.3506 44.1108 24.0069 44.1108C26.6633 44.1108 29.2922 43.5875 31.7353 42.5724C34.1784 41.5574 36.3853 40.0715 38.2229 38.2043C42.005 34.39 44.1187 29.2957 44.1187 23.9944C44.1187 18.6932 42.005 13.5988 38.2229 9.78457C37.092 8.60688 35.8117 7.58029 34.4159 6.72797C34.1564 7.62104 34.0021 8.54232 33.9578 9.47402C33.8969 11.0754 34.0366 12.6781 34.3739 14.2466C34.471 14.3074 35.8232 14.5977 36.163 14.0036C36.4702 13.4666 36.4374 13.2385 36.4282 13.1997C36.4517 13.2875 36.7003 14.2967 35.8649 14.6517C35.3989 14.8673 34.8898 14.9802 34.3739 14.9825C34.4044 15.4823 34.5617 15.967 34.8316 16.3933C35.2806 17.0049 35.6619 17.6612 35.9689 18.351C36.3409 19.1878 36.7864 19.9918 37.3003 20.7542C37.4271 20.9578 37.5008 21.1885 37.5148 21.4262C37.5289 21.6638 37.483 21.9013 37.381 22.1177C37.2791 22.3341 37.1243 22.523 36.9301 22.6677C36.7359 22.8125 36.5083 22.9087 36.2671 22.9481C35.0951 23.2519 34.9426 23.5691 34.9426 23.5691C34.9426 23.5691 34.7692 23.7784 35.2685 24.0822C35.7678 24.3859 36.2532 24.9462 35.9065 25.4998C35.4957 25.9871 35.0005 26.4006 34.4433 26.7216C34.4433 26.7216 34.3392 26.8026 34.8663 27.4372C35.3933 28.0717 35.5597 28.3283 35.324 28.551C35.1993 28.6688 34.9875 28.7507 34.7756 28.8327C34.5865 28.9058 34.3974 28.9789 34.2699 29.0776C34.0311 29.218 33.8335 29.4161 33.6962 29.6526C33.5589 29.8891 33.4866 30.156 33.4863 30.4277C33.6498 31.3592 33.7586 32.299 33.8122 33.2426C33.8295 33.7772 33.6516 34.3005 33.31 34.7194C32.9685 35.1384 32.4855 35.426 31.9468 35.5311C30.8352 35.8701 29.6319 35.7757 28.5904 35.2678C27.5641 34.8763 24.2147 33.6612 22.4949 33.6207C20.7751 33.5802 18.6878 33.6679 17.6406 35.1463C16.5935 36.6246 15.7197 40.3577 15.5602 41.4648C15.5206 41.7117 15.4847 41.9592 15.4526 42.2072ZM36.4282 13.1997C36.4273 13.1956 36.4266 13.1936 36.4266 13.1936C36.4266 13.1936 36.4272 13.1957 36.4282 13.1997Z" fill="#3853E0"/>
<path d="M128.813 40.8H157.613V45.6H128.813V40.8Z" fill="#3853E0"/>
<path d="M64.0132 40.8H94.0132V45.6H64.0132V40.8Z" fill="#3853E0"/>
<path d="M78.5572 35.9137C75.5332 35.9137 72.7828 35.2081 70.306 33.7969C67.858 32.3569 65.9284 30.3985 64.5172 27.9217C63.106 25.4449 62.4004 22.7233 62.4004 19.7569C62.4004 16.7905 63.106 14.0689 64.5172 11.5921C65.9284 9.1153 67.858 7.1713 70.306 5.7601C72.7828 4.3201 75.5332 3.6001 78.5572 3.6001C81.5812 3.6001 84.3172 4.3201 86.7652 5.7601C89.242 7.1713 91.186 9.1153 92.5972 11.5921C94.0084 14.0689 94.714 16.7905 94.714 19.7569C94.714 22.7233 94.0084 25.4449 92.5972 27.9217C91.186 30.3985 89.242 32.3569 86.7652 33.7969C84.3172 35.2081 81.5812 35.9137 78.5572 35.9137ZM78.5572 30.3841C80.458 30.3841 82.2004 29.9377 83.7844 29.0449C85.3684 28.1521 86.6068 26.8993 87.4996 25.2865C88.4212 23.6737 88.882 21.8305 88.882 19.7569C88.882 17.6833 88.4212 15.8401 87.4996 14.2273C86.6068 12.6145 85.3684 11.3617 83.7844 10.4689C82.2004 9.5761 80.458 9.1297 78.5572 9.1297C76.6564 9.1297 74.914 9.5761 73.33 10.4689C71.7748 11.3617 70.5364 12.6145 69.6148 14.2273C68.722 15.8401 68.2756 17.6833 68.2756 19.7569C68.2756 21.8305 68.722 23.6737 69.6148 25.2865C70.5364 26.8993 71.7748 28.1521 73.33 29.0449C74.914 29.9377 76.6564 30.3841 78.5572 30.3841Z" fill="#3853E0"/>
<path d="M99.8768 4.2913H105.709V17.5537H106.054L117.373 4.2913H124.414V4.6369L113.226 17.4241L125.581 34.8769V35.2225H118.453L109.208 22.0465L105.709 26.1505V35.2225H99.8768V4.2913Z" fill="#3853E0"/>
<path d="M142.3 35.9137C139.276 35.9137 136.525 35.2081 134.048 33.7969C131.6 32.3569 129.671 30.3985 128.26 27.9217C126.848 25.4449 126.143 22.7233 126.143 19.7569C126.143 16.7905 126.848 14.0689 128.26 11.5921C129.671 9.1153 131.6 7.1713 134.048 5.7601C136.525 4.3201 139.276 3.6001 142.3 3.6001C145.324 3.6001 148.06 4.3201 150.508 5.7601C152.984 7.1713 154.928 9.1153 156.34 11.5921C157.751 14.0689 158.456 16.7905 158.456 19.7569C158.456 22.7233 157.751 25.4449 156.34 27.9217C154.928 30.3985 152.984 32.3569 150.508 33.7969C148.06 35.2081 145.324 35.9137 142.3 35.9137ZM142.3 30.3841C144.2 30.3841 145.943 29.9377 147.527 29.0449C149.111 28.1521 150.349 26.8993 151.242 25.2865C152.164 23.6737 152.624 21.8305 152.624 19.7569C152.624 17.6833 152.164 15.8401 151.242 14.2273C150.349 12.6145 149.111 11.3617 147.527 10.4689C145.943 9.5761 144.2 9.1297 142.3 9.1297C140.399 9.1297 138.656 9.5761 137.072 10.4689C135.517 11.3617 134.279 12.6145 133.357 14.2273C132.464 15.8401 132.018 17.6833 132.018 19.7569C132.018 21.8305 132.464 23.6737 133.357 25.2865C134.279 26.8993 135.517 28.1521 137.072 29.0449C138.656 29.9377 140.399 30.3841 142.3 30.3841Z" fill="#3853E0"/>
<path d="M172.951 35.9137C170.243 35.9137 167.853 35.1505 165.779 33.6241C163.706 32.0977 162.251 29.9377 161.416 27.1441L166.903 24.9841C167.335 26.6257 168.069 27.9361 169.106 28.9153C170.143 29.8945 171.439 30.3841 172.994 30.3841C174.29 30.3841 175.399 30.0673 176.32 29.4337C177.242 28.7713 177.703 27.8641 177.703 26.7121C177.703 25.5601 177.256 24.6241 176.363 23.9041C175.499 23.1553 173.944 22.3633 171.698 21.5281L169.797 20.8369C167.81 20.1457 166.111 19.0945 164.699 17.6833C163.288 16.2433 162.583 14.4433 162.583 12.2833C162.583 10.6705 163 9.2017 163.835 7.8769C164.671 6.5521 165.851 5.5153 167.378 4.7665C168.904 3.9889 170.632 3.6001 172.562 3.6001C175.355 3.6001 177.559 4.2625 179.171 5.5873C180.784 6.8833 181.893 8.4097 182.498 10.1665L177.357 12.3265C177.04 11.3761 176.479 10.5841 175.672 9.9505C174.895 9.2881 173.887 8.9569 172.648 8.9569C171.381 8.9569 170.33 9.2593 169.495 9.8641C168.688 10.4401 168.285 11.2033 168.285 12.1537C168.285 13.0753 168.674 13.8673 169.451 14.5297C170.229 15.1633 171.511 15.7825 173.296 16.3873L175.24 17.0353C177.919 17.9569 179.963 19.1809 181.375 20.7073C182.815 22.2049 183.535 24.1777 183.535 26.6257C183.535 28.6417 183.016 30.3553 181.979 31.7665C180.943 33.1489 179.603 34.1857 177.962 34.8769C176.349 35.5681 174.679 35.9137 172.951 35.9137Z" fill="#3853E0"/>
<path d="M188.698 4.2913H194.53V16.6465H207.534V4.2913H213.366V35.2225H207.534V22.1761H194.53V35.2225H188.698V4.2913Z" fill="#3853E0"/>
<path d="M220.106 4.2913H225.938V17.5537H226.283L237.602 4.2913H244.643V4.6369L233.454 17.4241L245.81 34.8769V35.2225H238.682L229.437 22.0465L225.938 26.1505V35.2225H220.106V4.2913Z" fill="#3853E0"/>
<path d="M249.235 4.2913H255.067V35.2225H249.235V4.2913Z" fill="#3853E0"/>
</svg>
