<svg width="30" height="30" viewBox="0 0 30 30" fill="none" xmlns="http://www.w3.org/2000/svg">
<path d="M24.8775 13.871H7.84116L11.7789 9.92929C12.2183 9.48942 12.22 8.77457 11.7827 8.33261C11.3454 7.89059 10.6347 7.88896 10.1953 8.32877L4.33025 14.1997L4.32924 14.2008C3.89098 14.6407 3.88957 15.3578 4.32912 15.7992L4.33013 15.8003L10.1952 21.6712C10.6345 22.111 11.3452 22.1095 11.7826 21.6674C12.2199 21.2254 12.2182 20.5106 11.7788 20.0707L7.84116 16.129H24.8775C25.4975 16.129 26 15.6236 26 15C26 14.3764 25.4975 13.871 24.8775 13.871Z" fill="white"/>
</svg>
