<svg width="24" height="24" viewBox="0 0 24 24" fill="none" xmlns="http://www.w3.org/2000/svg">
<path d="M12 1C9.18002 1.00804 6.47084 2.0988 4.432 4.047V2.1C4.432 1.80826 4.31611 1.52847 4.10982 1.32218C3.90353 1.11589 3.62374 1 3.332 1C3.04026 1 2.76047 1.11589 2.55418 1.32218C2.34789 1.52847 2.232 1.80826 2.232 2.1V7.05C2.232 7.34174 2.34789 7.62153 2.55418 7.82782C2.76047 8.03411 3.04026 8.15 3.332 8.15H8.282C8.57374 8.15 8.85352 8.03411 9.05981 7.82782C9.2661 7.62153 9.382 7.34174 9.382 7.05C9.382 6.75826 9.2661 6.47847 9.05981 6.27218C8.85352 6.06589 8.57374 5.95 8.282 5.95H5.642C7.05635 4.47199 8.94145 3.53292 10.9732 3.29424C13.0049 3.05555 15.0563 3.53217 16.7747 4.64215C18.4931 5.75212 19.7711 7.4261 20.389 9.37627C21.0068 11.3264 20.9259 13.4309 20.1603 15.3279C19.3946 17.2249 17.9919 18.7959 16.1934 19.7707C14.3949 20.7456 12.3129 21.0634 10.3055 20.6695C8.29809 20.2756 6.49061 19.1946 5.19385 17.6124C3.89709 16.0302 3.19206 14.0457 3.2 12C3.2 11.7083 3.08411 11.4285 2.87782 11.2222C2.67153 11.0159 2.39174 10.9 2.1 10.9C1.80826 10.9 1.52847 11.0159 1.32218 11.2222C1.11589 11.4285 1 11.7083 1 12C1 14.1756 1.64514 16.3023 2.85383 18.1113C4.06253 19.9202 5.78049 21.3301 7.79048 22.1627C9.80047 22.9952 12.0122 23.2131 14.146 22.7886C16.2798 22.3642 18.2398 21.3165 19.7782 19.7782C21.3165 18.2398 22.3642 16.2798 22.7886 14.146C23.2131 12.0122 22.9952 9.80047 22.1627 7.79048C21.3301 5.78049 19.9202 4.06253 18.1113 2.85383C16.3023 1.64514 14.1756 1 12 1ZM12 7.6C11.7083 7.6 11.4285 7.71589 11.2222 7.92218C11.0159 8.12847 10.9 8.40826 10.9 8.7V12C10.9 12.2917 11.0159 12.5715 11.2222 12.7778C11.4285 12.9841 11.7083 13.1 12 13.1H14.2C14.4917 13.1 14.7715 12.9841 14.9778 12.7778C15.1841 12.5715 15.3 12.2917 15.3 12C15.3 11.7083 15.1841 11.4285 14.9778 11.2222C14.7715 11.0159 14.4917 10.9 14.2 10.9H13.1V8.7C13.1 8.40826 12.9841 8.12847 12.7778 7.92218C12.5715 7.71589 12.2917 7.6 12 7.6Z" fill="#3853E0"/>
</svg>
