<svg width="30" height="30" viewBox="0 0 30 30" fill="none" xmlns="http://www.w3.org/2000/svg">
<path d="M26.184 5.50438L18.984 3.06144H18.9C18.8441 3.05572 18.7879 3.05572 18.732 3.06144H18.456H18.3H18.216L11.4 5.4433L4.584 3.06144C4.40354 3.00087 4.21153 2.98479 4.02377 3.01452C3.836 3.04425 3.65786 3.11894 3.504 3.23244C3.34891 3.34484 3.22232 3.49318 3.13469 3.66522C3.04705 3.83726 3.00088 4.02805 3 4.22183V23.3224C2.99935 23.5785 3.07779 23.8283 3.22421 24.0365C3.37064 24.2447 3.57766 24.4008 3.816 24.4828L11.016 26.9257C11.2577 27.006 11.5183 27.006 11.76 26.9257L18.6 24.6049L25.416 26.9868C25.5434 27.0044 25.6726 27.0044 25.8 26.9868C26.0509 26.9904 26.2958 26.9087 26.496 26.7547C26.6511 26.6423 26.7777 26.494 26.8653 26.3219C26.953 26.1499 26.9991 25.9591 27 25.7653V6.66477C27.0006 6.4087 26.9222 6.15889 26.7758 5.95067C26.6294 5.74244 26.4223 5.58632 26.184 5.50438ZM10.2 24.0675L5.4 22.4429V5.91968L10.2 7.54423V24.0675ZM17.4 22.4429L12.6 24.0675V7.54423L17.4 5.91968V22.4429ZM24.6 24.0675L19.8 22.4429V5.91968L24.6 7.54423V24.0675Z" fill="#43BCCE"/>
</svg>
