<svg width="24" height="24" viewBox="0 0 24 24" fill="none" xmlns="http://www.w3.org/2000/svg">
<path d="M10.75 5.12596C10.75 3.45294 9.2975 2 7.625 2C5.9525 2 4.5 3.45294 4.5 5.12596C4.5 6.79897 5.9525 8.25191 7.625 8.25191C9.2975 8.25191 10.75 6.79897 10.75 5.12596ZM12.9375 17.0046C12.9375 12.0031 10.3425 9.50229 7.46875 9.50229C4.595 9.50229 2 12.0031 2 17.0046C2 20.4306 12.9375 20.4306 12.9375 17.0046ZM16.6875 10.6839C18.36 10.6839 19.8125 9.23096 19.8125 7.55795C19.8125 5.88494 18.36 4.43199 16.6875 4.43199C15.015 4.43199 13.5625 5.88494 13.5625 7.55795C13.5625 9.23096 15.015 10.6839 16.6875 10.6839ZM16.5312 11.9343C15.6675 11.9343 14.84 12.1881 14.09 12.6408C14.5437 13.8611 14.8125 15.3078 14.8125 17.0046C14.8125 18.6889 13.69 20.0005 11.7638 20.7507C14.1525 22.7739 22 22.3425 22 19.4366C22 14.4351 19.405 11.9343 16.5312 11.9343Z" fill="#696969"/>
</svg>
