<svg width="30" height="30" viewBox="0 0 30 30" fill="none" xmlns="http://www.w3.org/2000/svg">
<path d="M4.16129 7.87726H5.56613C6.0577 9.35137 7.43707 10.4244 9.07712 10.4244C10.7141 10.4244 12.0905 9.35137 12.581 7.87726H25.8387C26.4798 7.87726 27 7.35748 27 6.71597C27 6.07447 26.4798 5.55468 25.8387 5.55468H12.5818C12.092 4.07638 10.715 3 9.07711 3C7.4362 3 6.05627 4.07638 5.56536 5.55468H4.16129C3.52016 5.55468 3 6.07447 3 6.71597C3 7.35748 3.52017 7.87726 4.16129 7.87726ZM9.07712 5.32258C9.84148 5.32258 10.463 5.94783 10.463 6.71597C10.463 7.47996 9.84149 8.10181 9.07712 8.10181C8.30897 8.10181 7.68372 7.47996 7.68372 6.71597C7.68372 5.94783 8.30897 5.32258 9.07712 5.32258ZM25.8387 22.1303H24.4339C23.9423 20.6562 22.5629 19.5832 20.9229 19.5832C19.2859 19.5832 17.9095 20.6562 17.419 22.1303H4.16129C3.52016 22.1303 3 22.6501 3 23.2916C3 23.9331 3.52017 24.4529 4.16129 24.4529H17.419C17.9095 25.927 19.2859 27 20.9229 27C22.5629 27 23.9423 25.927 24.4339 24.4529H25.8387C26.4798 24.4529 27 23.9331 27 23.2916C27 22.6501 26.4798 22.1303 25.8387 22.1303ZM20.9229 24.6774C20.1585 24.6774 19.537 24.0556 19.537 23.2916C19.537 22.5276 20.1585 21.9057 20.9229 21.9057C21.691 21.9057 22.3163 22.5276 22.3163 23.2916C22.3163 24.0556 21.691 24.6774 20.9229 24.6774ZM25.8387 13.8548H18.5039C18.0134 12.3807 16.637 11.3077 15 11.3077C13.363 11.3077 11.9866 12.3807 11.4961 13.8548H4.16129C3.52016 13.8548 3 14.3746 3 15.0161C3 15.6576 3.52017 16.1774 4.16129 16.1774H11.4953C11.9852 17.6557 13.3621 18.7321 15 18.7321C16.6379 18.7321 18.0148 17.6557 18.5047 16.1774H25.8387C26.4798 16.1774 27 15.6576 27 15.0161C27 14.3746 26.4798 13.8548 25.8387 13.8548ZM15 16.4095C14.2356 16.4095 13.6142 15.7843 13.6142 15.0161C13.6142 14.2521 14.2356 13.6303 15 13.6303C15.7644 13.6303 16.3858 14.2521 16.3858 15.0161C16.3858 15.7843 15.7644 16.4095 15 16.4095Z" fill="#43BCCE"/>
</svg>
