<svg width="24" height="24" viewBox="0 0 24 24" fill="none" xmlns="http://www.w3.org/2000/svg">
<path fill-rule="evenodd" clip-rule="evenodd" d="M7.04672 3.31362C8.55533 2.45324 10.262 2.00051 11.9987 2C13.5233 2.0002 15.0277 2.34901 16.3969 3.01977C17.766 3.69053 18.9637 4.66547 19.8983 5.87006C20.8328 7.07465 21.4796 8.477 21.7891 9.96988C22.0987 11.4628 22.0627 13.0066 21.6841 14.4835C21.3054 15.9604 20.5941 17.3311 19.6045 18.4909C18.6149 19.6507 17.3731 20.5689 15.9743 21.1752C14.5754 21.7815 13.0564 22.06 11.5334 21.9892C10.0104 21.9185 8.52377 21.5004 7.18712 20.7671L4.31114 21.5873C4.04734 21.6628 3.76811 21.6664 3.50244 21.5977C3.23677 21.5289 2.99434 21.3904 2.8003 21.1963C2.60626 21.0023 2.46767 20.7598 2.39893 20.4942C2.33018 20.2285 2.33378 19.9493 2.40935 19.6855L3.23181 16.8103C2.39683 15.2874 1.97276 13.5734 2.00136 11.837C2.02995 10.1005 2.51021 8.40139 3.39487 6.90689C4.27954 5.41239 5.53811 4.17401 7.04672 3.31362ZM7.7135 13.427C8.50237 13.427 9.14188 12.7875 9.14188 11.9987C9.14188 11.2098 8.50237 10.5703 7.7135 10.5703C6.92462 10.5703 6.28511 11.2098 6.28511 11.9987C6.28511 12.7875 6.92462 13.427 7.7135 13.427ZM11.9987 13.4271C12.7875 13.4271 13.4271 12.7876 13.4271 11.9987C13.4271 11.2098 12.7875 10.5703 11.9987 10.5703C11.2098 10.5703 10.5703 11.2098 10.5703 11.9987C10.5703 12.7876 11.2098 13.4271 11.9987 13.4271ZM17.7122 11.9987C17.7122 12.7876 17.0727 13.4271 16.2838 13.4271C15.4949 13.4271 14.8554 12.7876 14.8554 11.9987C14.8554 11.2098 15.4949 10.5703 16.2838 10.5703C17.0727 10.5703 17.7122 11.2098 17.7122 11.9987Z" fill="#696969"/>
</svg>
