<svg width="30" height="30" viewBox="0 0 30 30" fill="none" xmlns="http://www.w3.org/2000/svg">
<path d="M12.9998 25V17H4.99976C4.46932 17 3.96062 16.7893 3.58554 16.4142C3.21047 16.0391 2.99976 15.5304 2.99976 15C2.99976 14.4696 3.21047 13.9609 3.58554 13.5858C3.96062 13.2107 4.46932 13 4.99976 13H12.9998V5C12.9998 4.46957 13.2105 3.96086 13.5855 3.58579C13.9606 3.21071 14.4693 3 14.9998 3C15.5302 3 16.0389 3.21071 16.414 3.58579C16.789 3.96086 16.9998 4.46957 16.9998 5V13H24.9998C25.5302 13 26.0389 13.2107 26.414 13.5858C26.789 13.9609 26.9998 14.4696 26.9998 15C26.9998 15.5304 26.789 16.0391 26.414 16.4142C26.0389 16.7893 25.5302 17 24.9998 17H16.9998V25C16.9998 25.5304 16.789 26.0391 16.414 26.4142C16.0389 26.7893 15.5302 27 14.9998 27C14.4693 27 13.9606 26.7893 13.5855 26.4142C13.2105 26.0391 12.9998 25.5304 12.9998 25Z" fill="white"/>
</svg>
