<svg width="24" height="24" viewBox="0 0 24 24" fill="none" xmlns="http://www.w3.org/2000/svg">
<path d="M7.9575 12.8938L16.9243 20.8007C17.028 20.8922 17.1537 20.9551 17.289 20.9833C17.4243 21.0115 17.5646 21.0039 17.6961 20.9614C17.8277 20.9189 17.9459 20.8429 18.0393 20.7408C18.1327 20.6388 18.198 20.5141 18.2289 20.3792L21.9798 3.97798C22.0123 3.83617 22.0055 3.68819 21.9602 3.54997C21.9149 3.41176 21.8328 3.28855 21.7228 3.19362C21.6127 3.0987 21.479 3.03566 21.3358 3.01129C21.1927 2.98693 21.0456 3.00216 20.9105 3.05536L2.50607 10.3005C2.34567 10.3636 2.20999 10.4771 2.11933 10.624C2.02866 10.7708 1.98789 10.9431 2.00312 11.1152C2.01835 11.2872 2.08875 11.4496 2.20379 11.5782C2.31884 11.7068 2.47234 11.7945 2.64132 11.8284L7.9575 12.8938ZM7.9575 12.8938L21.5309 3.07072M7.9575 12.8938L7.9575 19.4002C7.9575 19.5583 8.00429 19.7129 8.09195 19.8443C8.17961 19.9758 8.30421 20.0782 8.44998 20.1388C8.59576 20.1993 8.75616 20.2151 8.91092 20.1842C9.06567 20.1534 9.20782 20.0773 9.31939 19.9655L12.4357 16.8427" stroke="#696969" stroke-width="2.2" stroke-linecap="round" stroke-linejoin="round"/>
</svg>
