<svg width="92" height="20" viewBox="0 0 92 20" fill="none" xmlns="http://www.w3.org/2000/svg">
<path d="M31.625 17.7144H45.3393V20.0001H31.625V17.7144Z" fill="#43BCCE"/>
<path d="M0.767578 17.7144H15.0533V20.0001H0.767578V17.7144Z" fill="#43BCCE"/>
<path d="M7.69372 15.3874C6.25372 15.3874 4.94401 15.0514 3.76458 14.3794C2.59886 13.6937 1.68 12.7612 1.008 11.5817C0.336 10.4023 0 9.1063 0 7.69372C0 6.28115 0.336 4.98515 1.008 3.80572C1.68 2.62629 2.59886 1.70057 3.76458 1.02857C4.94401 0.342858 6.25372 0 7.69372 0C9.13373 0 10.4366 0.342858 11.6023 1.02857C12.7817 1.70057 13.7074 2.62629 14.3794 3.80572C15.0514 4.98515 15.3874 6.28115 15.3874 7.69372C15.3874 9.1063 15.0514 10.4023 14.3794 11.5817C13.7074 12.7612 12.7817 13.6937 11.6023 14.3794C10.4366 15.0514 9.13373 15.3874 7.69372 15.3874ZM7.69372 12.7543C8.59887 12.7543 9.42858 12.5417 10.1829 12.1166C10.9372 11.6914 11.5269 11.0949 11.952 10.3269C12.3909 9.55887 12.6103 8.68115 12.6103 7.69372C12.6103 6.70629 12.3909 5.82858 11.952 5.06058C11.5269 4.29258 10.9372 3.696 10.1829 3.27086C9.42858 2.84572 8.59887 2.63315 7.69372 2.63315C6.78858 2.63315 5.95886 2.84572 5.20458 3.27086C4.464 3.696 3.87429 4.29258 3.43543 5.06058C3.01029 5.82858 2.79772 6.70629 2.79772 7.69372C2.79772 8.68115 3.01029 9.55887 3.43543 10.3269C3.87429 11.0949 4.464 11.6914 5.20458 12.1166C5.95886 12.5417 6.78858 12.7543 7.69372 12.7543Z" fill="#43BCCE"/>
<path d="M17.8459 0.329144H20.6231V6.64458H20.7877L26.1774 0.329144H29.5305V0.493716L24.2025 6.58286L30.086 14.8937V15.0583H26.6917L22.2894 8.78401L20.6231 10.7383V15.0583H17.8459V0.329144Z" fill="#43BCCE"/>
<path d="M38.0473 15.3874C36.6073 15.3874 35.2976 15.0514 34.1182 14.3794C32.9525 13.6937 32.0336 12.7612 31.3616 11.5817C30.6896 10.4023 30.3536 9.1063 30.3536 7.69372C30.3536 6.28115 30.6896 4.98515 31.3616 3.80572C32.0336 2.62629 32.9525 1.70057 34.1182 1.02857C35.2976 0.342858 36.6073 0 38.0473 0C39.4873 0 40.7902 0.342858 41.9559 1.02857C43.1353 1.70057 44.0611 2.62629 44.7331 3.80572C45.4051 4.98515 45.7411 6.28115 45.7411 7.69372C45.7411 9.1063 45.4051 10.4023 44.7331 11.5817C44.0611 12.7612 43.1353 13.6937 41.9559 14.3794C40.7902 15.0514 39.4873 15.3874 38.0473 15.3874ZM38.0473 12.7543C38.9525 12.7543 39.7822 12.5417 40.5365 12.1166C41.2908 11.6914 41.8805 11.0949 42.3056 10.3269C42.7445 9.55887 42.9639 8.68115 42.9639 7.69372C42.9639 6.70629 42.7445 5.82858 42.3056 5.06058C41.8805 4.29258 41.2908 3.696 40.5365 3.27086C39.7822 2.84572 38.9525 2.63315 38.0473 2.63315C37.1422 2.63315 36.3125 2.84572 35.5582 3.27086C34.8176 3.696 34.2279 4.29258 33.789 5.06058C33.3639 5.82858 33.1513 6.70629 33.1513 7.69372C33.1513 8.68115 33.3639 9.55887 33.789 10.3269C34.2279 11.0949 34.8176 11.6914 35.5582 12.1166C36.3125 12.5417 37.1422 12.7543 38.0473 12.7543Z" fill="#43BCCE"/>
<path d="M52.643 15.3874C51.3538 15.3874 50.2156 15.024 49.2281 14.2972C48.2407 13.5703 47.5481 12.5417 47.1504 11.2114L49.763 10.1829C49.9687 10.9646 50.3184 11.5886 50.8121 12.0549C51.3058 12.5212 51.923 12.7543 52.6636 12.7543C53.2807 12.7543 53.8087 12.6034 54.2476 12.3017C54.6864 11.9863 54.9058 11.5543 54.9058 11.0057C54.9058 10.4572 54.6933 10.0114 54.2681 9.66858C53.8567 9.31201 53.1161 8.93487 52.0464 8.53715L51.1413 8.20801C50.195 7.87887 49.3858 7.37829 48.7138 6.70629C48.0418 6.02058 47.7058 5.16343 47.7058 4.13486C47.7058 3.36686 47.9047 2.66743 48.3024 2.03657C48.7001 1.40572 49.2624 0.912001 49.9893 0.555429C50.7161 0.185143 51.539 0 52.4578 0C53.7881 0 54.8373 0.315429 55.6053 0.946287C56.3733 1.56343 56.9013 2.29029 57.1893 3.12686L54.7413 4.15543C54.5904 3.70286 54.323 3.32572 53.939 3.024C53.5687 2.70857 53.0887 2.55086 52.499 2.55086C51.8956 2.55086 51.395 2.69486 50.9973 2.98286C50.6133 3.25715 50.4213 3.62058 50.4213 4.07315C50.4213 4.51201 50.6064 4.88915 50.9767 5.20458C51.347 5.50629 51.9573 5.80115 52.8076 6.08915L53.7333 6.39772C55.0087 6.83658 55.9824 7.41944 56.6544 8.14629C57.3401 8.85944 57.683 9.79887 57.683 10.9646C57.683 11.9246 57.4361 12.7406 56.9424 13.4126C56.4487 14.0709 55.811 14.5646 55.0293 14.8937C54.2613 15.2229 53.4658 15.3874 52.643 15.3874Z" fill="#43BCCE"/>
<path d="M60.142 0.329144H62.9191V6.21258H69.1111V0.329144H71.8883V15.0583H69.1111V8.84573H62.9191V15.0583H60.142V0.329144Z" fill="#43BCCE"/>
<path d="M75.0978 0.329144H77.8749V6.64458H78.0395L83.4292 0.329144H86.7824V0.493716L81.4544 6.58286L87.3378 14.8937V15.0583H83.9435L79.5412 8.78401L77.8749 10.7383V15.0583H75.0978V0.329144Z" fill="#43BCCE"/>
<path d="M88.9688 0.329144H91.7459V15.0583H88.9688V0.329144Z" fill="#43BCCE"/>
</svg>
