<svg width="24" height="24" viewBox="0 0 24 24" fill="none" xmlns="http://www.w3.org/2000/svg">
<path fill-rule="evenodd" clip-rule="evenodd" d="M16.7736 19.0887C17.0426 18.0823 16.9012 17.0103 16.3803 16.1081C15.8595 15.2059 15.0018 14.5474 13.9957 14.2772C12.9893 14.008 11.9171 14.1493 11.0149 14.6702C10.1127 15.1911 9.45421 16.0489 9.18419 17.0551C8.91493 18.0615 9.05628 19.1337 9.57718 20.0359C10.0981 20.9381 10.9559 21.5966 11.9621 21.8666C12.9685 22.1357 14.0405 21.9942 14.9427 21.4734C15.8449 20.9525 16.5034 20.0948 16.7736 19.0887ZM9.61491 9.6636L21.1001 6.58642C21.2049 6.55828 21.3148 6.55442 21.4214 6.57513C21.528 6.59583 21.6284 6.64056 21.7151 6.70591C21.8018 6.77126 21.8725 6.85552 21.9217 6.95227C21.971 7.04902 21.9975 7.15573 21.9994 7.26429V7.28929C22.0163 8.28253 21.7005 9.2529 21.1024 10.0461C20.5043 10.8392 19.6582 11.4096 18.6986 11.6665L6.98202 14.8058L6.94487 14.8158C5.93847 15.0851 4.86634 14.9437 3.96411 14.4228C3.06189 13.9019 2.4034 13.0441 2.13338 12.0379C1.86432 11.0315 2.00576 9.95948 2.52663 9.05731C3.04749 8.15513 3.90518 7.49662 4.91127 7.22643C5.858 6.97337 6.86511 7.083 7.73521 7.53385C8.60531 7.98469 9.27567 8.74423 9.61491 9.6636ZM11.7114 7.62286L12.3335 5.3014C12.5904 4.3418 13.1608 3.49566 13.9539 2.89756C14.7471 2.29946 15.7175 1.98375 16.7107 2.00064H16.7357C16.8443 2.00247 16.951 2.02902 17.0477 2.07828C17.1445 2.12753 17.2287 2.19819 17.2941 2.28489C17.3594 2.37158 17.4042 2.47204 17.4249 2.57861C17.4456 2.68519 17.4417 2.79508 17.4136 2.89994L16.4914 6.34213L11.7114 7.62286Z" fill="#696969"/>
</svg>
