<svg width="24" height="24" viewBox="0 0 24 24" fill="none" xmlns="http://www.w3.org/2000/svg">
<path d="M22.9984 6.76359C22.9992 6.61883 22.9715 6.47533 22.9167 6.34132C22.862 6.20731 22.7813 6.08542 22.6794 5.98265L18.0157 1.31899C17.913 1.21705 17.7911 1.1364 17.6571 1.08166C17.5231 1.02693 17.3796 0.999181 17.2348 1.00002C17.09 0.999181 16.9466 1.02693 16.8125 1.08166C16.6785 1.1364 16.5566 1.21705 16.4539 1.31899L13.3411 4.43176L1.31899 16.4539C1.21705 16.5566 1.1364 16.6785 1.08166 16.8125C1.02693 16.9466 0.999181 17.09 1.00002 17.2348V21.8985C1.00002 22.1902 1.1159 22.4699 1.32218 22.6762C1.52845 22.8825 1.80822 22.9984 2.09994 22.9984H6.76359C6.9175 23.0067 7.07145 22.9827 7.21546 22.9277C7.35946 22.8728 7.49032 22.7882 7.59953 22.6794L19.5556 10.6573L22.6794 7.59953C22.7798 7.49292 22.8616 7.37023 22.9214 7.23655C22.932 7.14888 22.932 7.06025 22.9214 6.97257C22.9265 6.92137 22.9265 6.86978 22.9214 6.81858L22.9984 6.76359ZM6.31262 20.7985H3.19985V17.6858L14.122 6.76359L17.2348 9.87636L6.31262 20.7985ZM18.7857 8.32547L15.6729 5.2127L17.2348 3.66182L20.3366 6.76359L18.7857 8.32547Z" fill="#3853E0"/>
</svg>
