<svg width="24" height="24" viewBox="0 0 24 24" fill="none" xmlns="http://www.w3.org/2000/svg">
<path fill-rule="evenodd" clip-rule="evenodd" d="M17.9497 6.05025C16.637 4.7375 14.8565 4 13 4C12.7348 4 12.4804 3.89464 12.2929 3.70711C12.1054 3.51957 12 3.26522 12 3C12 2.73478 12.1054 2.48043 12.2929 2.29289C12.4804 2.10536 12.7348 2 13 2C15.3869 2 17.6761 2.94821 19.364 4.63604C21.0518 6.32387 22 8.61305 22 11C22 11.2652 21.8946 11.5196 21.7071 11.7071C21.5196 11.8946 21.2652 12 21 12C20.7348 12 20.4804 11.8946 20.2929 11.7071C20.1054 11.5196 20 11.2652 20 11C20 9.14348 19.2625 7.36301 17.9497 6.05025ZM21.4741 15.4919C21.6 15.6056 21.695 15.7495 21.75 15.91C21.8344 16.1474 21.898 16.3916 21.94 16.64C21.9802 16.8913 22.0003 17.1455 22 17.4C22 18.0041 21.881 18.6022 21.6498 19.1603C21.4187 19.7184 21.0798 20.2255 20.6527 20.6527C20.2255 21.0798 19.7184 21.4187 19.1603 21.6498C18.6022 21.881 18.0041 22 17.4 22C13.3173 21.9947 9.40331 20.3705 6.5164 17.4836C3.62949 14.5967 2.00529 10.6827 2 6.6C2 5.38 2.48464 4.20998 3.34731 3.34731C4.20998 2.48464 5.38 2 6.6 2C6.85933 2.0079 7.11725 2.0414 7.37 2.1C7.61531 2.1363 7.85647 2.19659 8.09 2.28C8.25053 2.335 8.39443 2.42995 8.50814 2.55591C8.62186 2.68187 8.70165 2.8347 8.74 3L10.11 8.93C10.1469 9.09286 10.1425 9.26238 10.0971 9.42308C10.0516 9.58379 9.96671 9.73056 9.85 9.85C9.72731 9.99156 9.7115 9.99953 8.64259 10.5379C8.57888 10.57 8.51144 10.604 8.44 10.64C9.42499 12.8009 11.1532 14.5362 13.31 15.53C13.96 14.29 13.97 14.28 14.11 14.15C14.2294 14.0333 14.3762 13.9484 14.5369 13.9029C14.6976 13.8575 14.8671 13.8531 15.03 13.89L21.03 15.26C21.1953 15.2984 21.3481 15.3781 21.4741 15.4919ZM15.1213 8.87859C14.5587 8.31598 13.7956 7.99991 13 7.99991C12.7348 7.99991 12.4804 7.89455 12.2929 7.70702C12.1054 7.51948 12 7.26513 12 6.99991C12 6.73469 12.1054 6.48034 12.2929 6.2928C12.4804 6.10527 12.7348 5.99991 13 5.99991C14.3261 5.99991 15.5979 6.5267 16.5355 7.46438C17.4732 8.40206 18 9.67383 18 10.9999C18 11.2651 17.8946 11.5195 17.7071 11.707C17.5196 11.8946 17.2652 11.9999 17 11.9999C16.7348 11.9999 16.4804 11.8946 16.2929 11.707C16.1054 11.5195 16 11.2651 16 10.9999C16 10.2043 15.6839 9.4412 15.1213 8.87859Z" fill="#696969"/>
</svg>
