<svg width="20" height="20" viewBox="0 0 20 20" fill="none" xmlns="http://www.w3.org/2000/svg">
<path d="M18.2537 11.3136C17.9625 10.9293 17.8057 10.467 17.8057 9.9925C17.8057 9.51801 17.9625 9.05566 18.2537 8.67141L18.8506 7.88326C18.9235 7.78701 18.9716 7.67558 18.9907 7.55814C19.0098 7.44069 18.9994 7.32058 18.9605 7.2077C18.9212 7.096 18.8553 6.99451 18.7681 6.91117C18.6809 6.82784 18.5748 6.7649 18.4579 6.7273L17.492 6.42705C17.0188 6.28116 16.6063 5.99533 16.3141 5.61082C16.0219 5.22631 15.8651 4.76301 15.8663 4.28779V3.31198C15.8662 3.1935 15.8368 3.07673 15.7805 2.97122C15.7241 2.8657 15.6424 2.77443 15.5421 2.70488C15.4417 2.63532 15.3256 2.58946 15.2031 2.57104C15.0807 2.55262 14.9554 2.56216 14.8376 2.59889L13.8638 2.89914C13.391 3.04536 12.882 3.04497 12.4095 2.89802C11.937 2.75107 11.5252 2.46509 11.233 2.08096L10.6361 1.29281C10.5599 1.20147 10.4631 1.12771 10.353 1.07702C10.2429 1.02632 10.1222 1 10 1C9.87777 1 9.75711 1.02632 9.64698 1.07702C9.53686 1.12771 9.4401 1.20147 9.36389 1.29281L8.76705 2.08096C8.47483 2.46509 8.06302 2.75107 7.59051 2.89802C7.118 3.04497 6.60898 3.04536 6.13623 2.89914L5.16243 2.59889C5.04458 2.56216 4.91932 2.55262 4.79687 2.57104C4.67443 2.58946 4.55829 2.63532 4.45794 2.70488C4.3576 2.77443 4.27591 2.8657 4.21954 2.97122C4.16318 3.07673 4.13375 3.1935 4.13366 3.31198V4.28779C4.13487 4.76301 3.97806 5.22631 3.68587 5.61082C3.39369 5.99533 2.98124 6.28116 2.50805 6.42705L1.54211 6.7273C1.42524 6.7649 1.31906 6.82784 1.23187 6.91117C1.14468 6.99451 1.07884 7.096 1.0395 7.2077C1.00056 7.32058 0.990218 7.44069 1.00933 7.55814C1.02845 7.67558 1.07647 7.78701 1.14945 7.88326L1.74629 8.67141C2.03752 9.05566 2.19432 9.51801 2.19432 9.9925C2.19432 10.467 2.03752 10.9293 1.74629 11.3136L1.14945 12.1017C1.07647 12.198 1.02845 12.3094 1.00933 12.4269C0.990218 12.5443 1.00056 12.6644 1.0395 12.7773C1.07884 12.889 1.14468 12.9905 1.23187 13.0738C1.31906 13.1572 1.42524 13.2201 1.54211 13.2577L2.50805 13.5579C2.98124 13.7038 3.39369 13.9897 3.68587 14.3742C3.97806 14.7587 4.13487 15.222 4.13366 15.6972V16.673C4.13375 16.7915 4.16318 16.9083 4.21954 17.0138C4.27591 17.1193 4.3576 17.2106 4.45794 17.2801C4.55829 17.3497 4.67443 17.3955 4.79687 17.414C4.91932 17.4324 5.04458 17.4228 5.16243 17.3861L6.12837 17.0859C6.60214 16.9372 7.11308 16.9363 7.5874 17.0834C8.06171 17.2304 8.47482 17.5178 8.76705 17.904L9.36389 18.6922C9.43721 18.7876 9.533 18.8652 9.64351 18.9187C9.75401 18.9721 9.87614 19 10 19C10.1239 19 10.246 18.9721 10.3565 18.9187C10.467 18.8652 10.5628 18.7876 10.6361 18.6922L11.233 17.904C11.5257 17.5184 11.9388 17.2314 12.4129 17.0844C12.8871 16.9374 13.3978 16.9379 13.8716 17.0859L14.8376 17.3861C14.9554 17.4228 15.0807 17.4324 15.2031 17.414C15.3256 17.3955 15.4417 17.3497 15.5421 17.2801C15.6424 17.2106 15.7241 17.1193 15.7805 17.0138C15.8368 16.9083 15.8662 16.7915 15.8663 16.673V15.6972C15.8651 15.222 16.0219 14.7587 16.3141 14.3742C16.6063 13.9897 17.0188 13.7038 17.492 13.5579L18.4579 13.2577C18.5748 13.2201 18.6809 13.1572 18.7681 13.0738C18.8553 12.9905 18.9212 12.889 18.9605 12.7773C18.9994 12.6644 19.0098 12.5443 18.9907 12.4269C18.9716 12.3094 18.9235 12.198 18.8506 12.1017L18.2537 11.3136ZM13.6989 9.02195L9.77226 12.775C9.62499 12.9158 9.42527 12.9948 9.21704 12.9948C9.0088 12.9948 8.80908 12.9158 8.66181 12.775L6.30586 10.5232C6.23085 10.4539 6.17102 10.3711 6.12986 10.2795C6.08871 10.188 6.06704 10.0895 6.06614 9.9898C6.06523 9.89013 6.0851 9.79129 6.12459 9.69904C6.16407 9.60679 6.22239 9.52298 6.29612 9.45251C6.36986 9.38203 6.45754 9.32629 6.55405 9.28855C6.65057 9.25081 6.75398 9.23182 6.85825 9.23268C6.96252 9.23355 7.06557 9.25425 7.16139 9.29359C7.2572 9.33293 7.34385 9.39012 7.4163 9.46181L9.21468 11.183L12.5861 7.96057C12.7342 7.82384 12.9325 7.74818 13.1385 7.74989C13.3444 7.7516 13.5413 7.83054 13.6869 7.96971C13.8325 8.10888 13.9151 8.29715 13.9169 8.49396C13.9187 8.69077 13.8396 8.88038 13.6965 9.02195H13.6989Z" fill="#DF49B5"/>
</svg>
