<svg width="36" height="36" viewBox="0 0 36 36" fill="none" xmlns="http://www.w3.org/2000/svg">
<rect width="36" height="36" rx="18" fill="#0077FF"/>
<path d="M18.8844 24.3C12.1195 24.3 8.26087 19.5702 8.1001 11.7H11.4887C11.6 17.4765 14.0982 19.9234 16.077 20.4279V11.7H19.2677V16.6819C21.2218 16.4675 23.2747 14.1972 23.9673 11.7H27.1581C26.8971 12.9951 26.3769 14.2214 25.6299 15.3022C24.883 16.383 23.9255 17.2949 22.8172 17.981C24.0543 18.608 25.147 19.4953 26.0232 20.5845C26.8993 21.6737 27.539 22.9401 27.9001 24.3H24.3878C24.0637 23.1188 23.405 22.0615 22.4941 21.2605C21.5833 20.4595 20.461 19.9505 19.2677 19.7972V24.3H18.8844Z" fill="white"/>
</svg>
