<svg width="36" height="36" viewBox="0 0 36 36" fill="none" xmlns="http://www.w3.org/2000/svg">
<g clip-path="url(#clip0_211_2065)">
<rect width="36" height="36" rx="18" fill="#111111"/>
<path d="M26.9713 13.7484C26.3504 13.7484 25.7356 13.6261 25.1619 13.3885C24.5883 13.1509 24.067 12.8027 23.628 12.3636C23.1889 11.9245 22.8407 11.4033 22.603 10.8297C22.3654 10.256 22.2431 9.64118 22.2431 9.02026H18.8651V22.2479C18.8645 22.851 18.674 23.4386 18.3208 23.9274C17.9676 24.4162 17.4695 24.7814 16.8971 24.9713C16.3247 25.1612 15.707 25.1661 15.1317 24.9853C14.5563 24.8046 14.0524 24.4474 13.6915 23.9642C13.3305 23.4811 13.1307 22.8967 13.1205 22.2937C13.1102 21.6907 13.29 21.0998 13.6344 20.6047C13.9787 20.1096 14.4702 19.7354 15.039 19.5352C15.6079 19.335 16.2254 19.3189 16.8039 19.4893V16.2056C15.5744 16.0398 14.3236 16.2531 13.2186 16.8169C12.1135 17.3807 11.2067 18.2682 10.6193 19.3609C10.0319 20.4536 9.79182 21.6995 9.93116 22.9323C10.0705 24.165 10.5826 25.3259 11.3991 26.26C12.2156 27.194 13.2976 27.8567 14.5007 28.1596C15.7037 28.4625 16.9705 28.3912 18.132 27.9552C19.2934 27.5191 20.2942 26.7391 21.0007 25.7194C21.7072 24.6996 22.0857 23.4885 22.0858 22.2479L22.1838 15.5617C23.5717 16.5806 25.2492 17.1288 26.971 17.1263L26.9713 13.7484Z" fill="url(#paint0_linear_211_2065)"/>
<path d="M26.0786 12.8282C24.8246 12.8282 23.622 12.33 22.7353 11.4433C21.8487 10.5566 21.3505 9.35395 21.3506 8.09998H17.9726V21.3276C17.9719 21.9307 17.7815 22.5183 17.4283 23.0071C17.075 23.4959 16.5769 23.8611 16.0045 24.051C15.4321 24.2409 14.8145 24.2459 14.2391 24.0651C13.6638 23.8844 13.1599 23.5271 12.7989 23.044C12.4379 22.5609 12.2381 21.9765 12.2279 21.3735C12.2176 20.7705 12.3974 20.1795 12.7418 19.6844C13.0861 19.1893 13.5776 18.8152 14.1465 18.615C14.7153 18.4148 15.3328 18.3987 15.9113 18.569V15.2853C14.6819 15.1195 13.4311 15.3328 12.326 15.8966C11.2209 16.4604 10.3141 17.3479 9.7267 18.4406C9.1393 19.5333 8.89924 20.7792 9.03858 22.012C9.17792 23.2447 9.69003 24.4056 10.5065 25.3397C11.323 26.2737 12.405 26.9364 13.6081 27.2393C14.8111 27.5422 16.078 27.4709 17.2394 27.0349C18.4009 26.5988 19.4016 25.8189 20.1081 24.7991C20.8146 23.7793 21.1932 22.5682 21.1932 21.3276L21.2918 14.6415C22.6797 15.6604 24.3572 16.2086 26.0789 16.206L26.0786 12.8282Z" fill="url(#paint1_linear_211_2065)"/>
<path d="M26.0784 13.6639C24.9096 13.439 23.8687 12.7816 23.1633 11.8229C22.2718 11.1252 21.6603 10.1307 21.44 9.02026H18.8654V22.2479C18.8653 22.8757 18.6598 23.4862 18.2803 23.9863C17.9008 24.4864 17.368 24.8485 16.7634 25.0175C16.1588 25.1864 15.5155 25.1529 14.9317 24.9219C14.3479 24.691 13.8557 24.2755 13.5303 23.7386C12.9515 23.3619 12.5276 22.7895 12.336 22.126C12.1445 21.4626 12.198 20.7523 12.4869 20.1251C12.7758 19.4978 13.2807 18.9955 13.9094 18.7098C14.5382 18.4241 15.2487 18.3742 15.9112 18.5691V16.1527C14.7748 16.1673 13.6652 16.4993 12.7076 17.1111C11.7499 17.723 10.9823 18.5903 10.4915 19.6153C10.0007 20.6402 9.80609 21.782 9.92976 22.9116C10.0534 24.0413 10.4904 25.1139 11.1914 26.0084C12.0813 26.751 13.1644 27.2244 14.3138 27.3733C15.4632 27.5222 16.6312 27.3404 17.6809 26.8491C18.7307 26.3579 19.6186 25.5775 20.2406 24.5996C20.8627 23.6217 21.1931 22.4867 21.1931 21.3277L21.2916 14.6415C22.6795 15.6604 24.357 16.2086 26.0787 16.2061L26.0784 13.6639Z" fill="url(#paint2_linear_211_2065)"/>
</g>
<defs>
<linearGradient id="paint0_linear_211_2065" x1="11.2464" y1="26.1259" x2="25.2976" y2="12.0747" gradientUnits="userSpaceOnUse">
<stop stop-color="#B5053C"/>
<stop offset="0.233" stop-color="#C90441"/>
<stop offset="0.737" stop-color="#F0014B"/>
<stop offset="1" stop-color="#FF004F"/>
</linearGradient>
<linearGradient id="paint1_linear_211_2065" x1="10.1445" y1="25.4147" x2="24.9456" y2="10.6137" gradientUnits="userSpaceOnUse">
<stop stop-color="#00B2C9"/>
<stop offset="0.283" stop-color="#00C8D4"/>
<stop offset="0.741" stop-color="#00E6E4"/>
<stop offset="1" stop-color="#00F1EA"/>
</linearGradient>
<linearGradient id="paint2_linear_211_2065" x1="1.852" y1="34.6138" x2="34.6144" y2="1.85139" gradientUnits="userSpaceOnUse">
<stop stop-color="#DDE3E4"/>
<stop offset="1" stop-color="#FCF7F7"/>
</linearGradient>
<clipPath id="clip0_211_2065">
<rect width="36" height="36" fill="white"/>
</clipPath>
</defs>
</svg>
