<svg width="30" height="30" viewBox="0 0 30 30" fill="none" xmlns="http://www.w3.org/2000/svg">
<path d="M17.2 17.2V21.6M17.2 26H21.6V17.2M21.6 19.4H26M26 23.8V26M5.1 4H11.7C12.3075 4 12.8 4.49249 12.8 5.1V11.7C12.8 12.3075 12.3075 12.8 11.7 12.8H5.1C4.49249 12.8 4 12.3075 4 11.7V5.1C4 4.49249 4.49249 4 5.1 4ZM5.1 17.2H11.7C12.3075 17.2 12.8 17.6925 12.8 18.3V24.9C12.8 25.5075 12.3075 26 11.7 26H5.1C4.49249 26 4 25.5075 4 24.9V18.3C4 17.6925 4.49249 17.2 5.1 17.2ZM18.3 4H24.9C25.5075 4 26 4.49249 26 5.1V11.7C26 12.3075 25.5075 12.8 24.9 12.8H18.3C17.6925 12.8 17.2 12.3075 17.2 11.7V5.1C17.2 4.49249 17.6925 4 18.3 4Z" stroke="#3853E0" stroke-width="2.7" stroke-linecap="round" stroke-linejoin="round"/>
</svg>
