<svg width="30" height="30" viewBox="0 0 30 30" fill="none" xmlns="http://www.w3.org/2000/svg">
<path d="M26.6057 24.713L22.0739 20.1945C23.536 18.3317 24.3294 16.0313 24.3265 13.6632C24.3265 11.5542 23.7011 9.49262 22.5294 7.73906C21.3577 5.9855 19.6923 4.61877 17.7439 3.81169C15.7954 3.00462 13.6514 2.79345 11.5829 3.2049C9.51448 3.61634 7.61447 4.63191 6.12319 6.12319C4.63191 7.61447 3.61634 9.51448 3.2049 11.5829C2.79345 13.6514 3.00462 15.7954 3.81169 17.7439C4.61877 19.6923 5.9855 21.3577 7.73906 22.5294C9.49262 23.7011 11.5542 24.3265 13.6632 24.3265C16.0313 24.3294 18.3317 23.536 20.1945 22.0739L24.713 26.6057C24.8369 26.7307 24.9843 26.8298 25.1468 26.8975C25.3092 26.9652 25.4834 27 25.6594 27C25.8353 27 26.0095 26.9652 26.172 26.8975C26.3344 26.8298 26.4818 26.7307 26.6057 26.6057C26.7307 26.4818 26.8298 26.3344 26.8975 26.172C26.9652 26.0095 27 25.8353 27 25.6594C27 25.4834 26.9652 25.3092 26.8975 25.1468C26.8298 24.9843 26.7307 24.8369 26.6057 24.713ZM5.66581 13.6632C5.66581 12.0815 6.13485 10.5353 7.01362 9.2201C7.89239 7.90494 9.14142 6.87989 10.6028 6.27458C12.0641 5.66927 13.6721 5.5109 15.2235 5.81948C16.7748 6.12806 18.1998 6.88974 19.3183 8.0082C20.4367 9.12666 21.1984 10.5517 21.507 12.103C21.8156 13.6544 21.6572 15.2624 21.0519 16.7237C20.4466 18.1851 19.4215 19.4341 18.1064 20.3128C16.7912 21.1916 15.245 21.6607 13.6632 21.6607C11.5422 21.6607 9.50801 20.8181 8.0082 19.3183C6.5084 17.8185 5.66581 15.7843 5.66581 13.6632Z" fill="#43BCCE"/>
</svg>
