<svg width="24" height="24" viewBox="0 0 24 24" fill="none" xmlns="http://www.w3.org/2000/svg">
<path d="M9.77778 18.6C10.0725 18.6 10.3551 18.4841 10.5635 18.2778C10.7718 18.0715 10.8889 17.7917 10.8889 17.5V10.9C10.8889 10.6083 10.7718 10.3285 10.5635 10.1222C10.3551 9.91589 10.0725 9.8 9.77778 9.8C9.48309 9.8 9.20048 9.91589 8.9921 10.1222C8.78373 10.3285 8.66667 10.6083 8.66667 10.9V17.5C8.66667 17.7917 8.78373 18.0715 8.9921 18.2778C9.20048 18.4841 9.48309 18.6 9.77778 18.6ZM20.8889 5.4H16.4444V4.3C16.4444 3.42479 16.0933 2.58542 15.4681 1.96655C14.843 1.34768 13.9952 1 13.1111 1H10.8889C10.0048 1 9.15699 1.34768 8.53187 1.96655C7.90674 2.58542 7.55556 3.42479 7.55556 4.3V5.4H3.11111C2.81643 5.4 2.53381 5.51589 2.32544 5.72218C2.11706 5.92847 2 6.20826 2 6.5C2 6.79174 2.11706 7.07153 2.32544 7.27782C2.53381 7.48411 2.81643 7.6 3.11111 7.6H4.22222V19.7C4.22222 20.5752 4.57341 21.4146 5.19853 22.0335C5.82365 22.6523 6.6715 23 7.55556 23H16.4444C17.3285 23 18.1763 22.6523 18.8015 22.0335C19.4266 21.4146 19.7778 20.5752 19.7778 19.7V7.6H20.8889C21.1836 7.6 21.4662 7.48411 21.6746 7.27782C21.8829 7.07153 22 6.79174 22 6.5C22 6.20826 21.8829 5.92847 21.6746 5.72218C21.4662 5.51589 21.1836 5.4 20.8889 5.4ZM9.77778 4.3C9.77778 4.00826 9.89484 3.72847 10.1032 3.52218C10.3116 3.31589 10.5942 3.2 10.8889 3.2H13.1111C13.4058 3.2 13.6884 3.31589 13.8968 3.52218C14.1052 3.72847 14.2222 4.00826 14.2222 4.3V5.4H9.77778V4.3ZM17.5556 19.7C17.5556 19.9917 17.4385 20.2715 17.2301 20.4778C17.0217 20.6841 16.7391 20.8 16.4444 20.8H7.55556C7.26087 20.8 6.97826 20.6841 6.76988 20.4778C6.56151 20.2715 6.44444 19.9917 6.44444 19.7V7.6H17.5556V19.7ZM14.2222 18.6C14.5169 18.6 14.7995 18.4841 15.0079 18.2778C15.2163 18.0715 15.3333 17.7917 15.3333 17.5V10.9C15.3333 10.6083 15.2163 10.3285 15.0079 10.1222C14.7995 9.91589 14.5169 9.8 14.2222 9.8C13.9275 9.8 13.6449 9.91589 13.4365 10.1222C13.2282 10.3285 13.1111 10.6083 13.1111 10.9V17.5C13.1111 17.7917 13.2282 18.0715 13.4365 18.2778C13.6449 18.4841 13.9275 18.6 14.2222 18.6Z" fill="#3853E0"/>
</svg>
