<svg width="44" height="44" viewBox="0 0 44 44" fill="none" xmlns="http://www.w3.org/2000/svg">
<g filter="url(#filter0_d_211_2683)">
<circle cx="22" cy="19" r="12" fill="#262626"/>
<path d="M26.6308 14.3692C26.5148 14.2522 26.3767 14.1594 26.2246 14.096C26.0725 14.0326 25.9093 14 25.7446 14C25.5798 14 25.4167 14.0326 25.2645 14.096C25.1124 14.1594 24.9744 14.2522 24.8584 14.3692L22 17.2401L19.1416 14.3692C18.9066 14.1342 18.5878 14.0021 18.2554 14.0021C17.923 14.0021 17.6043 14.1342 17.3692 14.3692C17.1342 14.6043 17.0021 14.923 17.0021 15.2554C17.0021 15.5878 17.1342 15.9066 17.3692 16.1416L20.2401 19L17.3692 21.8584C17.2522 21.9744 17.1594 22.1124 17.096 22.2645C17.0326 22.4167 17 22.5798 17 22.7446C17 22.9093 17.0326 23.0725 17.096 23.2246C17.1594 23.3767 17.2522 23.5148 17.3692 23.6308C17.4852 23.7478 17.6233 23.8406 17.7754 23.904C17.9275 23.9674 18.0907 24 18.2554 24C18.4202 24 18.5833 23.9674 18.7355 23.904C18.8876 23.8406 19.0256 23.7478 19.1416 23.6308L22 20.7599L24.8584 23.6308C24.9744 23.7478 25.1124 23.8406 25.2645 23.904C25.4167 23.9674 25.5798 24 25.7446 24C25.9093 24 26.0725 23.9674 26.2246 23.904C26.3767 23.8406 26.5148 23.7478 26.6308 23.6308C26.7478 23.5148 26.8406 23.3767 26.904 23.2246C26.9674 23.0725 27 22.9093 27 22.7446C27 22.5798 26.9674 22.4167 26.904 22.2645C26.8406 22.1124 26.7478 21.9744 26.6308 21.8584L23.7599 19L26.6308 16.1416C26.7478 16.0256 26.8406 15.8876 26.904 15.7355C26.9674 15.5833 27 15.4202 27 15.2554C27 15.0907 26.9674 14.9275 26.904 14.7754C26.8406 14.6233 26.7478 14.4852 26.6308 14.3692Z" fill="white"/>
</g>
<defs>
<filter id="filter0_d_211_2683" x="0" y="0" width="44" height="44" filterUnits="userSpaceOnUse" color-interpolation-filters="sRGB">
<feFlood flood-opacity="0" result="BackgroundImageFix"/>
<feColorMatrix in="SourceAlpha" type="matrix" values="0 0 0 0 0 0 0 0 0 0 0 0 0 0 0 0 0 0 127 0" result="hardAlpha"/>
<feOffset dy="3"/>
<feGaussianBlur stdDeviation="5"/>
<feComposite in2="hardAlpha" operator="out"/>
<feColorMatrix type="matrix" values="0 0 0 0 0 0 0 0 0 0 0 0 0 0 0 0 0 0 0.35 0"/>
<feBlend mode="normal" in2="BackgroundImageFix" result="effect1_dropShadow_211_2683"/>
<feBlend mode="normal" in="SourceGraphic" in2="effect1_dropShadow_211_2683" result="shape"/>
</filter>
</defs>
</svg>
