<svg width="30" height="30" viewBox="0 0 30 30" fill="none" xmlns="http://www.w3.org/2000/svg">
<path d="M6.23017 6.4755L6.34383 6.34383C6.7606 5.92707 7.41277 5.88918 7.87233 6.23017L8.004 6.34383L15 13.3393L21.996 6.34383C22.4544 5.88539 23.1977 5.88539 23.6562 6.34383C24.1146 6.80227 24.1146 7.54555 23.6562 8.004L16.6607 15L23.6562 21.996C24.0729 22.4128 24.1108 23.0649 23.7698 23.5245L23.6562 23.6562C23.2394 24.0729 22.5872 24.1108 22.1277 23.7698L21.996 23.6562L15 16.6607L8.004 23.6562C7.54555 24.1146 6.80227 24.1146 6.34383 23.6562C5.88539 23.1977 5.88539 22.4544 6.34383 21.996L13.3393 15L6.34383 8.004C5.92707 7.58723 5.88918 6.93506 6.23017 6.4755L6.34383 6.34383L6.23017 6.4755Z" fill="#696969"/>
</svg>
