<svg width="30" height="30" viewBox="0 0 30 30" fill="none" xmlns="http://www.w3.org/2000/svg">
<path d="M25.8 14.9971C25.4817 14.9971 25.1765 15.1235 24.9515 15.3486C24.7264 15.5737 24.6 15.879 24.6 16.1974V23.3992C24.6 23.7175 24.4736 24.0228 24.2485 24.2479C24.0235 24.473 23.7183 24.5995 23.4 24.5995H6.6C6.28174 24.5995 5.97652 24.473 5.75147 24.2479C5.52643 24.0228 5.4 23.7175 5.4 23.3992V16.1974C5.4 15.879 5.27357 15.5737 5.04853 15.3486C4.82348 15.1235 4.51826 14.9971 4.2 14.9971C3.88174 14.9971 3.57652 15.1235 3.35147 15.3486C3.12643 15.5737 3 15.879 3 16.1974V23.3992C3 24.3542 3.37928 25.2701 4.05442 25.9454C4.72955 26.6207 5.64522 27.0001 6.6 27.0001H23.4C24.3548 27.0001 25.2705 26.6207 25.9456 25.9454C26.6207 25.2701 27 24.3542 27 23.3992V16.1974C27 15.879 26.8736 15.5737 26.6485 15.3486C26.4235 15.1235 26.1183 14.9971 25.8 14.9971Z" fill="#3853E0"/>
<path d="M11.0569 12.9506L13.8049 15.7113V4.20043C13.8049 3.8821 13.9313 3.5768 14.1564 3.3517C14.3814 3.1266 14.6867 3.00014 15.0049 3.00014C15.3232 3.00014 15.6284 3.1266 15.8534 3.3517C16.0785 3.5768 16.2049 3.8821 16.2049 4.20043V15.7113L18.9529 12.9506C19.0645 12.8381 19.1972 12.7488 19.3434 12.6879C19.4896 12.6269 19.6465 12.5956 19.8049 12.5956C19.9633 12.5956 20.1202 12.6269 20.2664 12.6879C20.4126 12.7488 20.5454 12.8381 20.6569 12.9506C20.7694 13.0622 20.8587 13.195 20.9196 13.3412C20.9805 13.4875 21.0119 13.6444 21.0119 13.8028C21.0119 13.9613 20.9805 14.1182 20.9196 14.2644C20.8587 14.4107 20.7694 14.5435 20.6569 14.655L15.8569 19.4562C15.7428 19.5655 15.6082 19.6512 15.4609 19.7083C15.1688 19.8284 14.8411 19.8284 14.5489 19.7083C14.4016 19.6512 14.267 19.5655 14.1529 19.4562L9.35291 14.655C9.24102 14.5431 9.15227 14.4103 9.09172 14.264C9.03117 14.1178 9 13.9611 9 13.8028C9 13.6446 9.03117 13.4878 9.09172 13.3416C9.15227 13.1954 9.24102 13.0625 9.35291 12.9506C9.4648 12.8387 9.59762 12.7499 9.74381 12.6894C9.89 12.6288 10.0467 12.5976 10.2049 12.5976C10.3631 12.5976 10.5198 12.6288 10.666 12.6894C10.8122 12.7499 10.945 12.8387 11.0569 12.9506Z" fill="#3853E0"/>
</svg>
