<svg width="24" height="24" viewBox="0 0 24 24" fill="none" xmlns="http://www.w3.org/2000/svg">
<path fill-rule="evenodd" clip-rule="evenodd" d="M18.5447 5.45528C17.1007 4.01125 15.1422 3.2 13.1 3.2C12.8083 3.2 12.5285 3.08411 12.3222 2.87782C12.1159 2.67153 12 2.39174 12 2.1C12 1.80826 12.1159 1.52847 12.3222 1.32218C12.5285 1.11589 12.8083 1 13.1 1C15.7256 1 18.2437 2.04303 20.1004 3.89964C21.957 5.75625 23 8.27436 23 10.9C23 11.1917 22.8841 11.4715 22.6778 11.6778C22.4715 11.8841 22.1917 12 21.9 12C21.6083 12 21.3285 11.8841 21.1222 11.6778C20.9159 11.4715 20.8 11.1917 20.8 10.9C20.8 8.85783 19.9888 6.89931 18.5447 5.45528ZM22.4215 15.841C22.5601 15.9661 22.6645 16.1244 22.725 16.301C22.8178 16.5621 22.8878 16.8308 22.934 17.104C22.9783 17.3805 23.0003 17.66 23 17.94C23 18.6045 22.8691 19.2625 22.6148 19.8764C22.3605 20.4903 21.9878 21.0481 21.518 21.518C21.0481 21.9878 20.4903 22.3605 19.8764 22.6148C19.2625 22.8691 18.6045 23 17.94 23C13.449 22.9942 9.14365 21.2076 5.96804 18.032C2.79244 14.8564 1.00582 10.551 1 6.06C1 4.718 1.53311 3.43097 2.48204 2.48204C3.43097 1.53311 4.718 1 6.06 1C6.34527 1.00869 6.62898 1.04553 6.907 1.11C7.17684 1.14993 7.44211 1.21625 7.699 1.308C7.87559 1.3685 8.03387 1.47295 8.15896 1.6115C8.28404 1.75006 8.37181 1.91817 8.414 2.1L9.921 8.623C9.96162 8.80215 9.95673 8.98862 9.90677 9.16539C9.85681 9.34216 9.76338 9.50361 9.635 9.635C9.50004 9.79072 9.48266 9.79948 8.30685 10.3917C8.23677 10.427 8.16258 10.4644 8.084 10.504C9.16749 12.8809 11.0685 14.7898 13.441 15.883C14.156 14.519 14.167 14.508 14.321 14.365C14.4524 14.2366 14.6138 14.1432 14.7906 14.0932C14.9674 14.0433 15.1539 14.0384 15.333 14.079L21.933 15.586C22.1148 15.6282 22.2829 15.716 22.4215 15.841ZM7.52046 16.4795C10.2841 19.2432 14.0316 20.7971 17.94 20.8C18.6976 20.7971 19.4234 20.4949 19.9591 19.9591C20.4949 19.4234 20.7971 18.6976 20.8 17.94V17.577L15.707 16.411L15.388 17.016C14.893 17.973 14.53 18.666 13.606 18.292C11.7832 17.6395 10.1286 16.5892 8.76241 15.2174C7.39625 13.8455 6.35285 12.1865 5.708 10.361C5.312 9.503 6.06 9.107 7.006 8.612L7.6 8.304L6.423 3.2H6.06C5.30237 3.2029 4.5766 3.50515 4.04088 4.04088C3.50515 4.5766 3.2029 5.30237 3.2 6.06C3.20291 9.9684 4.75681 13.7159 7.52046 16.4795ZM15.4335 8.56655C14.8146 7.94768 13.9752 7.6 13.1 7.6C12.8083 7.6 12.5285 7.48411 12.3222 7.27782C12.1159 7.07153 12 6.79174 12 6.5C12 6.20826 12.1159 5.92847 12.3222 5.72218C12.5285 5.51589 12.8083 5.4 13.1 5.4C14.5587 5.4 15.9576 5.97946 16.9891 7.01091C18.0205 8.04236 18.6 9.44131 18.6 10.9C18.6 11.1917 18.4841 11.4715 18.2778 11.6778C18.0715 11.8841 17.7917 12 17.5 12C17.2083 12 16.9285 11.8841 16.7222 11.6778C16.5159 11.4715 16.4 11.1917 16.4 10.9C16.4 10.0248 16.0523 9.18542 15.4335 8.56655Z" fill="#696969"/>
</svg>
