<svg width="30" height="30" viewBox="0 0 30 30" fill="none" xmlns="http://www.w3.org/2000/svg">
<path d="M21.9509 17.9021C20.7553 17.9021 19.6825 18.426 18.9407 19.2527L12.0125 15.7942C12.0648 15.5338 12.0975 15.2683 12.0975 15C12.0975 14.731 12.0649 14.4651 12.013 14.2055L18.9407 10.7474C19.6825 11.574 20.7553 12.0979 21.9509 12.0979C24.1835 12.0979 26 10.2818 26 8.04912C26 5.81648 24.1835 4 21.9509 4C19.7182 4 17.9021 5.81647 17.9021 8.04911C17.9021 8.323 17.9301 8.59038 17.9822 8.84915L11.0621 12.3035C10.3066 11.4593 9.21078 10.9478 8.05222 10.9478C5.81785 10.9478 4 12.7656 4 15C4 17.2344 5.81785 19.0522 8.05223 19.0522C9.21416 19.0522 10.3126 18.5374 11.0639 17.6974L17.9822 21.1508C17.9301 21.4096 17.9021 21.677 17.9021 21.9509C17.9021 24.1835 19.7182 26 21.9509 26C24.1835 26 26 24.1835 26 21.9509C26 19.7182 24.1835 17.9021 21.9509 17.9021ZM21.9509 6.12903C23.0095 6.12903 23.871 6.99049 23.871 8.04911C23.871 9.10774 23.0095 9.96885 21.9509 9.96885C20.8923 9.96885 20.0312 9.10774 20.0312 8.04911C20.0312 6.99049 20.8923 6.12903 21.9509 6.12903ZM8.05223 16.9232C6.99187 16.9232 6.12903 16.0604 6.12903 15C6.12903 13.9396 6.99187 13.0768 8.05223 13.0768C8.77161 13.0768 9.44144 13.4926 9.76821 14.1555C9.90127 14.412 9.9685 14.6961 9.9685 15C9.9685 15.3039 9.90127 15.588 9.75851 15.8639C9.44144 16.5074 8.77161 16.9232 8.05223 16.9232ZM21.9509 23.871C20.8923 23.871 20.0312 23.0095 20.0312 21.9509C20.0312 20.8923 20.8923 20.0312 21.9509 20.0312C23.0095 20.0312 23.871 20.8923 23.871 21.9509C23.871 23.0095 23.0095 23.871 21.9509 23.871Z" fill="white"/>
</svg>
