<svg width="24" height="24" viewBox="0 0 24 24" fill="none" xmlns="http://www.w3.org/2000/svg">
<path d="M14.4768 10.3574H21.1643C21.385 10.3574 21.5967 10.2697 21.7528 10.1136C21.9088 9.95755 21.9965 9.74588 21.9965 9.52518C21.9965 7.53082 21.2043 5.61816 19.794 4.20794C18.3838 2.79772 16.4711 2.00547 14.4768 2.00547C14.2561 2.00547 14.0444 2.09314 13.8884 2.24921C13.7323 2.40527 13.6446 2.61694 13.6446 2.83765V9.52518C13.6446 9.74588 13.7323 9.95755 13.8884 10.1136C14.0444 10.2697 14.2561 10.3574 14.4768 10.3574Z" fill="#696969"/>
<path d="M21.0741 12.0317H12.9027C12.7829 12.0317 12.6642 12.0081 12.5535 11.9623C12.4428 11.9164 12.3422 11.8492 12.2575 11.7645C12.1728 11.6798 12.1056 11.5792 12.0597 11.4685C12.0139 11.3578 11.9903 11.2392 11.9903 11.1194V2.92788C11.9911 2.79783 11.9643 2.66909 11.9118 2.5501C11.8593 2.43111 11.7823 2.32456 11.6857 2.23746C11.5891 2.15035 11.4752 2.08465 11.3515 2.04467C11.2277 2.00469 11.0969 1.99133 10.9676 2.00547C9.08542 2.20532 7.29825 2.93387 5.81277 4.10686C4.32729 5.27985 3.20417 6.84936 2.57331 8.6339C1.94244 10.4184 1.8296 12.3451 2.24782 14.1911C2.66604 16.0371 3.59824 17.727 4.93663 19.0653C6.27502 20.4037 7.96491 21.3359 9.81089 21.7542C11.6569 22.1724 13.5835 22.0595 15.3681 21.4287C17.1526 20.7978 18.7221 19.6747 19.8951 18.1892C21.0681 16.7037 21.7966 14.9166 21.9965 13.0344C22.0077 12.9067 21.9921 12.778 21.9507 12.6567C21.9094 12.5354 21.8432 12.424 21.7564 12.3296C21.6696 12.2353 21.5641 12.1601 21.4466 12.1088C21.3292 12.0575 21.2023 12.0313 21.0741 12.0317Z" fill="#696969"/>
</svg>
