<svg width="36" height="36" viewBox="0 0 36 36" fill="none" xmlns="http://www.w3.org/2000/svg">
<rect width="36" height="36" rx="18" fill="#55ACE3"/>
<path d="M27 12.7449C26.3571 13.0204 25.6225 13.2041 24.8878 13.2959C25.6225 12.8367 26.2653 12.102 26.5408 11.2755C25.8061 11.7347 25.0714 12.0102 24.1531 12.1939C23.5102 11.4592 22.5 11 21.4898 11C19.4694 11 17.8163 12.6531 17.8163 14.6735C17.8163 14.949 17.8163 15.2245 17.9082 15.5C14.8776 15.3163 12.1224 13.8469 10.2857 11.6429C10.0102 12.1939 9.82653 12.8367 9.82653 13.4796C9.82653 14.7653 10.4694 15.8673 11.4796 16.5102C10.8367 16.5102 10.2857 16.3265 9.82653 16.051C9.82653 17.7959 11.1122 19.3571 12.7653 19.6327C12.4898 19.7245 12.1225 19.7245 11.7551 19.7245C11.4796 19.7245 11.2959 19.7245 11.0204 19.6327C11.4796 21.102 12.8571 22.2041 14.5102 22.2041C13.2245 23.2143 11.6633 23.7653 9.91837 23.7653C9.64286 23.7653 9.36735 23.7653 9 23.6735C10.6531 24.6837 12.5816 25.3265 14.6939 25.3265C21.4898 25.3265 25.1633 19.7245 25.1633 14.8571V14.398C25.898 14.1224 26.5408 13.4796 27 12.7449Z" fill="white"/>
</svg>
