<svg width="30" height="30" viewBox="0 0 30 30" fill="none" xmlns="http://www.w3.org/2000/svg">
<path d="M8.27419 4H4.16129C3.51979 4 3 4.50782 3 5.13373V9.14903C3 9.77495 3.51979 10.2828 4.16129 10.2828H8.27419C8.9157 10.2828 9.43548 9.77494 9.43548 9.14903V5.13373C9.43548 4.50781 8.9157 4 8.27419 4ZM7.1129 8.0153H5.32258V6.26746H7.1129V8.0153ZM12.5462 8.27511H25.8387C26.4798 8.27511 27 7.76729 27 7.14138C27 6.51547 26.4798 6.00765 25.8387 6.00765H12.5462C11.9047 6.00765 11.385 6.51547 11.385 7.14138C11.385 7.76729 11.9047 8.27511 12.5462 8.27511ZM8.27419 11.8586H4.16129C3.51979 11.8586 3 12.3664 3 12.9923V17.0076C3 17.6336 3.51979 18.1414 4.16129 18.1414H8.27419C8.9157 18.1414 9.43548 17.6336 9.43548 17.0076V12.9923C9.43548 12.3664 8.9157 11.8586 8.27419 11.8586ZM7.1129 15.8739H5.32258V14.1261H7.1129V15.8739ZM25.8387 13.8663H12.5462C11.9047 13.8663 11.385 14.3741 11.385 15C11.385 15.6259 11.9047 16.1337 12.5462 16.1337H25.8387C26.4798 16.1337 27 15.6259 27 15C27 14.3741 26.4798 13.8663 25.8387 13.8663ZM8.27419 19.7172H4.16129C3.51979 19.7172 3 20.2251 3 20.851V24.8663C3 25.4922 3.51979 26 4.16129 26H8.27419C8.9157 26 9.43548 25.4922 9.43548 24.8663V20.851C9.43548 20.2251 8.9157 19.7172 8.27419 19.7172ZM7.1129 23.7325H5.32258V21.9847H7.1129V23.7325ZM25.8387 21.7249H12.5462C11.9047 21.7249 11.385 22.2327 11.385 22.8586C11.385 23.4845 11.9047 23.9924 12.5462 23.9924H25.8387C26.4798 23.9924 27 23.4845 27 22.8586C27 22.2327 26.4798 21.7249 25.8387 21.7249Z" fill="#43BCCE"/>
</svg>
