<svg width="24" height="24" viewBox="0 0 24 24" fill="none" xmlns="http://www.w3.org/2000/svg">
<path d="M18.3671 5.63324C14.8554 2.12225 9.14438 2.12225 5.63266 5.63324C2.12245 9.14422 2.12245 14.8567 5.63266 18.3677C7.38852 20.1228 9.69438 21 12.0003 21C14.3062 21 16.6113 20.1228 18.3671 18.3677C21.8781 14.8568 21.8781 9.14422 18.3671 5.63324ZM15.7138 14.6534C16.0072 14.9468 16.0072 15.421 15.7138 15.7144C15.5675 15.8607 15.3754 15.9343 15.1833 15.9343C14.9912 15.9343 14.7991 15.8607 14.6528 15.7144L12.0002 13.0611L9.34845 15.7136C9.20139 15.86 9.00927 15.9335 8.81793 15.9335C8.62585 15.9335 8.43373 15.86 8.28741 15.7136C7.99403 15.4203 7.99403 14.9453 8.28741 14.6526L10.9392 12.0001L8.28667 9.34755C7.99329 9.05417 7.99329 8.57919 8.28667 8.28655C8.57931 7.99317 9.0543 7.99317 9.34768 8.28655L12.0002 10.9391L14.6528 8.28655C14.9461 7.99317 15.4204 7.99317 15.7138 8.28655C16.0071 8.57919 16.0071 9.05417 15.7138 9.34755L13.0612 12.0001L15.7138 14.6534Z" fill="#979797"/>
</svg>
