<svg width="30" height="30" viewBox="0 0 30 30" fill="none" xmlns="http://www.w3.org/2000/svg">
<path d="M15 13.8755C17.7751 13.8755 20.0324 11.6606 20.0324 8.93794C20.0324 6.21531 17.7751 4 15 4C12.2249 4 9.96757 6.21531 9.96757 8.93794C9.96757 11.6606 12.2249 13.8755 15 13.8755ZM15 6.12903C16.5786 6.12903 17.8627 7.38899 17.8627 8.93794C17.8627 10.4866 16.5786 11.7465 15 11.7465C13.4214 11.7465 12.1373 10.4866 12.1373 8.93794C12.1373 7.38899 13.4214 6.12903 15 6.12903ZM20.6116 15.4255H9.3884C6.41698 15.4255 4 17.7975 4 20.7128C4 23.6281 6.41698 26 9.3884 26H20.6116C23.583 26 26 23.6281 26 20.7128C26 17.7975 23.583 15.4255 20.6116 15.4255ZM20.6116 23.871H9.3884C7.61346 23.871 6.16977 22.454 6.16977 20.7128C6.16977 18.9715 7.61345 17.5546 9.3884 17.5546H20.6116C22.3865 17.5546 23.8302 18.9715 23.8302 20.7128C23.8302 22.454 22.3865 23.871 20.6116 23.871Z" fill="#696969"/>
</svg>
