<svg width="24" height="24" viewBox="0 0 24 24" fill="none" xmlns="http://www.w3.org/2000/svg">
<path d="M12.7494 1.0004C13.3282 0.989395 13.8765 1.20829 14.2859 1.62738C14.6974 2.03328 14.9173 2.59537 14.9173 3.18936C14.9173 4.39933 15.875 5.37942 17.0653 5.37942C17.4326 5.37942 17.8009 5.26832 18.1282 5.08132C19.148 4.50823 20.4214 4.87232 21.0002 5.89531L21.7169 7.18228C21.8958 7.51228 22 7.88627 22 8.27126C22 9.05225 21.5906 9.77934 20.9276 10.1632C20.6003 10.3502 20.3267 10.6362 20.1383 10.9673C19.5795 12.0002 19.9278 13.3081 20.9276 13.9043C21.9369 14.5082 22.2841 15.8292 21.7169 16.8731L21.0002 18.1172C20.6214 18.7981 19.9162 19.2172 19.1585 19.2172C18.7796 19.2172 18.4008 19.1171 18.0861 18.9191C17.7483 18.7321 17.381 18.6221 17.0116 18.6221C16.4433 18.6221 15.8961 18.8542 15.4972 19.2711C15.0857 19.6792 14.8647 20.239 14.8647 20.822C14.8647 22.021 13.9081 23 12.7178 23H11.2771C10.7077 23 10.171 22.758 9.7816 22.351C9.38169 21.933 9.17226 21.383 9.17226 20.811C9.17226 19.6011 8.22405 18.6221 7.03588 18.6221C6.64544 18.6221 6.26658 18.7321 5.94033 18.9422C5.4457 19.2271 4.85636 19.3041 4.30911 19.1611C3.76186 19.0071 3.28828 18.6331 3.00413 18.1381L2.33164 16.8951C2.01487 16.3792 1.92015 15.7621 2.06854 15.1791C2.21483 14.5961 2.59474 14.1012 3.10937 13.8042C3.43667 13.6172 3.70924 13.3422 3.89867 13.0012C4.44697 11.9672 4.09863 10.6692 3.10937 10.0642C2.10959 9.47024 1.76229 8.16127 2.33164 7.12728L3.00413 5.89531C3.28828 5.37942 3.76186 5.00432 4.31963 4.85033C4.87846 4.69633 5.46675 4.78323 5.96138 5.08132C6.29815 5.26832 6.66649 5.36732 7.03588 5.36732C7.60418 5.36732 8.15038 5.13632 8.55029 4.72933C8.9502 4.32234 9.17226 3.76135 9.17226 3.18936C9.17226 1.97938 10.1289 1.0004 11.3181 1.0004H12.7494ZM13.1714 9.22935C12.0664 8.75525 10.7919 9.00825 9.93946 9.87723C9.09754 10.7352 8.83444 12.0442 9.2975 13.1673C9.75108 14.2992 10.8235 15.0361 12.0232 15.0361H12.0348C12.8241 15.0471 13.5608 14.7292 14.1175 14.1562C14.6753 13.5952 14.991 12.8252 14.991 12.0222C15.0015 10.8012 14.2754 9.69024 13.1714 9.22935Z" fill="#696969"/>
</svg>
