<svg width="24" height="24" viewBox="0 0 24 24" fill="none" xmlns="http://www.w3.org/2000/svg">
<path d="M18.1716 11.2336H5.82881C4.41044 11.2336 3.2335 10.0949 3.2335 8.72264C3.2335 7.35036 4.41044 6.21166 5.82881 6.21166L19.168 6.21169L17.9006 7.43798C17.4781 7.84673 17.4781 8.54754 17.9006 8.9563C18.1119 9.16078 18.4136 9.27748 18.6851 9.27748C18.9567 9.27748 19.2586 9.16078 19.4697 8.9563L22.6385 5.89051C22.8498 5.68603 22.9704 5.42331 22.9704 5.13143C22.9704 4.83938 22.8498 4.57663 22.6385 4.37235L19.4998 1.30657C19.0774 0.897812 18.353 0.897812 17.9305 1.30657C17.508 1.71532 17.5081 2.41612 17.9305 2.82489L19.198 4.05118L5.82859 4.05095C3.17287 4.05095 1 6.15317 1 8.72265C1 11.2921 3.17282 13.3943 5.82859 13.3943H18.1714C19.5898 13.3943 20.7667 14.533 20.7667 15.9053C20.7667 17.2776 19.5898 18.4163 18.1714 18.4163L8.8464 18.4161C8.3635 17.0147 7.03561 15.9927 5.4061 15.9927C3.4143 15.9927 1.78479 17.5693 1.78479 19.4964C1.78479 21.4234 3.4143 23 5.4061 23C7.00554 23 8.36349 21.978 8.8464 20.5766H18.1714C20.8271 20.5766 23 18.4744 23 15.9049C22.9998 13.3359 20.8575 11.2336 18.1716 11.2336ZM5.40632 20.8396C4.62174 20.8396 4.01802 20.2263 4.01802 19.4964C4.01802 18.7373 4.65187 18.1532 5.40632 18.1532C6.16077 18.1532 6.79461 18.7665 6.79461 19.4964C6.82451 20.2265 6.19089 20.8396 5.40632 20.8396Z" fill="#43BCCE"/>
</svg>
