<svg width="24" height="24" viewBox="0 0 24 24" fill="none" xmlns="http://www.w3.org/2000/svg">
<path d="M12.5703 24C12.5631 24 12.556 24 12.5484 23.9996C12.0921 23.9913 11.6827 23.7157 11.5028 23.2961L8.26311 15.7367L0.703724 12.4971C0.28411 12.3171 0.00852659 11.9077 0.000211717 11.4514C-0.00848251 10.9948 0.251222 10.5756 0.664024 10.3801L22.3412 0.111792C22.785 -0.0980152 23.3127 -0.00728713 23.6597 0.340118C24.0067 0.687144 24.0982 1.21487 23.888 1.6583L13.6201 23.3358C13.4273 23.7418 13.0183 24 12.5703 24ZM3.98574 11.3766L9.60509 13.7846C9.87916 13.9022 10.0977 14.1207 10.2152 14.3947L12.6233 20.0141L20.3974 3.60287L3.98574 11.3766Z" fill="#696969"/>
</svg>
