<svg width="30" height="30" viewBox="0 0 16 16" fill="none" xmlns="http://www.w3.org/2000/svg">
<path d="M8.33269 15C8.3285 15 8.32431 15 8.3199 14.9998C8.05374 14.9949 7.81492 14.8342 7.70996 14.5894L5.82015 10.1798L1.41051 8.28995C1.16573 8.18498 1.00497 7.94616 1.00012 7.68001C0.995052 7.41363 1.14655 7.16907 1.38735 7.05507L14.0323 1.06521C14.2912 0.942824 14.5991 0.995749 14.8015 1.1984C15.0039 1.40083 15.0573 1.70867 14.9347 1.96734L8.94506 14.6126C8.8326 14.8494 8.594 15 8.33269 15ZM3.32501 7.63634L6.60297 9.04102C6.76284 9.10961 6.8903 9.23706 6.95888 9.39694L8.36356 12.6749L12.8985 3.10167L3.32501 7.63634Z" fill="#EAEAEA"/>
</svg>
