<svg width="30" height="30" viewBox="0 0 30 30" fill="none" xmlns="http://www.w3.org/2000/svg">
<path d="M15 26C14.8421 26.001 14.6856 25.9683 14.5394 25.9039C14.3932 25.8395 14.2602 25.7446 14.1481 25.6247L4.82536 15.5562C3.65595 14.2817 3 12.5609 3 10.7678C3 8.97467 3.65595 7.25395 4.82536 5.97944C6.00392 4.71183 7.60039 4 9.26477 4C10.9291 4 12.5256 4.71183 13.7042 5.97944L15 7.37713L16.2958 5.97944C17.4744 4.71183 19.0709 4 20.7352 4C22.3996 4 23.9961 4.71183 25.1746 5.97944C26.344 7.25395 27 8.97467 27 10.7678C27 12.5609 26.344 14.2817 25.1746 15.5562L15.8519 25.6247C15.7398 25.7446 15.6068 25.8395 15.4606 25.9039C15.3144 25.9683 15.1579 26.001 15 26ZM9.26477 6.58769C8.75685 6.58521 8.25352 6.69146 7.78394 6.90028C7.31435 7.1091 6.88785 7.41633 6.52913 7.8042C5.8045 8.5899 5.39773 9.65309 5.39773 10.7613C5.39773 11.8696 5.8045 12.9328 6.52913 13.7185L15 22.8681L23.4709 13.7185C24.1955 12.9328 24.6023 11.8696 24.6023 10.7613C24.6023 9.65309 24.1955 8.5899 23.4709 7.8042C22.7314 7.05062 21.7526 6.63078 20.7352 6.63078C19.7179 6.63078 18.7391 7.05062 17.9996 7.8042L15.8519 10.1337C15.7403 10.255 15.6076 10.3512 15.4614 10.417C15.3152 10.4827 15.1584 10.5165 15 10.5165C14.8416 10.5165 14.6848 10.4827 14.5386 10.417C14.3924 10.3512 14.2597 10.255 14.1481 10.1337L12.0004 7.8042C11.6417 7.41633 11.2152 7.1091 10.7456 6.90028C10.276 6.69146 9.77269 6.58521 9.26477 6.58769Z" fill="#DF49B5"/>
</svg>
