<svg width="24" height="24" viewBox="0 0 24 24" fill="none" xmlns="http://www.w3.org/2000/svg">
<path d="M20 8.01673L14 2.76302C13.45 2.27165 12.738 2 12 2C11.2621 2 10.5501 2.27165 10 2.76302L4.00009 8.01673C3.68246 8.30047 3.42899 8.64853 3.25656 9.03776C3.08414 9.42698 2.99671 9.84842 3.00009 10.274V19.0036C3.00009 19.7983 3.31616 20.5604 3.87877 21.1224C4.44137 21.6843 5.20443 22 6.00007 22H18C18.7956 22 19.5587 21.6843 20.1213 21.1224C20.6839 20.5604 21 19.7983 21 19.0036V10.264C21.0019 9.84011 20.9138 9.42059 20.7414 9.0332C20.5691 8.6458 20.3163 8.29935 20 8.01673ZM15 20.0024H9.00005V12.0084C9.00005 11.7435 9.10541 11.4894 9.29294 11.3021C9.48048 11.1148 9.73483 11.0096 10 11.0096H14C14.2652 11.0096 14.5196 11.1148 14.7071 11.3021C14.8946 11.4894 15 11.7435 15 12.0084V20.0024Z" fill="#696969"/>
</svg>
