<svg width="24" height="24" viewBox="0 0 24 24" fill="none" xmlns="http://www.w3.org/2000/svg">
<path d="M3 6.845V21.0316C3 21.3864 3.19974 21.709 3.51925 21.8832C3.83876 22.0509 4.23153 22.038 4.53772 21.8445L9.27073 18.8897L14.0237 21.8445C14.1834 21.9477 14.3698 21.9993 14.5629 21.9993C14.7226 21.9993 14.8891 21.9606 15.0422 21.8832C15.3617 21.709 15.5614 21.3864 15.5614 21.0316V14.3996H20.0015C20.554 14.3996 21 13.9609 21 13.4318V5.60631C21 3.61931 19.3358 2 17.2788 2H7.99926C5.24334 2 3 4.17412 3 6.845ZM15.5614 5.60631C15.5614 4.68377 16.3336 3.93542 17.2788 3.93542C18.2308 3.93542 19.003 4.68376 19.003 5.60631V12.4641H15.5614V5.60631H15.5614Z" fill="#696969"/>
</svg>
