<svg width="16" height="16" viewBox="0 0 16 16" fill="none" xmlns="http://www.w3.org/2000/svg">
<path d="M11.9075 15C11.7996 15 11.6914 14.973 11.5921 14.9186L8 12.9428L4.40786 14.9186C4.17941 15.0438 3.90311 15.0231 3.69428 14.8646C3.48568 14.7061 3.38138 14.4373 3.42482 14.1715L4.11083 9.98642L1.2047 7.02248C1.01991 6.83422 0.953534 6.55252 1.03314 6.29597C1.11297 6.03942 1.32488 5.85231 1.58001 5.81355L5.59642 5.20286L7.39249 1.39498C7.50671 1.15319 7.74222 1 8 1C8.25778 1 8.49329 1.15319 8.60751 1.39498L10.4036 5.20286L14.42 5.81355C14.6751 5.85231 14.887 6.03942 14.9669 6.29597C15.0465 6.55252 14.9801 6.83422 14.7953 7.02248L11.8892 9.98643L12.5752 14.1715C12.6186 14.4373 12.5143 14.7061 12.3057 14.8646C12.1875 14.9543 12.0479 15 11.9075 15Z" fill="#EAEAEA"/>
</svg>
