<svg width="24" height="24" viewBox="0 0 24 24" fill="none" xmlns="http://www.w3.org/2000/svg">
<path d="M12 1C5.93448 1 1 5.93448 1 12C1 18.0655 5.93448 23 12 23C18.0655 23 23 18.0655 23 12C23 5.93447 18.0655 1 12 1ZM12 20.871C7.10849 20.871 3.12903 16.8915 3.12903 12C3.12903 7.10849 7.10849 3.12903 12 3.12903C16.8915 3.12903 20.871 7.10849 20.871 12C20.871 16.8915 16.8915 20.871 12 20.871Z" fill="#3853E0"/>
<path d="M12 4.7362C11.412 4.7362 10.9355 5.21302 10.9355 5.80072V11.5592L8.93155 13.5628C8.51572 13.9786 8.51572 14.6523 8.93155 15.0681C9.13911 15.276 9.41183 15.38 9.68419 15.38C9.95656 15.38 10.2289 15.276 10.4368 15.0681L12.7526 12.7526C12.9522 12.5531 13.0645 12.2821 13.0645 12V5.80072C13.0645 5.21301 12.588 4.7362 12 4.7362Z" fill="#3853E0"/>
</svg>
