<svg width="24" height="24" viewBox="0 0 24 24" fill="none" xmlns="http://www.w3.org/2000/svg">
<path d="M6 10C8.20914 10 10 8.20914 10 6C10 3.79086 8.20914 2 6 2C3.79086 2 2 3.79086 2 6C2 8.20914 3.79086 10 6 10Z" fill="#696969"/>
<path d="M18 22C20.2091 22 22 20.2091 22 18C22 15.7909 20.2091 14 18 14C15.7909 14 14 15.7909 14 18C14 20.2091 15.7909 22 18 22Z" fill="#696969"/>
<path d="M2.88 18C2.88327 18.8272 3.20985 19.6203 3.79 20.21C4.3792 20.7888 5.17318 21.1115 5.99912 21.1077C6.82506 21.104 7.61608 20.7741 8.2 20.19L20.12 8.12C20.6753 7.55407 20.9864 6.79286 20.9864 6C20.9864 5.20714 20.6753 4.44593 20.12 3.88C19.5467 3.3401 18.7895 3.03862 18.002 3.03677C17.2145 3.03491 16.4558 3.33282 15.88 3.87L3.81 15.8C3.5148 16.0852 3.28026 16.427 3.12045 16.8051C2.96064 17.1831 2.87885 17.5896 2.88 18Z" fill="#696969"/>
</svg>
