<svg width="24" height="24" viewBox="0 0 24 24" fill="none" xmlns="http://www.w3.org/2000/svg">
<path d="M17 2V6M7 2V6M12 2V6M4 4H20C21.1046 4 22 4.89543 22 6V20C22 21.1046 21.1046 22 20 22H4C2.89543 22 2 21.1046 2 20V6C2 4.89543 2.89543 4 4 4Z" stroke="#43BCCE" stroke-width="2" stroke-linecap="round" stroke-linejoin="round"/>
<path d="M11 10C11 9.44772 11.4477 9 12 9C12.5523 9 13 9.44772 13 10V16C13 16.5523 12.5523 17 12 17C11.4477 17 11 16.5523 11 16V10Z" fill="#43BCCE"/>
<path d="M15 12C15.5523 12 16 12.4477 16 13C16 13.5523 15.5523 14 15 14L9 14C8.44772 14 8 13.5523 8 13C8 12.4477 8.44772 12 9 12L15 12Z" fill="#43BCCE"/>
</svg>
