<svg width="16" height="16" viewBox="0 0 16 16" fill="none" xmlns="http://www.w3.org/2000/svg">
<path d="M8 14C7.90789 14.0006 7.81658 13.9813 7.7313 13.9432C7.64603 13.9052 7.56847 13.8491 7.50307 13.7782L2.06479 7.82865C1.38264 7.07553 1 6.05874 1 4.99916C1 3.93958 1.38264 2.92279 2.06479 2.16967C2.75228 1.42063 3.68356 1 4.65445 1C5.62534 1 6.55661 1.42063 7.2441 2.16967L8 2.99558L8.7559 2.16967C9.44339 1.42063 10.3747 1 11.3456 1C12.3164 1 13.2477 1.42063 13.9352 2.16967C14.6174 2.92279 15 3.93958 15 4.99916C15 6.05874 14.6174 7.07553 13.9352 7.82865L8.49693 13.7782C8.43153 13.8491 8.35397 13.9052 8.2687 13.9432C8.18342 13.9813 8.09211 14.0006 8 14Z" fill="#EAEAEA"/>
</svg>
